<svg width="23" height="21" viewBox="0 0 23 21" fill="none" xmlns="http://www.w3.org/2000/svg">
<path d="M16.7057 3.20834C16.7057 2.59028 16.889 1.98609 17.2324 1.47219C17.5758 0.958284 18.0638 0.557745 18.6348 0.321221C19.2059 0.0846975 19.8342 0.0228121 20.4404 0.143391C21.0466 0.26397 21.6034 0.561597 22.0404 0.998636C22.4775 1.43568 22.7751 1.9925 22.8957 2.59869C23.0163 3.20488 22.9544 3.83321 22.7179 4.40423C22.4813 4.97525 22.0808 5.46331 21.5669 5.80669C21.053 6.15007 20.4488 6.33334 19.8307 6.33334C19.0019 6.33334 18.2071 6.0041 17.621 5.41805C17.035 4.832 16.7057 4.03715 16.7057 3.20834ZM1.08073 4.25001H13.5807C13.857 4.25001 14.1219 4.14026 14.3173 3.94491C14.5127 3.74956 14.6224 3.48461 14.6224 3.20834C14.6224 2.93208 14.5127 2.66713 14.3173 2.47178C14.1219 2.27643 13.857 2.16668 13.5807 2.16668H1.08073C0.804462 2.16668 0.53951 2.27643 0.34416 2.47178C0.148809 2.66713 0.0390625 2.93208 0.0390625 3.20834C0.0390625 3.48461 0.148809 3.74956 0.34416 3.94491C0.53951 4.14026 0.804462 4.25001 1.08073 4.25001ZM7.33073 7.37501C6.686 7.37682 6.0576 7.57801 5.5317 7.95099C5.0058 8.32397 4.60814 8.85048 4.39323 9.45834H1.08073C0.804462 9.45834 0.53951 9.56809 0.34416 9.76344C0.148809 9.95879 0.0390625 10.2237 0.0390625 10.5C0.0390625 10.7763 0.148809 11.0412 0.34416 11.2366C0.53951 11.4319 0.804462 11.5417 1.08073 11.5417H4.39323C4.58433 12.0822 4.92042 12.5597 5.36473 12.922C5.80905 13.2842 6.34445 13.5173 6.91236 13.5957C7.48026 13.674 8.05878 13.5947 8.58459 13.3662C9.11041 13.1378 9.56326 12.7692 9.89359 12.3006C10.2239 11.8321 10.419 11.2817 10.4575 10.7097C10.4959 10.1377 10.3763 9.56615 10.1117 9.05759C9.84709 8.54903 9.44768 8.12305 8.95719 7.82629C8.46669 7.52952 7.90401 7.3734 7.33073 7.37501ZM21.9141 9.45834H13.5807C13.3045 9.45834 13.0395 9.56809 12.8442 9.76344C12.6488 9.95879 12.5391 10.2237 12.5391 10.5C12.5391 10.7763 12.6488 11.0412 12.8442 11.2366C13.0395 11.4319 13.3045 11.5417 13.5807 11.5417H21.9141C22.1903 11.5417 22.4553 11.4319 22.6506 11.2366C22.846 11.0412 22.9557 10.7763 22.9557 10.5C22.9557 10.2237 22.846 9.95879 22.6506 9.76344C22.4553 9.56809 22.1903 9.45834 21.9141 9.45834ZM9.41406 16.75H1.08073C0.804462 16.75 0.53951 16.8598 0.34416 17.0551C0.148809 17.2505 0.0390625 17.5154 0.0390625 17.7917C0.0390625 18.0679 0.148809 18.3329 0.34416 18.5282C0.53951 18.7236 0.804462 18.8333 1.08073 18.8333H9.41406C9.69033 18.8333 9.95528 18.7236 10.1506 18.5282C10.346 18.3329 10.4557 18.0679 10.4557 17.7917C10.4557 17.5154 10.346 17.2505 10.1506 17.0551C9.95528 16.8598 9.69033 16.75 9.41406 16.75ZM21.9141 16.75H18.6016C18.3558 16.055 17.8723 15.4692 17.2365 15.0962C16.6006 14.7232 15.8534 14.587 15.1268 14.7117C14.4003 14.8363 13.7412 15.2138 13.266 15.7774C12.7909 16.3411 12.5303 17.0545 12.5303 17.7917C12.5303 18.5289 12.7909 19.2423 13.266 19.8059C13.7412 20.3695 14.4003 20.747 15.1268 20.8717C15.8534 20.9963 16.6006 20.8601 17.2365 20.4871C17.8723 20.1141 18.3558 19.5284 18.6016 18.8333H21.9141C22.1903 18.8333 22.4553 18.7236 22.6506 18.5282C22.846 18.3329 22.9557 18.0679 22.9557 17.7917C22.9557 17.5154 22.846 17.2505 22.6506 17.0551C22.4553 16.8598 22.1903 16.75 21.9141 16.75Z" fill="#FFB452"/>
</svg>
