<svg width="28" height="28" viewBox="0 0 28 28" fill="none" xmlns="http://www.w3.org/2000/svg">
<path d="M14 0C8.56942 0 4.15625 4.41328 4.15625 9.84375C4.15625 11.6812 4.66495 13.4696 5.63287 15.0118L13.3327 27.6125C13.4641 27.8258 13.6609 27.9571 13.8907 27.9899C14.2023 28.0391 14.547 27.9079 14.7274 27.5962L22.4493 14.8805C23.3679 13.3711 23.8438 11.6157 23.8438 9.84375C23.8438 4.41328 19.4306 0 14 0ZM14 14.7656C11.2439 14.7656 9.07812 12.5344 9.07812 9.84375C9.07812 7.13666 11.2929 4.92187 14 4.92187C16.7071 4.92187 18.9219 7.13666 18.9219 9.84375C18.9219 12.518 16.789 14.7656 14 14.7656Z" fill="#FF9000"/>
<path d="M14 0V4.92188C16.7071 4.92188 18.9219 7.13666 18.9219 9.84375C18.9219 12.518 16.789 14.7656 14 14.7656V27.9995C14.2799 28.006 14.5678 27.8718 14.7273 27.5962L22.4492 14.8805C23.3679 13.3711 23.8438 11.6157 23.8438 9.84375C23.8438 4.41328 19.4306 0 14 0Z" fill="#FF9000"/>
</svg>
