<svg width="47" height="45" viewBox="0 0 47 45" fill="none" xmlns="http://www.w3.org/2000/svg">
<path opacity="0.21" d="M41.6867 -8.58307e-06H5.3158C2.38406 -8.58307e-06 0 2.38327 0 5.31847V38.7455C0 41.6773 2.38406 44.058 5.3158 44.058H41.6866C44.6183 44.058 46.9998 41.6773 46.9998 38.7455V5.31847C47 2.38327 44.6185 -8.58307e-06 41.6867 -8.58307e-06ZM30.3926 7.90958C33.2277 7.90958 35.527 10.209 35.527 13.044C35.527 15.879 33.2276 18.1784 30.3926 18.1784C27.5567 18.1784 25.2582 15.879 25.2582 13.044C25.2582 10.209 27.5567 7.90958 30.3926 7.90958ZM40.0196 39.1442H23.4995H7.71544C6.2974 39.1442 5.66587 38.1182 6.30511 36.8525L15.1167 19.3996C15.7551 18.134 16.972 18.021 17.8337 19.1471L26.694 30.7261C27.5557 31.8523 29.0619 31.9481 30.0587 30.9392L32.2263 28.7442C33.2224 27.7352 34.69 27.8602 35.5029 29.0214L41.1158 37.0389C41.9271 38.2019 41.4377 39.1442 40.0196 39.1442Z" fill="#B1B1B1"/>
</svg>
