<svg width="21" height="21" viewBox="0 0 21 21" fill="none" xmlns="http://www.w3.org/2000/svg">
<path d="M10.226 0L0 5.6953V7.83104L0.639123 8.18699V15.3061C0.639123 15.8959 1.06833 16.374 1.59781 16.374H2.23693C2.7664 16.374 3.19561 15.8959 3.19561 15.3061V9.61082L8.94772 12.8144V19.5776C8.94772 20.1674 9.37693 20.6455 9.9064 20.6455H10.5455C11.075 20.6455 11.5042 20.1674 11.5042 19.5776V12.8144L17.2563 9.61082V15.3061C17.2563 15.8959 17.6855 16.374 18.215 16.374H18.8541C19.3836 16.374 19.8128 15.8959 19.8128 15.3061V8.18699L20.4519 7.83104V5.6953L10.226 0ZM10.226 1.59188L17.9931 5.91777L10.226 10.0212L2.45878 5.91777L10.226 1.59188Z" fill="black"/>
</svg>
