<svg width="21" height="18" viewBox="0 0 21 18" fill="none" xmlns="http://www.w3.org/2000/svg">
<path d="M17.8954 4.74608V2.84765C17.8954 1.28144 16.745 0 15.3389 0H11.9303C11.2741 0 10.6776 0.284765 10.226 0.740389C9.77431 0.284765 9.1778 0 8.52163 0H5.11298C3.70691 0 2.55649 1.28144 2.55649 2.84765V4.74608C1.15042 4.74608 0 6.02752 0 7.59373V12.3398C0 13.906 1.15042 15.1875 2.55649 15.1875V17.0859H4.26082V15.1875H16.1911V17.0859H17.8954V15.1875C19.3015 15.1875 20.4519 13.906 20.4519 12.3398V7.59373C20.4519 6.02752 19.3015 4.74608 17.8954 4.74608ZM11.9303 1.89843H15.3389C15.8076 1.89843 16.1911 2.32558 16.1911 2.84765V5.48647C15.6713 6.00854 15.3389 6.75842 15.3389 7.59373V9.49217H11.0781V2.84765C11.0781 2.32558 11.4616 1.89843 11.9303 1.89843ZM4.26082 2.84765C4.26082 2.32558 4.64429 1.89843 5.11298 1.89843H8.52163C8.99032 1.89843 9.3738 2.32558 9.3738 2.84765V9.49217H5.11298V7.59373C5.11298 6.75842 4.78064 6.00854 4.26082 5.48647V2.84765ZM18.7476 12.3398C18.7476 12.8619 18.3641 13.289 17.8954 13.289H2.55649C2.0878 13.289 1.70433 12.8619 1.70433 12.3398V7.59373C1.70433 7.07166 2.0878 6.64452 2.55649 6.64452C3.02518 6.64452 3.40865 7.07166 3.40865 7.59373V11.3906H17.0433V7.59373C17.0433 7.07166 17.4267 6.64452 17.8954 6.64452C18.3641 6.64452 18.7476 7.07166 18.7476 7.59373V12.3398Z" fill="black"/>
</svg>
