<svg width="13" height="19" viewBox="0 0 13 19" fill="none" xmlns="http://www.w3.org/2000/svg">
<path d="M3.41667 18.6352C3.28588 18.5785 3.17719 18.4788 3.10775 18.3516C3.03831 18.2245 3.01208 18.0772 3.0332 17.933L4.1964 10.1565H1.10944C1.01157 10.1592 0.914408 10.1388 0.825446 10.0968C0.736483 10.0548 0.658098 9.99245 0.596339 9.91445C0.53458 9.83646 0.491098 9.74493 0.469247 9.64694C0.447396 9.54895 0.447762 9.44712 0.470314 9.3493L2.38768 0.818047C2.42142 0.671224 2.50339 0.540819 2.6198 0.448784C2.73621 0.356749 2.87994 0.308703 3.0268 0.312735H9.41803C9.51351 0.312401 9.60785 0.334039 9.69412 0.376058C9.78039 0.418076 9.85639 0.479408 9.91655 0.555547C9.97755 0.632546 10.0207 0.72275 10.0429 0.81937C10.065 0.915991 10.0655 1.01651 10.0444 1.11336L8.93869 6.21899H11.9745C12.0943 6.21874 12.2117 6.25306 12.3134 6.31804C12.4152 6.38302 12.497 6.47604 12.5497 6.58649C12.5955 6.69249 12.6132 6.80907 12.6008 6.92435C12.5885 7.03963 12.5466 7.14948 12.4794 7.24274L4.17083 18.399C4.11468 18.4845 4.0397 18.5551 3.95198 18.6053C3.86426 18.6555 3.76626 18.6837 3.66593 18.6877C3.58041 18.6861 3.49591 18.6683 3.41667 18.6352ZM7.34088 7.53149L8.61913 1.62523H3.5381L1.91473 8.84399H5.69195L4.67574 15.5902L10.6963 7.53149H7.34088Z" fill="black"/>
</svg>
