<svg width="21" height="19" viewBox="0 0 21 19" fill="none" xmlns="http://www.w3.org/2000/svg">
<path d="M13.8044 15.9471L12.2715 15.9489V14.8077H8.18114V15.9542L6.6479 15.956C6.36604 15.9563 6.13756 16.2109 6.13724 16.5252L6.13564 17.6546C6.13532 17.9696 6.36477 18.2252 6.64758 18.2248L13.8044 18.2156C14.0863 18.2152 14.3148 17.9607 14.3151 17.6468L14.3164 16.5173C14.3167 16.2023 14.0872 15.9467 13.8044 15.9471ZM18.7007 0.951821C18.617 0.402584 18.1827 0 17.6736 0H2.77803C2.26898 0 1.8347 0.402584 1.75097 0.951821C-0.105988 13.1404 0.00138425 12.39 0.0010647 12.5296C0.000106018 13.1461 0.457715 13.6686 1.04283 13.6686H19.4092C19.9917 13.6686 20.4481 13.1504 20.4506 12.5371C20.4513 12.3918 20.5577 13.1404 18.7007 0.951821ZM8.30321 2.27811H12.1485L12.4607 5.69526H7.991L8.30321 2.27811ZM5.90109 11.3905H2.27185L2.87933 7.40384H6.2657L5.90109 11.3905ZM6.42165 5.69526H3.13946L3.66002 2.27811H6.73386L6.42165 5.69526ZM7.47044 11.3905L7.83474 7.40384H12.6169L12.9812 11.3905H7.47044ZM13.7178 2.27811H16.7917L17.3122 5.69526H14.03L13.7178 2.27811ZM14.5506 11.3905L14.1863 7.40384H17.5727L18.1801 11.3905H14.5506Z" fill="black"/>
</svg>
