<svg width="107" height="111" viewBox="0 0 107 111" fill="none" xmlns="http://www.w3.org/2000/svg">
<rect width="107" height="111" rx="7" fill="#FF9000"/>
<rect x="0.5" y="0.5" width="106" height="110" rx="6.5" stroke="white" stroke-opacity="0.6"/>
<path d="M65.9703 42.8514C65.8272 42.2524 65.169 41.8449 64.5721 42.0567C64.5721 42.0567 38.7152 51.1809 38.7109 51.1841C38.314 51.3314 38.0225 51.7099 38.001 52.1433C37.9817 52.5594 38.2387 52.9928 38.6184 53.1691L48.6338 57.8436C48.6338 57.8436 53.5134 52.9648 53.5221 52.9562C54.49 51.9884 56.0356 53.4853 55.0429 54.4767L50.1546 59.3641C50.1546 59.3641 54.8235 69.3668 54.8321 69.383C55.0224 69.7486 55.3946 69.9808 55.8033 69.9991C56.2475 70.0196 56.6583 69.6798 56.8175 69.2819C56.8175 69.2819 65.938 43.4449 65.9434 43.4288C66.0112 43.2428 66.0155 43.0417 65.9703 42.8514Z" fill="white"/>
</svg>
