<svg width="226" height="178" viewBox="0 0 226 178" fill="none" xmlns="http://www.w3.org/2000/svg">
<path opacity="0.18" d="M199.971 171.544C211.696 167.114 222.296 157.637 224.595 145.308C226.489 135.14 222.584 124.816 217.838 115.616C213.091 106.417 207.342 97.5276 205.127 87.4254C201.001 68.6387 209.513 47.7973 201.427 30.3454C198.996 25.106 195.196 20.5865 190.904 16.7373C172.134 -0.0333692 143.948 -3.78848 119.906 3.62759C95.863 11.0437 75.7914 28.3571 61.0257 48.7277C54.9334 57.1241 49.6385 66.091 42.9979 74.0499C34.1473 84.6506 22.6604 93.9553 18.8167 107.198C16.0197 116.768 17.709 127.137 21.0321 136.552C26.1441 150.985 48.1708 176.656 58.6552 176.607C82.0223 176.49 126.857 177.637 148.518 176.806C164.746 176.169 182.984 177.958 199.971 171.544Z" fill="url(#paint0_linear_451_10428)"/>
<path d="M99.8102 152.099C99.2564 153.677 98.769 155.488 99.5721 156.956C100.109 157.774 100.832 158.454 101.682 158.939L109.325 164.134C110.793 165.131 112.349 166.156 114.111 166.289C115.872 166.421 117.871 165.297 118.021 163.519C118.198 161.487 116.066 160.096 115.069 158.313C113.762 155.976 114.482 153.079 115.163 150.487C116.881 143.963 118.136 137.326 118.918 130.626C117.351 129.984 112.787 127.109 111.164 127.585C109.336 128.139 107.686 133.251 106.872 134.918C104.12 140.473 101.76 146.214 99.8102 152.099Z" fill="#F1AF8C"/>
<path d="M114.462 108.262C112.479 113.894 110.374 119.544 107.195 124.606C107.08 124.752 107.019 124.934 107.024 125.121C107.074 125.296 107.184 125.449 107.334 125.553C110.53 128.35 113.98 131.269 118.184 131.872C118.458 131.936 118.745 131.91 119.003 131.8C119.246 131.628 119.425 131.381 119.513 131.097C122.194 124.888 123.141 118.087 123.052 111.363C122.994 108.005 122.728 104.653 122.255 101.327C122.144 100.519 122.083 96.9298 121.379 96.5089C120.311 95.8775 119.136 98.0818 118.671 98.7742C116.744 101.66 115.603 104.983 114.462 108.262Z" fill="#FF9000"/>
<path d="M123.157 97.5273C123.157 97.5273 120.659 98.4633 118.627 105.497C116.594 112.531 111.742 129.579 111.742 129.579C111.742 129.579 119.247 133.328 121.124 131.922C123.002 130.515 123.157 97.5273 123.157 97.5273Z" fill="url(#paint1_linear_451_10428)"/>
<path d="M144.44 90.2832C148.528 90.1558 152.665 90.3552 156.597 91.4629C160.53 92.5706 164.268 94.6641 166.849 97.8377C169.707 101.349 170.959 105.941 171.247 110.454C171.535 114.968 170.937 119.493 170.482 124.002C169.418 134.554 169.137 145.171 169.64 155.765C169.762 158.302 171.213 171.544 169.43 173.355C168.322 174.496 170.538 175.637 168.959 176.014C156.055 179.115 132.87 177.592 120.652 172.419C117.545 171.101 114.427 169.268 112.898 166.266C111.237 163.015 115.723 150.127 116.26 146.51C117.889 135.474 119.063 124.378 119.783 113.224C120.098 108.289 119.733 102.972 120.746 98.1257C121.483 94.6087 123.748 93.6506 127.016 92.7866C132.713 91.3047 138.557 90.465 144.44 90.2832Z" fill="#FF9000"/>
<path d="M155.061 148.022C154.634 150.265 154.075 152.608 152.541 154.303C151.327 155.516 149.843 156.423 148.21 156.95C140.511 159.852 131.733 159.398 124.355 163.042C123.835 163.27 123.356 163.583 122.937 163.967C121.514 165.374 121.913 167.844 123.043 169.506C125.552 173.178 130.431 174.208 134.834 174.889C145.391 176.551 156.169 177.908 166.719 176.207C167.294 176.166 167.843 175.956 168.298 175.604C168.662 175.181 168.895 174.661 168.968 174.108C171.361 163.485 169.478 152.425 169.433 141.536C169.433 135.256 169.987 128.969 169.561 122.705C169.346 118.807 168.535 114.965 167.157 111.313C166.177 108.831 163.308 103.354 161.585 108.438C158.849 116.519 158.063 125.231 157.077 133.655C156.54 138.457 155.964 143.264 155.061 148.022Z" fill="url(#paint2_linear_451_10428)"/>
<path d="M158.358 167.495H68.844C66.3327 167.495 64.2969 169.531 64.2969 172.043C64.2969 174.554 66.3327 176.59 68.844 176.59H158.358C160.869 176.59 162.905 174.554 162.905 172.043C162.905 169.531 160.869 167.495 158.358 167.495Z" fill="#FF9000"/>
<path d="M158.358 167.495H68.844C66.3327 167.495 64.2969 169.531 64.2969 172.043C64.2969 174.554 66.3327 176.59 68.844 176.59H158.358C160.869 176.59 162.905 174.554 162.905 172.043C162.905 169.531 160.869 167.495 158.358 167.495Z" fill="url(#paint3_linear_451_10428)"/>
<path d="M134.571 98.8901C132.738 98.5966 131.708 96.7522 132.527 92.3103C132.616 91.8174 132.732 91.3411 132.865 90.8648C132.865 90.7762 132.915 90.6876 132.937 90.5989C133.136 89.9122 133.364 89.2254 133.585 88.5442C134.202 86.9093 134.528 85.1792 134.549 83.4321C134.499 82.1582 134.399 80.8345 134.87 79.6604C135.322 78.6639 136.031 77.8056 136.925 77.1736C138.902 75.6505 144.679 72.7871 145.786 76.5699C146.279 78.1871 145.919 80.0702 145.897 81.7262C145.786 84.0992 146.222 86.466 147.171 88.6438C148.378 91.0697 139.074 99.6101 134.571 98.8901Z" fill="#F1AF8C"/>
<path d="M133.273 89.868C133.273 89.868 143.486 85.9911 145.458 79.8599L134.575 83.4212C134.575 83.4212 134.315 89.0317 133.273 89.868Z" fill="url(#paint4_linear_451_10428)"/>
<path d="M160.948 103.127C159.905 114.715 161.827 126.377 166.531 137.017C166.67 137.41 166.904 137.762 167.212 138.042C167.709 138.351 168.29 138.494 168.874 138.452C173.43 138.55 177.887 137.119 181.535 134.387C182.642 133.55 183.683 132.481 183.778 131.18C183.78 130.482 183.643 129.791 183.373 129.147C180.546 120.93 177.245 112.884 173.487 105.049C172.091 102.147 170.219 98.7462 166.841 97.4668C162.776 95.9327 161.23 100.092 160.948 103.127Z" fill="#FF9000"/>
<path d="M141.172 109.751C144.202 106.556 146.423 102.695 148.616 98.8793C149.951 96.5531 151.319 94.1217 151.507 91.441C151.555 91.1366 151.506 90.825 151.369 90.5493C151.235 90.357 151.061 90.1963 150.859 90.0786L146.7 87.2594C146.628 89.8127 144.795 92.006 142.701 93.4737C140.486 95.0466 134.144 96.7691 135.501 100.031C135.839 100.857 140.818 110.122 141.172 109.751Z" fill="#FF9000"/>
<path d="M141.172 109.751C144.202 106.556 146.423 102.695 148.616 98.8793C149.951 96.5531 151.319 94.1217 151.507 91.441C151.555 91.1366 151.506 90.825 151.369 90.5493C151.235 90.357 151.061 90.1963 150.859 90.0786L146.7 87.2594C146.628 89.8127 144.795 92.006 142.701 93.4737C140.486 95.0466 134.144 96.7691 135.501 100.031C135.839 100.857 140.818 110.122 141.172 109.751Z" fill="url(#paint5_linear_451_10428)"/>
<path d="M164.831 169.578L189.09 164.942C190.524 164.665 192.02 164.388 193.155 163.447C194.711 162.195 195.26 160.002 195.032 158.014C194.805 156.025 193.925 154.181 193.05 152.375C189.605 145.242 182.615 132.437 182.571 133.184C178.328 134.082 174.817 134.126 171.173 136.458C170.545 136.796 170.015 137.29 169.633 137.892C168.176 140.661 172.158 144.704 173.51 146.809C174.028 147.482 174.374 148.271 174.518 149.108C174.547 149.699 174.437 150.289 174.197 150.83C172.884 154.054 168.209 155.931 165.335 157.587C161.577 159.859 157.363 161.274 152.995 161.73C149.606 162.018 146.144 161.58 142.832 162.339C140.801 162.823 138.897 163.738 137.25 165.023C135.604 166.307 134.253 167.93 133.289 169.783C135.261 171.035 137.825 170.309 140.096 169.739C144.303 168.695 148.653 168.345 152.973 168.703C155.775 168.941 163.502 172.187 164.831 169.578Z" fill="#F1AF8C"/>
<path d="M127.326 176.595H58.648L40.5315 130.625C40.286 130.012 40.1946 129.348 40.2655 128.691C40.3363 128.035 40.5672 127.405 40.9379 126.859C41.3086 126.312 41.8077 125.865 42.3916 125.556C42.9754 125.247 43.6261 125.086 44.2867 125.087H98.1986C100.81 125.086 103.36 125.87 105.519 127.339C107.677 128.808 109.344 130.893 110.3 133.323L127.326 176.595Z" fill="#FF9000"/>
<path d="M127.326 176.595H58.648L40.5315 130.625C40.286 130.012 40.1946 129.348 40.2655 128.691C40.3363 128.035 40.5672 127.405 40.9379 126.859C41.3086 126.312 41.8077 125.865 42.3916 125.556C42.9754 125.247 43.6261 125.086 44.2867 125.087H98.1986C100.81 125.086 103.36 125.87 105.519 127.339C107.677 128.808 109.344 130.893 110.3 133.323L127.326 176.595Z" fill="url(#paint6_linear_451_10428)"/>
<path d="M123.837 176.645H58.5824L41.3687 132.996C41.1395 132.414 41.0559 131.786 41.1252 131.164C41.1944 130.543 41.4144 129.948 41.7659 129.431C42.1175 128.914 42.59 128.491 43.1424 128.198C43.6948 127.905 44.3103 127.752 44.9355 127.751H96.1446C98.6247 127.753 101.047 128.5 103.097 129.896C105.148 131.291 106.731 133.27 107.643 135.577L123.837 176.645Z" fill="url(#paint7_linear_451_10428)"/>
<path d="M132.353 24.945C134.015 23.9702 135.676 22.9789 137.554 22.6133C139.431 22.2478 141.985 22.4693 143.253 23.8872C141.608 24.0028 140.006 24.46 138.548 25.2296C137.09 25.9992 135.808 27.0642 134.784 28.3568C134.689 28.5247 134.539 28.6541 134.358 28.7223C134.204 28.7386 134.048 28.7097 133.909 28.6392C133.145 28.3512 127.418 29.6583 127.086 28.966C127.103 28.966 131.65 25.3715 132.353 24.945Z" fill="#FF9000"/>
<path d="M132.353 24.945C134.015 23.9702 135.676 22.9789 137.554 22.6133C139.431 22.2478 141.985 22.4693 143.253 23.8872C141.608 24.0028 140.006 24.46 138.548 25.2296C137.09 25.9992 135.808 27.0642 134.784 28.3568C134.689 28.5247 134.539 28.6541 134.358 28.7223C134.204 28.7386 134.048 28.7097 133.909 28.6392C133.145 28.3512 127.418 29.6583 127.086 28.966C127.103 28.966 131.65 25.3715 132.353 24.945Z" fill="url(#paint8_linear_451_10428)"/>
<path d="M119.974 67.1816C123.687 67.1816 126.698 63.472 126.698 58.8959C126.698 54.3199 123.687 50.6103 119.974 50.6103C116.26 50.6103 113.25 54.3199 113.25 58.8959C113.25 63.472 116.26 67.1816 119.974 67.1816Z" fill="#FF9000"/>
<path d="M121.353 67.492C124.788 67.492 127.572 64.0602 127.572 59.8267C127.572 55.5933 124.788 52.1614 121.353 52.1614C117.917 52.1614 115.133 55.5933 115.133 59.8267C115.133 64.0602 117.917 67.492 121.353 67.492Z" fill="#FF9000"/>
<path d="M121.353 67.492C124.788 67.492 127.572 64.0602 127.572 59.8267C127.572 55.5933 124.788 52.1614 121.353 52.1614C117.917 52.1614 115.133 55.5933 115.133 59.8267C115.133 64.0602 117.917 67.492 121.353 67.492Z" fill="url(#paint9_linear_451_10428)"/>
<path d="M119.164 44.3854L120.72 72.859C120.72 72.859 121.413 83.6037 132.063 83.7089C144.857 83.8363 148.751 76.3981 150.695 70.7377C152.639 65.0773 154.395 48.4507 150.695 43.8537C146.995 39.2568 126.176 27.9416 119.164 44.3854Z" fill="#F1AF8C"/>
<path d="M127.258 27.2879C122.24 27.1993 116.508 29.5421 114.22 34.2775C113.671 35.3671 113.373 36.5655 113.346 37.7852C113.319 39.005 113.565 40.2153 114.065 41.328C114.249 41.6553 114.394 42.0029 114.497 42.3637C114.547 42.7628 114.547 43.1665 114.497 43.5656C114.454 44.5277 114.648 45.4857 115.062 46.355C115.476 47.2244 116.098 47.9783 116.873 48.5503C117.754 49.1872 118.823 49.586 119.526 50.4112L119.255 45.1108C119.192 44.8244 119.246 44.5249 119.403 44.2778C119.561 44.0307 119.81 43.8562 120.097 43.7927L123.47 42.2197C123.47 42.2197 124.511 42.9785 124.638 43.0394C125.198 43.2778 125.802 43.393 126.411 43.3773C127.733 43.4084 129.055 43.3344 130.365 43.1557C133.195 42.7514 135.904 41.7157 138.545 40.6856C138.46 41.5044 138.106 42.2718 137.537 42.8677L146.139 44.5293C147.399 46.2615 148.414 48.1587 149.157 50.1675C149.752 51.7376 150.143 53.3774 150.32 55.0469C150.551 57.3167 150.338 59.6096 149.694 61.7984C150.28 61.3524 150.791 60.818 151.212 60.2144C151.99 60.7544 152.85 61.1641 153.76 61.4273C153.949 61.4976 154.154 61.5149 154.352 61.4772C154.773 61.3608 154.862 60.8624 154.906 60.4636C155.25 56.8913 157.908 53.8728 159.127 50.461C160.605 46.3293 159.858 41.6825 157.598 37.8554C156.928 36.6427 156.018 35.5797 154.923 34.7316C150.963 31.8295 145.336 33.1587 140.816 31.6412C138.667 30.9211 136.939 29.5531 134.884 28.6504C132.603 27.6811 129.745 27.3322 127.258 27.2879Z" fill="#3F3D56"/>
<path d="M127.258 27.2879C122.24 27.1993 116.508 29.5421 114.22 34.2775C113.671 35.3671 113.373 36.5655 113.346 37.7852C113.319 39.005 113.565 40.2153 114.065 41.328C114.249 41.6553 114.394 42.0029 114.497 42.3637C114.547 42.7628 114.547 43.1665 114.497 43.5656C114.454 44.5277 114.648 45.4857 115.062 46.355C115.476 47.2244 116.098 47.9783 116.873 48.5503C117.754 49.1872 118.823 49.586 119.526 50.4112L119.255 45.1108C119.192 44.8244 119.246 44.5249 119.403 44.2778C119.561 44.0307 119.81 43.8562 120.097 43.7927L123.47 42.2197C123.47 42.2197 124.511 42.9785 124.638 43.0394C125.198 43.2778 125.802 43.393 126.411 43.3773C127.733 43.4084 129.055 43.3344 130.365 43.1557C133.195 42.7514 135.904 41.7157 138.545 40.6856C138.46 41.5044 138.106 42.2718 137.537 42.8677L146.139 44.5293C147.399 46.2615 148.414 48.1587 149.157 50.1675C149.752 51.7376 150.143 53.3774 150.32 55.0469C150.551 57.3167 150.338 59.6096 149.694 61.7984C150.28 61.3524 150.791 60.818 151.212 60.2144C151.99 60.7544 152.85 61.1641 153.76 61.4273C153.949 61.4976 154.154 61.5149 154.352 61.4772C154.773 61.3608 154.862 60.8624 154.906 60.4636C155.25 56.8913 157.908 53.8728 159.127 50.461C160.605 46.3293 159.858 41.6825 157.598 37.8554C156.928 36.6427 156.018 35.5797 154.923 34.7316C150.963 31.8295 145.336 33.1587 140.816 31.6412C138.667 30.9211 136.939 29.5531 134.884 28.6504C132.603 27.6811 129.745 27.3322 127.258 27.2879Z" fill="url(#paint10_linear_451_10428)"/>
<path d="M157.011 68.1184C160.685 68.1184 163.663 64.446 163.663 59.9159C163.663 55.3857 160.685 51.7133 157.011 51.7133C153.337 51.7133 150.359 55.3857 150.359 59.9159C150.359 64.446 153.337 68.1184 157.011 68.1184Z" fill="#FF9000"/>
<path d="M157.011 68.1184C160.685 68.1184 163.663 64.446 163.663 59.9159C163.663 55.3857 160.685 51.7133 157.011 51.7133C153.337 51.7133 150.359 55.3857 150.359 59.9159C150.359 64.446 153.337 68.1184 157.011 68.1184Z" fill="url(#paint11_linear_451_10428)"/>
<path d="M159.558 68.1184C163.232 68.1184 166.21 64.446 166.21 59.9159C166.21 55.3857 163.232 51.7133 159.558 51.7133C155.884 51.7133 152.906 55.3857 152.906 59.9159C152.906 64.446 155.884 68.1184 159.558 68.1184Z" fill="#FF9000"/>
<path d="M159.61 52.3664L156.287 52.7209L155.495 52.804L152.172 36.4487C150.444 29.9797 146.218 25.0061 140.918 23.0787C140.097 22.7925 139.224 22.6885 138.359 22.7741L136.094 22.979L137.201 22.6855L139.417 22.0984C140.109 21.9074 140.826 21.8197 141.544 21.8381C147.459 22.0541 153.069 26.8228 155.102 33.6573L159.61 52.3664Z" fill="#FF9000"/>
<path d="M159.61 52.3664L156.287 52.7209L155.495 52.804L152.172 36.4487C150.444 29.9797 146.218 25.0061 140.918 23.0787C140.097 22.7925 139.224 22.6885 138.359 22.7741L136.094 22.979L137.201 22.6855L139.417 22.0984C140.109 21.9074 140.826 21.8197 141.544 21.8381C147.459 22.0541 153.069 26.8228 155.102 33.6573L159.61 52.3664Z" fill="url(#paint12_linear_451_10428)"/>
<path d="M159.612 52.3664L156.289 52.7209L152.966 36.3269C151.21 29.7914 146.945 24.779 141.595 22.835C140.767 22.5383 139.883 22.4323 139.009 22.5249L137.203 22.6855L139.419 22.0984C140.111 21.9074 140.827 21.8197 141.545 21.8381C147.46 22.0541 153.071 26.8228 155.104 33.6573L159.612 52.3664Z" fill="#FF9000"/>
<path opacity="0.45" d="M89.8735 2.85759H8.66224C3.87822 2.85759 0 6.73581 0 11.5198V106.882C0 111.666 3.87822 115.544 8.66224 115.544H89.8735C94.6576 115.544 98.5358 111.666 98.5358 106.882V11.5198C98.5358 6.73581 94.6576 2.85759 89.8735 2.85759Z" fill="url(#paint13_linear_451_10428)"/>
<path d="M29.7123 104.766C37.8549 104.766 44.4558 98.1653 44.4558 90.0227C44.4558 81.8801 37.8549 75.2792 29.7123 75.2792C21.5697 75.2792 14.9688 81.8801 14.9688 90.0227C14.9688 98.1653 21.5697 104.766 29.7123 104.766Z" fill="url(#paint14_linear_451_10428)"/>
<path d="M8.77344 13.5413H71.7519V17.0859H8.77344V13.5413Z" fill="#FF9000"/>
<path opacity="0.51" d="M10.6797 60.1535H73.6582V63.6981H10.6797V60.1535Z" fill="#FF9000"/>
<path d="M10.6797 54.0891H55.4475V57.6337H10.6797V54.0891Z" fill="#FF9000"/>
<path d="M61.5703 54.0891H91.5392V57.6337H61.5703V54.0891Z" fill="#FF9000"/>
<path d="M45.3594 31.652H91.4399V34.8034H45.3594V31.652Z" fill="#FF9000"/>
<path opacity="0.51" d="M35.7031 37.2408H85.0015V40.3922H35.7031V37.2408Z" fill="#FF9000"/>
<path d="M11.5391 31.652H41.8458V34.8034H11.5391V31.652Z" fill="#FF9000"/>
<path d="M24.8359 42.6687H91.4477V45.8202H24.8359V42.6687Z" fill="#FF9000"/>
<path opacity="0.51" d="M11.5391 42.6687H21.3201V45.8202H11.5391V42.6687Z" fill="#FF9000"/>
<path opacity="0.51" d="M47.4766 48.2623H91.4413V51.4138H47.4766V48.2623Z" fill="#FF9000"/>
<path d="M11.5391 48.2623H41.8458V51.4138H11.5391V48.2623Z" fill="#FF9000"/>
<path d="M11.5391 37.1076H31.0291V40.259H11.5391V37.1076Z" fill="#FF9000"/>
<path d="M32.9857 80.3303C32.1217 81.3881 31.9777 82.8669 32.1383 84.2073C32.1883 84.4502 32.1883 84.7009 32.1383 84.9439C32.0648 85.1485 31.9519 85.3366 31.806 85.4977C29.4591 88.415 26.8304 91.0938 23.9579 93.4953C23.8771 93.5734 23.7809 93.6338 23.6755 93.6726C23.4874 93.7115 23.2917 93.6841 23.1216 93.595C22.2908 93.2683 21.3991 92.9138 20.5296 93.1243C20.1355 93.242 19.775 93.4515 19.4775 93.7355C19.18 94.0195 18.9541 94.37 18.8182 94.7581C18.5495 95.5408 18.5054 96.3831 18.6908 97.1895C19.636 96.4031 20.62 95.6646 21.6428 94.9741L23.0994 96.4197C23.1751 96.4773 23.2371 96.5508 23.2811 96.635C23.3251 96.7192 23.3501 96.8121 23.3542 96.9071C23.3258 97.0208 23.2664 97.1243 23.1825 97.2062L21.0336 99.7428C21.7404 100.026 22.5113 100.109 23.2623 99.9843C24.0133 99.8592 24.7156 99.5305 25.2927 99.0339C26.4004 97.9815 26.5666 96.0154 25.481 94.9575L33.7279 85.7137C34.2838 86.1249 34.9594 86.3422 35.6508 86.3322C36.3422 86.3222 37.0112 86.0854 37.555 85.6583C38.0831 85.2119 38.4913 84.6408 38.7428 83.9966C38.9943 83.3525 39.081 82.6558 38.995 81.9697C37.9685 82.5849 37.0169 83.3172 36.1593 84.1519L34.4977 82.0805C35.0848 81.5266 37.3611 79.998 35.8823 79.3998C34.9076 79.0066 33.6171 79.5604 32.9857 80.3303Z" fill="#FF9000"/>
<path d="M80.7228 95.2735L81.5148 92.7535C81.5148 92.7535 78.3855 90.2833 78.2914 90.4384L78.164 88.6162L81.0274 85.57L79.7092 83.2826C79.7092 83.2826 75.8323 83.914 75.8323 84.0912C75.0841 83.3879 74.2782 82.7487 73.423 82.1804L73.3012 78.0265L70.7534 77.3342C70.7534 77.3342 68.4217 80.5687 68.5768 80.6573C68.5768 80.6573 66.7823 81.034 65.9239 81.3053L63.0217 78.8352L60.8063 80.2641C60.8063 80.2641 61.4653 83.3491 61.7257 83.9971C61.1053 84.6783 60.3299 85.4481 60.3299 85.4481L56.1982 86.1128L55.8438 88.7269C55.8438 88.7269 58.7515 90.2999 59.3164 90.4605C59.3282 91.3072 59.4587 92.148 59.7041 92.9584L57.4499 96.4255L59.1502 98.4415C59.1502 98.4415 61.4044 97.6495 62.3847 97.2175C63.2986 98.0483 64.6002 99.0341 64.6002 99.0341L65.6414 103.088L68.2777 103.199C68.2777 103.199 69.546 100.247 69.679 99.5991C70.5269 99.5046 71.3821 99.4935 72.2322 99.5658L75.9375 101.51L77.7929 99.6268C77.2576 98.4298 76.6605 97.2614 76.004 96.1264C76.2392 95.8404 76.4521 95.5367 76.6409 95.2181L80.7228 95.2735ZM68.4273 95.3676C67.3908 95.3687 66.3772 95.0624 65.5149 94.4873C64.6525 93.9123 63.9801 93.0944 63.5827 92.1371C63.1853 91.1798 63.0807 90.1261 63.2823 89.1094C63.4838 88.0927 63.9824 87.1586 64.7149 86.4253C65.4475 85.692 66.381 85.1925 67.3975 84.9898C68.414 84.7872 69.4678 84.8907 70.4255 85.2871C71.3832 85.6835 72.2018 86.355 72.7778 87.2167C73.3537 88.0785 73.6612 89.0917 73.6612 90.1282C73.6597 91.5164 73.108 92.8474 72.1269 93.8295C71.1458 94.8116 69.8154 95.3647 68.4273 95.3676Z" fill="#FF9000"/>
<path d="M115.588 42.9518C116.569 41.0133 118.695 39.8613 120.839 39.5124C122.982 39.1635 125.176 39.4847 127.319 39.8115C125.242 41.473 119.443 43.9488 119.332 44.3918C119.254 45.176 119.245 45.9655 119.305 46.7512C119.382 47.8922 119.421 49.0885 119.415 50.2294C118.88 49.7054 118.281 49.2513 117.632 48.878C117.074 48.6628 116.565 48.3369 116.137 47.9199C115.576 47.2326 115.227 46.3981 115.129 45.5168C115.032 44.6354 115.191 43.7447 115.588 42.9518Z" fill="url(#paint15_linear_451_10428)"/>
<path d="M143.798 79.7992C141.296 79.7486 138.815 79.3345 136.432 78.5696C136.15 78.4852 135.913 78.2922 135.774 78.033C135.634 77.7739 135.603 77.4698 135.687 77.1878C135.772 76.9058 135.965 76.6688 136.224 76.5291C136.483 76.3894 136.787 76.3584 137.069 76.4429C142.774 78.1598 147.066 77.9327 149.808 75.7672C153.541 72.8373 153.297 67.2545 153.297 67.1991C153.282 66.9053 153.385 66.6177 153.582 66.3996C153.78 66.1815 154.056 66.0507 154.349 66.036C154.643 66.0213 154.931 66.1239 155.149 66.3213C155.367 66.5186 155.498 66.7945 155.512 67.0883C155.512 67.3597 155.806 73.8841 151.176 77.5173C149.248 79.0349 146.789 79.7955 143.798 79.7992Z" fill="#FF9000"/>
<path d="M143.798 79.7992C141.296 79.7486 138.815 79.3345 136.432 78.5696C136.15 78.4852 135.913 78.2922 135.774 78.033C135.634 77.7739 135.603 77.4698 135.687 77.1878C135.772 76.9058 135.965 76.6688 136.224 76.5291C136.483 76.3894 136.787 76.3584 137.069 76.4429C142.774 78.1598 147.066 77.9327 149.808 75.7672C153.541 72.8373 153.297 67.2545 153.297 67.1991C153.282 66.9053 153.385 66.6177 153.582 66.3996C153.78 66.1815 154.056 66.0507 154.349 66.036C154.643 66.0213 154.931 66.1239 155.149 66.3213C155.367 66.5186 155.498 66.7945 155.512 67.0883C155.512 67.3597 155.806 73.8841 151.176 77.5173C149.248 79.0349 146.789 79.7955 143.798 79.7992Z" fill="url(#paint16_linear_451_10428)"/>
<path d="M137.009 74.5703C137.645 74.8897 138.143 75.429 138.41 76.0879C138.654 77.0294 137.923 77.9322 137.17 78.547C136.522 79.124 135.726 79.5077 134.871 79.6547C133.62 79.8042 132.423 79.1285 131.382 78.4141C130.801 78.0596 130.306 77.5811 129.931 77.0128C128.967 75.318 130.213 73.1359 131.847 72.4158C133.658 71.6349 135.586 73.6343 137.009 74.5703Z" fill="#FF9000"/>
<path d="M137.009 74.5703C137.645 74.8897 138.143 75.429 138.41 76.0879C138.654 77.0294 137.923 77.9322 137.17 78.547C136.522 79.124 135.726 79.5077 134.871 79.6547C133.62 79.8042 132.423 79.1285 131.382 78.4141C130.801 78.0596 130.306 77.5811 129.931 77.0128C128.967 75.318 130.213 73.1359 131.847 72.4158C133.658 71.6349 135.586 73.6343 137.009 74.5703Z" fill="url(#paint17_linear_451_10428)"/>
<defs>
<linearGradient id="paint0_linear_451_10428" x1="121.245" y1="0" x2="121.245" y2="177.11" gradientUnits="userSpaceOnUse">
<stop stop-color="#008080"/>
<stop offset="1" stop-color="#DEDEDE" stop-opacity="0"/>
</linearGradient>
<linearGradient id="paint1_linear_451_10428" x1="147.72" y1="113.733" x2="109.782" y2="115.4" gradientUnits="userSpaceOnUse">
<stop offset="0.01"/>
<stop offset="1" stop-opacity="0"/>
</linearGradient>
<linearGradient id="paint2_linear_451_10428" x1="242.387" y1="229.427" x2="119.182" y2="115.61" gradientUnits="userSpaceOnUse">
<stop offset="0.01"/>
<stop offset="1" stop-opacity="0"/>
</linearGradient>
<linearGradient id="paint3_linear_451_10428" x1="113.39" y1="168.492" x2="114.326" y2="184.283" gradientUnits="userSpaceOnUse">
<stop offset="0.01"/>
<stop offset="1" stop-opacity="0"/>
</linearGradient>
<linearGradient id="paint4_linear_451_10428" x1="141.349" y1="69.3533" x2="138.114" y2="94.681" gradientUnits="userSpaceOnUse">
<stop offset="0.01"/>
<stop offset="1" stop-opacity="0"/>
</linearGradient>
<linearGradient id="paint5_linear_451_10428" x1="138.314" y1="92.6318" x2="150.04" y2="103.731" gradientUnits="userSpaceOnUse">
<stop offset="0.02" stop-color="white" stop-opacity="0"/>
<stop offset="0.58" stop-color="white" stop-opacity="0.39"/>
<stop offset="1" stop-color="white"/>
</linearGradient>
<linearGradient id="paint6_linear_451_10428" x1="133.773" y1="64.0026" x2="77.4901" y2="163.441" gradientUnits="userSpaceOnUse">
<stop offset="0.01"/>
<stop offset="1" stop-opacity="0"/>
</linearGradient>
<linearGradient id="paint7_linear_451_10428" x1="98.1717" y1="198.14" x2="63.7775" y2="102.457" gradientUnits="userSpaceOnUse">
<stop offset="0.01"/>
<stop offset="0.09" stop-opacity="0.82"/>
<stop offset="1" stop-opacity="0"/>
</linearGradient>
<linearGradient id="paint8_linear_451_10428" x1="134.563" y1="19.8884" x2="135.709" y2="31.8737" gradientUnits="userSpaceOnUse">
<stop offset="0.01"/>
<stop offset="1" stop-opacity="0"/>
</linearGradient>
<linearGradient id="paint9_linear_451_10428" x1="124.393" y1="47.9245" x2="118.605" y2="70.5991" gradientUnits="userSpaceOnUse">
<stop offset="0.01"/>
<stop offset="1" stop-opacity="0"/>
</linearGradient>
<linearGradient id="paint10_linear_451_10428" x1="148.11" y1="36.2049" x2="138.734" y2="43.7096" gradientUnits="userSpaceOnUse">
<stop offset="0.01"/>
<stop offset="1" stop-opacity="0"/>
</linearGradient>
<linearGradient id="paint11_linear_451_10428" x1="158.174" y1="59.6832" x2="150.226" y2="61.2728" gradientUnits="userSpaceOnUse">
<stop offset="0.01"/>
<stop offset="1" stop-opacity="0"/>
</linearGradient>
<linearGradient id="paint12_linear_451_10428" x1="159.272" y1="32.7324" x2="141.294" y2="40.5527" gradientUnits="userSpaceOnUse">
<stop offset="0.01"/>
<stop offset="1" stop-opacity="0"/>
</linearGradient>
<linearGradient id="paint13_linear_451_10428" x1="49.2679" y1="2.85759" x2="49.2679" y2="115.544" gradientUnits="userSpaceOnUse">
<stop stop-color="#008080"/>
<stop offset="1" stop-color="#FFD6A2" stop-opacity="0"/>
</linearGradient>
<linearGradient id="paint14_linear_451_10428" x1="32.3542" y1="37.2129" x2="29.0477" y2="103.315" gradientUnits="userSpaceOnUse">
<stop offset="0.02" stop-color="white" stop-opacity="0"/>
<stop offset="0.58" stop-color="white" stop-opacity="0.39"/>
<stop offset="0.68" stop-color="white" stop-opacity="0.68"/>
<stop offset="1" stop-color="white"/>
</linearGradient>
<linearGradient id="paint15_linear_451_10428" x1="120.534" y1="52.0239" x2="121.681" y2="35.6576" gradientUnits="userSpaceOnUse">
<stop offset="0.01"/>
<stop offset="1" stop-opacity="0"/>
</linearGradient>
<linearGradient id="paint16_linear_451_10428" x1="142.896" y1="66.7892" x2="148.6" y2="78.5143" gradientUnits="userSpaceOnUse">
<stop offset="0.02" stop-color="white" stop-opacity="0"/>
<stop offset="0.58" stop-color="white" stop-opacity="0.39"/>
<stop offset="0.68" stop-color="white" stop-opacity="0.68"/>
<stop offset="1" stop-color="white"/>
</linearGradient>
<linearGradient id="paint17_linear_451_10428" x1="136.815" y1="70.3167" x2="129.936" y2="84.1797" gradientUnits="userSpaceOnUse">
<stop offset="0.01"/>
<stop offset="1" stop-opacity="0"/>
</linearGradient>
</defs>
</svg>
