<svg width="191" height="188" viewBox="0 0 191 188" fill="none" xmlns="http://www.w3.org/2000/svg">
<path opacity="0.18" d="M190.854 128.211C190.799 129.834 190.702 131.458 190.54 133.114C189.392 145.102 185.176 157.074 176.089 164.787C165.297 173.939 149.991 175.287 135.848 174.767C121.706 174.248 107.201 172.332 93.6645 176.461C86.255 178.724 79.4734 182.718 72.0802 185.024C58.0081 189.408 42.1771 187.237 29.5447 179.676C16.9124 172.115 7.59236 159.396 3.67925 145.205C2.94779 142.536 2.38024 139.825 1.97978 137.087C-0.250094 122.095 1.93648 106.507 1.61716 91.2173C1.33572 77.627 -0.888747 63.5549 3.98234 50.8522C7.22973 42.3927 13.4106 35.4108 20.4845 29.8849C45.2351 10.5899 76.4046 0.19827 107.623 0.00342645C126.22 -0.115645 145.228 2.85031 161.546 11.7698C166.85 14.6654 171.889 18.2646 175.618 22.9841C178.394 26.513 180.375 30.6047 182.004 34.783C184.823 42.0374 186.643 49.6408 187.417 57.3849C188.413 67.4464 187.628 77.5999 188.028 87.6939C188.586 101.236 191.249 114.674 190.854 128.211Z" fill="url(#paint0_linear_451_10312)"/>
<path d="M190.544 133.114L190.479 133.753C189.521 142.878 186.771 151.954 181.418 159.099C179.867 161.184 178.082 163.085 176.098 164.765C165.306 173.918 150 175.265 135.858 174.746C121.715 174.226 107.21 172.31 93.6739 176.44C86.2644 178.702 79.4828 182.696 72.0896 185.002C58.0175 189.386 42.1865 187.216 29.5541 179.655C21.2439 174.607 14.3531 167.53 9.52854 159.088C7.00262 154.723 5.04378 150.054 3.69947 145.194C2.96801 142.525 2.40046 139.814 2 137.076L73.5888 135.566L190.544 133.114Z" fill="#FF9000"/>
<path d="M190.479 133.753C189.521 142.878 186.772 151.954 181.419 159.099H9.51292C6.98699 154.734 5.02816 150.065 3.68384 145.205C2.95238 142.536 2.38483 139.825 1.98438 137.087L73.5732 135.577L190.479 133.753Z" fill="url(#paint1_linear_451_10312)"/>
<path d="M45.4591 171.596C60.0849 171.596 71.9415 168.101 71.9415 163.791C71.9415 159.481 60.0849 155.986 45.4591 155.986C30.8332 155.986 18.9766 159.481 18.9766 163.791C18.9766 168.101 30.8332 171.596 45.4591 171.596Z" fill="url(#paint2_linear_451_10312)"/>
<path d="M50.7058 157.28L51.0251 160.598C51.0251 160.598 49.7532 162.525 48.0917 162.644C46.4301 162.763 45.8672 161.973 45.8672 161.973L46.1432 157.101" fill="#EACBC6"/>
<path d="M45.8672 161.973L45.9808 160.013L50.8519 158.704L51.2254 161.366C50.3142 162.058 49.2373 162.499 48.1025 162.644C46.4355 162.768 45.8672 161.973 45.8672 161.973Z" fill="white"/>
<path d="M35.1685 157.632L34.8438 161.042C34.8438 161.042 36.1481 163.017 37.853 163.142C39.5579 163.266 40.137 162.449 40.137 162.449L39.8556 157.437" fill="#EACBC6"/>
<path d="M40.137 162.449L40.0233 160.436L35.0278 159.088L34.8438 161.036C34.8438 161.036 36.1481 163.012 37.853 163.136C39.5579 163.261 40.137 162.449 40.137 162.449Z" fill="white"/>
<path d="M39.2489 83.0826C39.2489 83.0826 32.6676 86.2867 32.5106 87.315C32.3536 88.3433 33.2521 114.036 33.2521 114.036C33.2521 114.036 35.417 116.812 41.9497 116.812C48.6664 116.812 50.3983 114.891 50.696 113.992C50.9937 113.094 52.0653 87.5153 51.9138 86.4166C51.7622 85.3179 45.6842 83.0988 45.6842 83.0988L39.2489 83.0826Z" fill="#FF9000"/>
<path d="M49.1133 95.1737L47.7656 115.091L50.6991 113.992L51.1104 107.638L49.1133 95.1737Z" fill="url(#paint3_linear_451_10312)"/>
<path d="M43.1715 100.738C43.1715 100.738 35.4102 100.803 34.9177 100.31C34.4252 99.8175 32.5634 86.92 32.5092 87.3205C32.401 88.0728 32.834 100.397 33.0829 107.27C35.9062 106.362 38.6762 105.296 41.38 104.077C42.1235 103.76 42.7616 103.238 43.2202 102.572C43.6424 101.945 43.8859 101.203 43.1715 100.738Z" fill="url(#paint4_linear_451_10312)"/>
<path d="M40.3432 79.4455C40.0612 80.68 39.6997 81.8949 39.2608 83.0826C38.8278 84.2625 39.7154 86.7522 42.3891 86.7522C45.0628 86.7522 45.3713 83.678 45.3226 83.0826C45.2901 82.6551 44.5973 81.2424 44.4241 79.8785C44.2347 78.4118 40.4894 78.4226 40.3432 79.4455Z" fill="#EACBC6"/>
<path d="M40.9062 87.3204L42.0428 88.9116L41.231 110.393L43.3905 112.769L44.9005 109.852L43.1199 88.6464L43.5258 87.0823L42.3297 86.3408L40.9062 87.3204Z" fill="#3F3D56"/>
<path d="M43.9546 98.6971L44.2198 94.8869L50.3357 93.3768L48.3927 105.251L43.5703 105.825L43.9546 98.6971Z" fill="white"/>
<path d="M39.9688 81.1451C39.9688 81.1451 39.9688 85.2476 42.2311 84.885C44.4935 84.5223 44.8615 81.394 44.8615 81.394L39.9688 81.1451Z" fill="url(#paint5_linear_451_10312)"/>
<path d="M34.293 114.387C34.293 114.387 32.9778 118.89 33.7517 133.298C34.5257 147.706 34.8342 157.783 34.8342 157.783C34.8342 157.783 34.9316 158.958 37.4105 158.99C39.8893 159.023 40.5496 157.367 40.5496 157.367L42.9527 120.46L45.4857 158.146C45.4857 158.146 48.4624 159.862 50.7843 158.574C52.067 157.865 51.9534 131.582 51.3743 120C51.2989 118.11 50.8385 116.256 50.0212 114.55C50.0212 114.55 43.7483 118.717 34.293 114.387Z" fill="#3F3D56"/>
<path d="M51.9201 86.4165C51.9201 86.4165 54.9185 99.0002 55.1675 101.138C55.4165 103.276 52.1582 109.224 51.617 108.093C50.8593 106.615 50.1016 101.003 50.1016 101.003L51.9201 86.4165Z" fill="#FF9000"/>
<path d="M57.3283 100.667C57.3261 100.768 57.3523 100.868 57.404 100.955C57.4557 101.042 57.5307 101.113 57.6206 101.16C57.7276 101.187 57.839 101.192 57.9479 101.174C58.0568 101.156 58.1609 101.116 58.2538 101.057C59.7476 100.348 60.619 99.3141 61.734 98.1992C62.5945 97.4403 63.363 96.5829 64.0234 95.6446C64.5321 94.7949 64.1046 91.082 63.612 91.0225C63.1195 90.9629 63.1953 92.1536 63.2819 92.8951C63.3685 93.6366 62.5621 94.5188 62.3618 94.876C62.1615 95.2333 61.4796 94.5784 60.868 95.5959C60.4188 96.3482 60.4025 96.9057 59.7422 97.5227C58.9593 98.2432 58.2553 99.0452 57.6423 99.9149C57.4885 100.099 57.3826 100.319 57.3338 100.554C57.3293 100.591 57.3275 100.629 57.3283 100.667Z" fill="#EACBC6"/>
<path d="M52.3885 101.441C52.4913 101.268 59.6843 97.1113 59.6843 97.1113C59.6843 97.1113 60.6152 97.6796 61.308 99.4278C61.308 99.4278 52.6483 107.79 51.9339 108.163C51.2194 108.537 52.2316 106.81 51.0192 104.461C49.8068 102.112 52.3885 101.441 52.3885 101.441Z" fill="#FF9000"/>
<path d="M31.4007 163.488C30.7793 163.906 30.2625 164.462 29.8907 165.112C29.7141 165.442 29.6548 165.823 29.7227 166.192C29.7905 166.561 29.9814 166.895 30.2642 167.141C30.5155 167.298 30.7981 167.398 31.0922 167.434C32.3106 167.64 33.5612 167.539 34.7305 167.139C35.8997 166.739 36.9505 166.053 37.7873 165.144C37.9219 164.968 38.0891 164.819 38.2798 164.706C38.702 164.495 39.2324 164.706 39.687 164.543C40.3202 164.322 40.5151 163.531 40.6071 162.86C40.6991 162.189 40.7749 161.372 40.304 160.858C39.8169 161.664 38.7615 161.902 37.8198 161.94C37.2477 162.001 36.6693 161.944 36.1203 161.772C35.6115 161.588 35.2002 161.047 34.6157 161.123C34.0311 161.199 33.5332 161.789 33.1219 162.113L31.4007 163.488Z" fill="#3F3D56"/>
<path d="M54.7409 163.488C55.3624 163.906 55.8791 164.462 56.2509 165.112C56.4276 165.443 56.4868 165.823 56.419 166.192C56.3511 166.561 56.1602 166.895 55.8775 167.142C55.6262 167.298 55.3435 167.398 55.0494 167.434C53.8332 167.639 52.585 167.538 51.4178 167.139C50.2507 166.74 49.2014 166.056 48.3652 165.15C48.2306 164.973 48.0634 164.825 47.8726 164.711C47.4505 164.5 46.9201 164.711 46.4654 164.549C45.8322 164.327 45.6374 163.537 45.5453 162.866C45.4533 162.195 45.3776 161.377 45.8484 160.863C46.3355 161.67 47.391 161.908 48.3327 161.946C48.9047 162.007 49.4831 161.949 50.0322 161.778C50.5409 161.594 50.9523 161.053 51.5368 161.128C52.1213 161.204 52.6193 161.794 53.0306 162.119L54.7409 163.488Z" fill="#3F3D56"/>
<path d="M40.2796 99.4657C40.5069 99.3088 40.8208 99.2438 41.0806 99.0598C41.3404 98.8758 44.4958 96.7704 44.7393 97.3279C44.8476 97.5822 44.6149 97.8691 44.393 98.0315C44.1711 98.1938 43.9113 98.4212 43.96 98.7026L47.1641 97.1222C47.2169 97.0878 47.2799 97.0725 47.3427 97.0789C47.4509 97.0789 47.4942 97.225 47.5159 97.3387C47.6229 98.1377 47.4153 98.9469 46.9368 99.5956C46.1402 100.667 45.0356 101.469 43.7705 101.896C42.1468 102.437 40.6585 103.184 40.2471 101.945C40.0631 101.403 39.7438 100.51 39.9494 99.915C40.0051 99.732 40.1216 99.5735 40.2796 99.4657Z" fill="#EACBC6"/>
<path d="M33.753 86.119C32.8165 86.7622 32.0073 87.5733 31.3662 88.5112C30.3216 90.0537 28.5951 102.989 29.3907 106.496C29.7263 107.979 41.931 102.443 41.931 102.443C41.931 102.443 41.6496 99.9637 40.3561 99.1194C40.3561 99.1194 34.37 100.402 33.9208 99.9529C33.4716 99.5037 33.753 86.119 33.753 86.119Z" fill="#FF9000"/>
<path d="M37.9586 74.0926C37.9586 74.0926 37.8179 79.7052 39.9774 81.1287C42.1369 82.5521 42.9975 82.3518 44.5454 81.632C45.4817 81.1936 46.1691 77.7622 46.5642 75.1372C46.7581 73.9372 46.526 72.7072 45.9082 71.6604C45.2904 70.6135 44.3257 69.8158 43.1815 69.4056C42.3798 69.0996 41.4935 69.0996 40.6918 69.4056C39.7587 69.742 38.9736 70.3958 38.474 71.2527C37.9743 72.1096 37.7919 73.1149 37.9586 74.0926Z" fill="#EACBC6"/>
<path d="M46.5996 74.9208C46.7254 74.6393 46.8145 74.3428 46.8648 74.0386C46.9652 73.0217 46.8528 71.995 46.5347 71.024C46.4243 70.4552 46.2252 69.9073 45.9447 69.4003C45.6674 68.965 45.2737 68.6163 44.8082 68.3936C44.5592 68.3936 44.3319 68.1392 44.1479 67.9714C43.9544 67.828 43.7334 67.726 43.4987 67.672C43.264 67.618 43.0207 67.613 42.784 67.6575C42.3077 67.7116 41.8476 67.8632 41.3659 67.9065C40.5487 67.9822 39.6069 67.7657 38.9791 68.2961C38.6551 68.6653 38.392 69.0836 38.1997 69.5356C37.9778 69.909 37.6585 70.2175 37.4095 70.5693C37.1297 70.9083 36.9817 71.3369 36.9928 71.7763C37.085 72.1628 37.2136 72.5398 37.377 72.902C37.4683 73.5026 37.5243 74.108 37.5448 74.7152C37.6747 75.4133 38.0861 76.0466 38.0861 76.7502L38.2322 73.0373C38.2232 72.9345 38.2439 72.8312 38.2917 72.7397C38.4054 72.5556 38.6598 72.5448 38.8708 72.4907C39.3742 72.3608 39.7314 71.8953 40.2185 71.7113C40.5586 71.6093 40.9163 71.5798 41.2685 71.6247L43.9368 71.7546C44.0968 71.7517 44.2549 71.7889 44.3968 71.8629C44.4987 71.9442 44.5946 72.0329 44.6837 72.1281C44.9813 72.3716 45.4252 72.3229 45.7661 72.5178C46.2316 72.7884 46.3074 73.4162 46.3344 73.9574L46.4319 75.9654C46.4086 75.609 46.4659 75.252 46.5996 74.9208Z" fill="#3F3D56"/>
<path d="M39.4254 82.6442C39.4254 82.6442 40.7676 85.8591 42.3318 86.3462L39.6256 88.2134L38.7109 83.3424L39.4254 82.6442Z" fill="#008080"/>
<path d="M45.1191 82.4981L45.6603 83.0772L45.2273 88.0836L42.3047 86.3246C42.3047 86.3246 44.7402 84.6251 45.1191 82.4981Z" fill="#008080"/>
<path d="M39.4254 82.6442C39.4254 82.6442 40.7676 85.8591 42.3318 86.3462L39.6256 88.2134L38.7109 83.3424L39.4254 82.6442Z" fill="url(#paint6_linear_451_10312)"/>
<path d="M45.1191 82.4981L45.6603 83.0772L45.2273 88.0836L42.3047 86.3246C42.3047 86.3246 44.7402 84.6251 45.1191 82.4981Z" fill="url(#paint7_linear_451_10312)"/>
<path d="M105.672 119.069C106.376 125.634 104.049 139.138 96.7637 141.801C94.9722 142.456 93.0292 142.537 91.1187 142.596C83.6496 142.842 76.177 142.903 68.7008 142.78C65.7111 142.795 62.7245 142.588 59.7651 142.163C58.3254 141.925 56.837 141.563 55.7167 140.626C53.8278 139.035 53.5193 135.999 54.7911 133.877C56.063 131.756 58.6285 130.63 61.0965 130.711C60.0961 130.78 59.0958 130.574 58.2041 130.115C57.3125 129.656 56.5634 128.962 56.0382 128.108C55.5129 127.254 55.2315 126.272 55.2244 125.269C55.2174 124.266 55.4849 123.281 55.9981 122.419C57.7354 119.507 61.5944 118.847 64.9663 118.485C62.8447 115.941 61.2643 112.807 61.1777 109.495C61.0911 106.182 62.7473 102.713 65.7132 101.235C68.6792 99.7579 72.8467 100.824 74.2484 103.828C73.166 98.2046 74.6381 92.0237 78.5404 87.8292C82.0476 84.0405 89.1486 81.08 94.2361 83.3478C99.1072 85.5127 100.92 92.9059 101.997 97.528C103.66 104.627 104.887 111.821 105.672 119.069Z" fill="#008080"/>
<path d="M105.672 119.069C106.376 125.634 104.049 139.138 96.7637 141.801C94.9722 142.456 93.0292 142.537 91.1187 142.596C83.6496 142.842 76.177 142.903 68.7008 142.78C65.7111 142.795 62.7245 142.588 59.7651 142.163C58.3254 141.925 56.837 141.563 55.7167 140.626C53.8278 139.035 53.5193 135.999 54.7911 133.877C56.063 131.756 58.6285 130.63 61.0965 130.711C60.0961 130.78 59.0958 130.574 58.2041 130.115C57.3125 129.656 56.5634 128.962 56.0382 128.108C55.5129 127.254 55.2315 126.272 55.2244 125.269C55.2174 124.266 55.4849 123.281 55.9981 122.419C57.7354 119.507 61.5944 118.847 64.9663 118.485C62.8447 115.941 61.2643 112.807 61.1777 109.495C61.0911 106.182 62.7473 102.713 65.7132 101.235C68.6792 99.7579 72.8467 100.824 74.2484 103.828C73.166 98.2046 74.6381 92.0237 78.5404 87.8292C82.0476 84.0405 89.1486 81.08 94.2361 83.3478C99.1072 85.5127 100.92 92.9059 101.997 97.528C103.66 104.627 104.887 111.821 105.672 119.069Z" fill="url(#paint8_linear_451_10312)"/>
<path d="M148.484 46.1164H159.309V73.1726H148.484V46.1164Z" fill="#FF9000"/>
<path d="M148.484 46.1164H159.309V73.1726H148.484V46.1164Z" fill="url(#paint9_linear_451_10312)"/>
<path d="M160.256 42.279H147.521C146.828 42.279 146.266 42.8412 146.266 43.5347V46.2084C146.266 46.9019 146.828 47.464 147.521 47.464H160.256C160.95 47.464 161.512 46.9019 161.512 46.2084V43.5347C161.512 42.8412 160.95 42.279 160.256 42.279Z" fill="#FF9000"/>
<path d="M121.194 39.351L82.1875 78.179V89.1768V140.361H164.709V89.1768V81.8486L121.194 39.351Z" fill="#FF9000"/>
<path d="M121.194 39.351L82.1875 78.179V89.1768V140.361H164.709V89.1768V81.8486L121.194 39.351Z" fill="url(#paint10_linear_451_10312)"/>
<path opacity="0.2" d="M122.335 36.7043L82.2031 76.723V83.0933L122.335 45.0447L164.73 85.2366V81.2315C164.967 81.2329 165.198 81.1629 165.394 81.0305C165.591 80.8982 165.742 80.7097 165.829 80.4897C165.916 80.2697 165.935 80.0286 165.883 79.7978C165.831 79.5671 165.71 79.3574 165.537 79.1964L122.335 36.7043Z" fill="#FF9000"/>
<path d="M78.9844 140.361H167.93V146.899H78.9844V140.361Z" fill="#FF9000"/>
<path d="M92.625 99.0435H124.417V125.423H92.625V99.0435Z" fill="#FF9000"/>
<path d="M92.625 99.0435H124.417V125.423H92.625V99.0435Z" fill="url(#paint11_linear_451_10312)"/>
<path d="M135.234 97.8583H156.202V140.361H135.234V97.8583Z" fill="#FF9000"/>
<path d="M136.93 100.564H154.503V138.158H136.93V100.564Z" fill="#FF9000"/>
<path d="M136.93 100.564H154.503V138.158H136.93V100.564Z" fill="url(#paint12_linear_451_10312)"/>
<path d="M156.822 95.4929H134.751C134.245 95.4929 133.836 95.9024 133.836 96.4076V98.1287C133.836 98.6339 134.245 99.0434 134.751 99.0434H156.822C157.327 99.0434 157.737 98.6339 157.737 98.1287V96.4076C157.737 95.9024 157.327 95.4929 156.822 95.4929Z" fill="#FF9000"/>
<path d="M120.466 36.6611L77.454 78.4929C77.0846 78.8695 76.8333 79.3458 76.731 79.8633C76.6288 80.3808 76.68 80.9169 76.8784 81.4057C77.0768 81.8945 77.4137 82.3147 77.8477 82.6145C78.2817 82.9143 78.7939 83.0808 79.3213 83.0934C80.0108 83.0942 80.674 82.8285 81.1723 82.3519L120.487 44.9419C120.985 44.4675 121.646 44.2028 122.333 44.2028C123.02 44.2028 123.681 44.4675 124.179 44.9419L163.494 82.3519C163.99 82.8277 164.652 83.0933 165.339 83.0934C165.867 83.0808 166.379 82.9143 166.813 82.6145C167.247 82.3147 167.584 81.8945 167.782 81.4057C167.981 80.9169 168.032 80.3808 167.93 79.8633C167.827 79.3458 167.576 78.8695 167.207 78.4929L124.2 36.6611C123.701 36.1738 123.031 35.901 122.333 35.901C121.635 35.901 120.965 36.1738 120.466 36.6611Z" fill="#FF9000"/>
<path d="M91.7109 97.8583H125.332V99.0436H91.7109V97.8583Z" fill="#FF9000"/>
<path d="M100.375 99.0435H101.447V123.226H100.375V99.0435Z" fill="#FF9000"/>
<path d="M107.984 99.0435H109.056V123.226H107.984V99.0435Z" fill="#FF9000"/>
<path d="M115.594 99.0435H116.665V123.226H115.594V99.0435Z" fill="#FF9000"/>
<path d="M92.625 111.784H124.417V112.688H92.625V111.784Z" fill="#FF9000"/>
<path d="M123.445 123.632C123.96 123.363 124.395 122.965 124.709 122.478C125.023 121.99 125.205 121.429 125.237 120.85C125.237 120.308 125.048 119.691 124.533 119.616C124.315 119.606 124.097 119.656 123.906 119.762C123.321 120.039 122.8 120.433 122.374 120.92C122.531 120.394 122.595 119.844 122.563 119.296C122.565 118.993 122.471 118.697 122.294 118.45C122.117 118.204 121.866 118.02 121.578 117.925C121.29 117.83 120.979 117.829 120.691 117.922C120.402 118.014 120.15 118.196 119.971 118.441C119.559 118.936 119.266 119.52 119.116 120.146C118.776 119.239 118.187 118.447 117.416 117.862C117.287 117.755 117.135 117.679 116.972 117.64C116.783 117.63 116.595 117.675 116.431 117.77C115.953 118.015 115.548 118.381 115.256 118.831C114.963 119.281 114.794 119.8 114.764 120.336C114.712 120.142 114.602 119.97 114.449 119.84C114.296 119.711 114.108 119.631 113.909 119.61C113.811 119.608 113.714 119.628 113.624 119.669C113.535 119.71 113.456 119.77 113.393 119.845C113.33 119.921 113.285 120.009 113.261 120.104C113.237 120.2 113.235 120.299 113.254 120.395C112.878 120.003 112.403 119.719 111.879 119.572C111.356 119.425 110.803 119.422 110.277 119.562C109.759 119.725 109.316 120.066 109.025 120.524C108.734 120.983 108.614 121.529 108.686 122.067C108.558 122.015 108.42 121.992 108.281 121.999C108.143 122.006 108.008 122.042 107.885 122.107C107.762 122.171 107.655 122.262 107.571 122.372C107.487 122.482 107.428 122.609 107.398 122.744C107.355 123.023 107.373 123.307 107.45 123.578C107.528 123.849 107.663 124.1 107.847 124.314" fill="#FF9000"/>
<path d="M92.885 123.578L91.6619 122.549C91.3936 122.37 91.2009 122.098 91.1206 121.786C91.0665 121.245 91.6619 120.893 92.2031 120.98C92.7069 121.12 93.1549 121.413 93.4858 121.819C93.3343 120.693 93.2531 119.378 94.0812 118.571C94.4124 118.298 94.8155 118.127 95.2419 118.078C95.6683 118.029 96.0997 118.104 96.4842 118.295C97.2475 118.696 97.8467 119.351 98.1783 120.146C98.5517 118.961 99.2789 117.919 100.262 117.159C100.33 117.08 100.415 117.019 100.51 116.977C100.605 116.936 100.709 116.917 100.812 116.92C100.916 116.924 101.018 116.95 101.11 116.998C101.202 117.046 101.282 117.114 101.344 117.196C101.756 117.589 102.08 118.062 102.299 118.587C102.517 119.111 102.623 119.676 102.611 120.244C102.765 119.889 102.956 119.552 103.179 119.237C103.234 119.138 103.322 119.061 103.428 119.02C103.596 118.972 103.753 119.102 103.877 119.221C104.202 119.54 104.527 119.962 104.419 120.401C104.598 119.681 104.972 119.026 105.501 118.506C106.042 118.035 107.049 117.992 107.455 118.604C107.639 118.933 107.708 119.314 107.65 119.686C107.576 120.479 107.321 121.244 106.903 121.921C106.903 121.656 107.303 121.553 107.515 121.71C107.61 121.8 107.682 121.913 107.723 122.038C107.763 122.163 107.772 122.296 107.747 122.425C107.747 122.685 107.628 122.939 107.617 123.204" fill="#FF9000"/>
<path d="M123.445 123.632C123.96 123.363 124.395 122.965 124.709 122.478C125.023 121.99 125.205 121.429 125.237 120.85C125.237 120.308 125.048 119.691 124.533 119.616C124.315 119.606 124.097 119.656 123.906 119.762C123.321 120.039 122.8 120.433 122.374 120.92C122.531 120.394 122.595 119.844 122.563 119.296C122.565 118.993 122.471 118.697 122.294 118.45C122.117 118.204 121.866 118.02 121.578 117.925C121.29 117.83 120.979 117.829 120.691 117.922C120.402 118.014 120.15 118.196 119.971 118.441C119.559 118.936 119.266 119.52 119.116 120.146C118.776 119.239 118.187 118.447 117.416 117.862C117.287 117.755 117.135 117.679 116.972 117.64C116.783 117.63 116.595 117.675 116.431 117.77C115.953 118.015 115.548 118.381 115.256 118.831C114.963 119.281 114.794 119.8 114.764 120.336C114.712 120.142 114.602 119.97 114.449 119.84C114.296 119.711 114.108 119.631 113.909 119.61C113.811 119.608 113.714 119.628 113.624 119.669C113.535 119.71 113.456 119.77 113.393 119.845C113.33 119.921 113.285 120.009 113.261 120.104C113.237 120.2 113.235 120.299 113.254 120.395C112.878 120.003 112.403 119.719 111.879 119.572C111.356 119.425 110.803 119.422 110.277 119.562C109.759 119.725 109.316 120.066 109.025 120.524C108.734 120.983 108.614 121.529 108.686 122.067C108.558 122.015 108.42 121.992 108.281 121.999C108.143 122.006 108.008 122.042 107.885 122.107C107.762 122.171 107.655 122.262 107.571 122.372C107.487 122.482 107.428 122.609 107.398 122.744C107.355 123.023 107.373 123.307 107.45 123.578C107.528 123.849 107.663 124.1 107.847 124.314" fill="url(#paint13_linear_451_10312)"/>
<path d="M124.321 123.226H92.7291C91.6231 123.226 90.7266 124.122 90.7266 125.228V128.665C90.7266 129.771 91.6231 130.668 92.7291 130.668H124.321C125.427 130.668 126.323 129.771 126.323 128.665V125.228C126.323 124.122 125.427 123.226 124.321 123.226Z" fill="#FF9000"/>
<path d="M92.885 123.578L91.6619 122.549C91.3936 122.37 91.2009 122.098 91.1206 121.786C91.0665 121.245 91.6619 120.893 92.2031 120.98C92.7069 121.12 93.1549 121.413 93.4858 121.819C93.3343 120.693 93.2531 119.378 94.0812 118.571C94.4124 118.298 94.8155 118.127 95.2419 118.078C95.6683 118.029 96.0997 118.104 96.4842 118.295C97.2475 118.696 97.8467 119.351 98.1783 120.146C98.5517 118.961 99.2789 117.919 100.262 117.159C100.33 117.08 100.415 117.019 100.51 116.977C100.605 116.936 100.709 116.917 100.812 116.92C100.916 116.924 101.018 116.95 101.11 116.998C101.202 117.046 101.282 117.114 101.344 117.196C101.756 117.589 102.08 118.062 102.299 118.587C102.517 119.111 102.623 119.676 102.611 120.244C102.765 119.889 102.956 119.552 103.179 119.237C103.234 119.138 103.322 119.061 103.428 119.02C103.596 118.972 103.753 119.102 103.877 119.221C104.202 119.54 104.527 119.962 104.419 120.401C104.598 119.681 104.972 119.026 105.501 118.506C106.042 118.035 107.049 117.992 107.455 118.604C107.639 118.933 107.708 119.314 107.65 119.686C107.576 120.479 107.321 121.244 106.903 121.921C106.903 121.656 107.303 121.553 107.515 121.71C107.61 121.8 107.682 121.913 107.723 122.038C107.763 122.163 107.772 122.296 107.747 122.425C107.747 122.685 107.628 122.939 107.617 123.204" fill="url(#paint14_linear_451_10312)"/>
<path d="M99.0938 127.28H103.694V159.553H99.0938V127.28Z" fill="#FF9000"/>
<path d="M99.0938 127.28H103.694V159.553H99.0938V127.28Z" fill="url(#paint15_linear_451_10312)"/>
<path d="M86.3281 128.952H114.705V144.561H86.3281V128.952Z" fill="#FF9000"/>
<path d="M86.2031 128.952H114.58V144.561H86.2031V128.952Z" fill="url(#paint16_linear_451_10312)"/>
<path d="M91.2377 135.241C91.112 135.07 90.9492 134.929 90.7614 134.83C90.5472 134.72 90.3091 134.666 90.0686 134.673C89.9237 134.674 89.7797 134.696 89.6411 134.738C89.5008 134.78 89.3689 134.845 89.2514 134.933C89.1337 135.024 89.0361 135.138 88.9645 135.268C88.8895 135.414 88.8522 135.576 88.8563 135.739C88.8519 135.895 88.8873 136.05 88.9591 136.188C89.0289 136.306 89.123 136.407 89.2351 136.486C89.356 136.574 89.4891 136.643 89.6302 136.692L90.0849 136.854C90.2851 136.914 90.48 136.984 90.6802 137.06C90.8731 137.132 91.0552 137.23 91.2215 137.352C91.3844 137.474 91.5177 137.631 91.6111 137.812C91.7204 138.028 91.7726 138.268 91.7627 138.51C91.7692 138.763 91.7134 139.014 91.6003 139.241C91.5012 139.439 91.3588 139.613 91.1836 139.75C91.0072 139.885 90.8071 139.986 90.5936 140.047C90.3757 140.111 90.1497 140.144 89.9225 140.145C89.7406 140.147 89.559 140.129 89.3813 140.091C89.2134 140.057 89.05 140.005 88.8942 139.934C88.738 139.866 88.5922 139.777 88.4612 139.668C88.3266 139.564 88.2081 139.44 88.1094 139.3L88.6073 138.932C88.742 139.145 88.9282 139.32 89.1485 139.441C89.3831 139.583 89.6537 139.655 89.9279 139.647C90.0781 139.646 90.2275 139.624 90.3717 139.582C90.5178 139.535 90.655 139.463 90.7777 139.371C90.8984 139.277 90.998 139.159 91.0699 139.024C91.1528 138.88 91.194 138.715 91.189 138.548C91.1953 138.376 91.1541 138.206 91.0699 138.056C90.9935 137.925 90.888 137.814 90.7614 137.731C90.627 137.636 90.4793 137.561 90.323 137.509L89.7818 137.33C89.5975 137.274 89.4168 137.208 89.2405 137.13C89.0608 137.062 88.8942 136.963 88.748 136.838C88.6026 136.716 88.4846 136.565 88.4016 136.394C88.3094 136.179 88.2646 135.947 88.2702 135.714C88.2758 135.48 88.3317 135.251 88.4341 135.041C88.5405 134.85 88.6863 134.684 88.8617 134.554C89.0381 134.426 89.2361 134.33 89.4462 134.272C89.6524 134.215 89.8654 134.186 90.0795 134.186C90.4194 134.176 90.7569 134.246 91.0645 134.391C91.304 134.503 91.515 134.668 91.6815 134.873L91.2377 135.241Z" fill="white"/>
<path d="M94.8364 139.999H94.2031L96.6549 134.332H97.1961L99.6317 139.999H98.993L98.3652 138.51H95.4534L94.8364 139.999ZM95.6699 137.98H98.1595L96.9147 134.998L95.6699 137.98Z" fill="white"/>
<path d="M102.915 139.484H105.556V139.999H102.336V134.332H102.915V139.484Z" fill="white"/>
<path d="M108.806 139.484H111.842V139.999H108.227V134.332H111.745V134.841H108.806V136.789H111.55V137.303H108.806V139.484Z" fill="white"/>
<defs>
<linearGradient id="paint0_linear_451_10312" x1="95.8803" y1="0" x2="95.8803" y2="187.268" gradientUnits="userSpaceOnUse">
<stop stop-color="#008080"/>
<stop offset="1" stop-color="white" stop-opacity="0"/>
</linearGradient>
<linearGradient id="paint1_linear_451_10312" x1="96.6513" y1="93.0737" x2="95.5905" y2="200.189" gradientUnits="userSpaceOnUse">
<stop offset="0.01"/>
<stop offset="0.12" stop-opacity="0.75"/>
<stop offset="1" stop-opacity="0"/>
</linearGradient>
<linearGradient id="paint2_linear_451_10312" x1="45.7621" y1="133.114" x2="45.1506" y2="194.739" gradientUnits="userSpaceOnUse">
<stop offset="0.01"/>
<stop offset="0.12" stop-opacity="0.75"/>
<stop offset="1" stop-opacity="0"/>
</linearGradient>
<linearGradient id="paint3_linear_451_10312" x1="57.0153" y1="103.779" x2="42.6618" y2="106.042" gradientUnits="userSpaceOnUse">
<stop offset="0.01"/>
<stop offset="0.12" stop-opacity="0.75"/>
<stop offset="1" stop-opacity="0"/>
</linearGradient>
<linearGradient id="paint4_linear_451_10312" x1="23.5897" y1="99.4982" x2="44.2377" y2="94.5351" gradientUnits="userSpaceOnUse">
<stop offset="0.01"/>
<stop offset="0.12" stop-opacity="0.75"/>
<stop offset="1" stop-opacity="0"/>
</linearGradient>
<linearGradient id="paint5_linear_451_10312" x1="43.0375" y1="74.3742" x2="41.4571" y2="91.7857" gradientUnits="userSpaceOnUse">
<stop offset="0.01"/>
<stop offset="0.12" stop-opacity="0.75"/>
<stop offset="1" stop-opacity="0"/>
</linearGradient>
<linearGradient id="paint6_linear_451_10312" x1="40.5674" y1="76.4471" x2="40.4212" y2="99.904" gradientUnits="userSpaceOnUse">
<stop offset="0.01"/>
<stop offset="0.12" stop-opacity="0.75"/>
<stop offset="1" stop-opacity="0"/>
</linearGradient>
<linearGradient id="paint7_linear_451_10312" x1="44.0583" y1="76.4687" x2="43.9176" y2="99.9257" gradientUnits="userSpaceOnUse">
<stop offset="0.01"/>
<stop offset="0.12" stop-opacity="0.75"/>
<stop offset="1" stop-opacity="0"/>
</linearGradient>
<linearGradient id="paint8_linear_451_10312" x1="114.462" y1="142.656" x2="44.9407" y2="88.392" gradientUnits="userSpaceOnUse">
<stop offset="0.01"/>
<stop offset="0.12" stop-opacity="0.75"/>
<stop offset="1" stop-opacity="0"/>
</linearGradient>
<linearGradient id="paint9_linear_451_10312" x1="153.821" y1="39.7948" x2="153.978" y2="83.1475" gradientUnits="userSpaceOnUse">
<stop offset="0.01"/>
<stop offset="0.12" stop-opacity="0.75"/>
<stop offset="1" stop-opacity="0"/>
</linearGradient>
<linearGradient id="paint10_linear_451_10312" x1="131.039" y1="172.716" x2="106.451" y2="-26.8579" gradientUnits="userSpaceOnUse">
<stop offset="0.01"/>
<stop offset="0.12" stop-opacity="0.75"/>
<stop offset="1" stop-opacity="0"/>
</linearGradient>
<linearGradient id="paint11_linear_451_10312" x1="109.603" y1="90.8059" x2="108.656" y2="109.565" gradientUnits="userSpaceOnUse">
<stop offset="0.02" stop-color="white" stop-opacity="0"/>
<stop offset="0.58" stop-color="white" stop-opacity="0.39"/>
<stop offset="1" stop-color="white"/>
</linearGradient>
<linearGradient id="paint12_linear_451_10312" x1="147.619" y1="151.505" x2="145.882" y2="122.187" gradientUnits="userSpaceOnUse">
<stop offset="0.02" stop-color="white" stop-opacity="0"/>
<stop offset="0.58" stop-color="white" stop-opacity="0.39"/>
<stop offset="1" stop-color="white"/>
</linearGradient>
<linearGradient id="paint13_linear_451_10312" x1="117.546" y1="115.475" x2="114.396" y2="131.712" gradientUnits="userSpaceOnUse">
<stop offset="0.01"/>
<stop offset="0.12" stop-opacity="0.75"/>
<stop offset="1" stop-opacity="0"/>
</linearGradient>
<linearGradient id="paint14_linear_451_10312" x1="101.317" y1="112.32" x2="98.1621" y2="128.557" gradientUnits="userSpaceOnUse">
<stop offset="0.01"/>
<stop offset="0.12" stop-opacity="0.75"/>
<stop offset="1" stop-opacity="0"/>
</linearGradient>
<linearGradient id="paint15_linear_451_10312" x1="92.35" y1="143.04" x2="122.935" y2="144.301" gradientUnits="userSpaceOnUse">
<stop offset="0.01"/>
<stop offset="0.12" stop-opacity="0.75"/>
<stop offset="1" stop-opacity="0"/>
</linearGradient>
<linearGradient id="paint16_linear_451_10312" x1="97.8126" y1="120.709" x2="104.199" y2="160.435" gradientUnits="userSpaceOnUse">
<stop offset="0.01"/>
<stop offset="0.12" stop-opacity="0.75"/>
<stop offset="1" stop-opacity="0"/>
</linearGradient>
</defs>
</svg>
