<svg width="212" height="180" viewBox="0 0 212 180" fill="none" xmlns="http://www.w3.org/2000/svg">
<path opacity="0.18" d="M16.4846 144.677C16.4846 144.677 -3.57694 134.715 0.562606 108.998C4.70215 83.2815 45.3062 60.8572 61.2465 44.039C77.1869 27.2208 93.7024 -1.69062 136.407 0.0774785C179.111 1.84557 178.536 30.5161 198.567 40.9662C218.598 51.4162 199.745 87.7292 201.513 96.4233C203.282 105.117 225.888 131.389 198.676 149.533C171.465 167.678 16.4846 144.677 16.4846 144.677Z" fill="url(#paint0_linear_451_10384)"/>
<path d="M28.0625 169.044V175.443C28.0625 175.443 28.8764 179.448 36.3394 179.228C43.8025 179.008 201.591 179.228 201.591 179.228C201.591 179.228 205.63 178.57 206.436 175.279V169.044H28.0625Z" fill="#FF9000"/>
<path d="M28.0625 169.044V175.443C28.0625 175.443 28.8764 179.448 36.3394 179.228C43.8025 179.008 201.591 179.228 201.591 179.228C201.591 179.228 205.63 178.57 206.436 175.279V169.044H28.0625Z" fill="url(#paint1_linear_451_10384)"/>
<path d="M183.759 137.109H48.5052C45.3009 137.109 42.7031 134.514 42.7031 131.56V48.8166C42.7031 45.3615 45.3009 42.7638 48.5052 42.7638H183.759C185.296 42.7665 186.769 43.3789 187.855 44.4667C188.941 45.5545 189.551 47.0288 189.551 48.5658V131.309C189.551 132.846 188.941 134.32 187.855 135.408C186.769 136.495 185.296 137.107 183.759 137.109Z" fill="#FF9000"/>
<path d="M180.693 46.1751H51.5174C48.5349 46.1751 46.1172 48.5929 46.1172 51.5753V126.577C46.1172 129.559 48.5349 131.977 51.5174 131.977H180.693C183.675 131.977 186.093 129.559 186.093 126.577V51.5753C186.093 48.5929 183.675 46.1751 180.693 46.1751Z" fill="#FF9000"/>
<path d="M181.232 46.1751H52.0565C49.074 46.1751 46.6562 48.5929 46.6562 51.5753V126.577C46.6562 129.559 49.074 131.977 52.0565 131.977H181.232C184.214 131.977 186.632 129.559 186.632 126.577V51.5753C186.632 48.5929 184.214 46.1751 181.232 46.1751Z" fill="url(#paint2_linear_451_10384)"/>
<path d="M102.571 83.0561C102.571 83.0561 100.864 80.9293 99.4714 82.685C98.0792 84.4407 100.15 88.6073 103.433 88.6815C106.717 88.7557 102.571 83.0561 102.571 83.0561Z" fill="url(#paint3_linear_451_10384)"/>
<path d="M55.1094 53.0965H93.5149V83.4913H55.1094V53.0965Z" fill="url(#paint4_linear_451_10384)"/>
<path d="M80.6528 62.7262C80.6886 62.9011 80.6807 63.0822 80.6298 63.2534C80.5628 63.5662 80.4234 63.859 80.2228 64.1082C80.1209 64.2312 79.994 64.3313 79.8507 64.4019C79.7074 64.4725 79.5507 64.5119 79.391 64.5177C79.369 64.5203 79.3466 64.5177 79.3258 64.5101C79.3049 64.5026 79.2861 64.4903 79.2707 64.4742C79.254 64.4492 79.2451 64.4198 79.2452 64.3898C79.2247 63.9137 79.2016 63.192 79.5011 62.7927C79.7775 62.4498 80.489 62.1273 80.6528 62.7262Z" fill="url(#paint5_linear_451_10384)"/>
<path d="M68.4942 62.7019C68.3762 62.7718 68.279 62.872 68.2129 62.9922C68.1467 63.1124 68.1139 63.2481 68.118 63.3852C68.1075 63.6707 68.1982 63.9508 68.3739 64.176C68.5304 64.3561 68.7154 64.5091 68.9216 64.629C69.1653 64.815 69.456 64.9294 69.7611 64.9592C69.8034 64.9638 69.8462 64.9586 69.8862 64.9439C69.9261 64.9293 69.9621 64.9056 69.9914 64.8747C70.0267 64.8219 70.0438 64.759 70.0401 64.6956C70.0708 63.9585 69.692 62.1209 68.4942 62.7019Z" fill="url(#paint6_linear_451_10384)"/>
<path d="M69.583 63.9909C69.4858 64.006 69.3865 63.9936 69.296 63.9551C69.2056 63.9167 69.1277 63.8538 69.0711 63.7734C68.8817 63.5021 68.8152 63.1719 68.5592 63.3178C68.3033 63.4637 68.4696 64.0191 68.6872 64.3237C68.9047 64.6282 69.6239 64.8586 69.7468 64.6512C69.8696 64.4439 69.583 63.9909 69.583 63.9909Z" fill="url(#paint7_linear_451_10384)"/>
<path d="M79.2741 63.658C79.3694 63.6724 79.4667 63.6596 79.555 63.6211C79.6433 63.5826 79.7189 63.52 79.7732 63.4404C79.9652 63.1692 80.0291 62.839 80.2851 62.9874C80.541 63.1359 80.3772 63.6861 80.1571 63.9907C79.937 64.2953 79.2229 64.5282 79.1001 64.3183C78.9772 64.1084 79.2741 63.658 79.2741 63.658Z" fill="url(#paint8_linear_451_10384)"/>
<path d="M80.2344 131.978H80.7002C80.4314 132.5 80.2344 131.978 80.2344 131.978Z" stroke="#6C62FF" stroke-width="0.0873067" stroke-miterlimit="10"/>
<path d="M125.99 102.269C125.99 102.269 125.496 104.828 128.49 107.011C127.764 108.063 125.803 110.082 122.466 111.011C120.983 111.414 119.443 111.568 117.91 111.467C115.289 111.319 112.981 110.2 111.136 108.882L110.846 108.67C109.417 107.592 108.127 106.34 107.007 104.943C109.213 103.546 111.059 101.695 109.121 100.057C109.11 100.046 109.097 100.035 109.083 100.027C109.064 100.009 109.045 99.9929 109.024 99.9781L108.988 99.9474C101.617 94.2477 102.198 74.6098 102.198 74.6098C109.672 46.2011 128.066 59.0183 132.033 60.5334C136 62.0486 138.83 71.4363 137.041 81.8323C134.96 93.8638 125.99 102.269 125.99 102.269Z" fill="url(#paint9_linear_451_10384)"/>
<path d="M158.763 131.978H80.7031C80.9591 131.491 81.2713 130.094 81.5528 126.503C82.8043 110.484 102.65 107.132 102.65 107.132C103.636 106.737 104.6 106.29 105.539 105.793L108.595 109.376C109.455 110.382 111.717 111.147 111.717 111.147C123.398 116.849 128.499 110.054 129.799 107.807C134.199 110.08 145.347 113.576 151.477 118.211C158.208 123.291 158.763 131.978 158.763 131.978Z" fill="#008080"/>
<path d="M156.219 131.977L159.031 105.821H171.199L172.35 132.21L156.219 131.977Z" fill="#008080"/>
<path d="M156.795 125.754L156.071 132.503H80.5469C80.8028 132.016 81.1151 130.619 81.3966 127.028C82.6609 111.009 102.506 107.656 102.506 107.656C103.492 107.262 104.457 106.815 105.396 106.318L108.451 109.901C109.311 110.907 111.574 111.672 111.574 111.672C123.255 117.374 128.355 110.579 129.656 108.332C134.055 110.605 145.204 114.101 151.333 118.736C153.717 120.577 155.596 122.991 156.795 125.754Z" fill="url(#paint10_linear_451_10384)"/>
<path d="M172.924 132.184L155.68 131.956L156.454 125.341L158.684 106.318H171.693L172.924 132.184Z" fill="url(#paint11_linear_451_10384)"/>
<path d="M178.99 85.6832C178.793 86.2335 177.641 88.1018 176.597 89.9343C175.694 91.5236 174.877 93.0823 174.842 93.7298C174.767 95.117 172.927 101.216 170.892 103.074C169.638 104.221 170.212 105.818 170.212 105.818L167.609 105.902L159.675 106.158C159.675 106.158 160.32 104.94 159.393 104.446C158.467 103.952 150.18 93.8552 150.18 93.8552C150.18 93.8552 150.781 90.894 154.346 92.8698C157.911 94.8457 158.503 96.435 159.388 96.2687C160.274 96.1023 160.353 82.4917 160.353 82.4917C160.353 82.4917 160.54 76.2699 162.191 75.1285C163.841 73.987 163.55 79.2541 163.55 79.2541L164.64 86.3947C164.64 86.3947 167.315 75.0542 168.121 74.5424C168.927 74.0305 170.514 74.4656 170.12 76.6487C170.027 77.1606 169.493 82.8039 169.493 82.8039L169.052 86.5047C169.052 86.5047 173.245 77.4165 174.01 77.1222C174.775 76.8279 175.983 77.1913 175.617 78.7294C175.251 80.2676 173.408 88.1709 173.352 88.4191C173.506 88.2374 177.099 83.9147 177.959 83.4873C178.819 83.0599 179.356 84.6595 178.99 85.6832Z" fill="url(#paint12_linear_451_10384)"/>
<path d="M130.154 107.131C130.154 107.131 128.737 113.552 121.268 113.939C109.636 114.543 105.07 105.224 105.07 105.224L106.455 104.228C106.455 104.228 106.642 104.502 106.998 104.945C108.418 106.714 112.513 111.162 117.908 111.482C124.076 111.835 127.475 108.487 128.488 107.023C128.572 106.905 128.648 106.782 128.719 106.655L130.154 107.131Z" fill="white"/>
<path d="M59.7659 83.489C59.7659 83.489 59.2719 75.4066 66.0209 71.9719C72.7699 68.5373 88.7198 71.4857 87.9033 83.489H59.7659Z" fill="#FF9000"/>
<path d="M71.5258 66.2991V68.6819C71.5261 69.2225 71.3346 69.7457 70.9855 70.1585C70.6364 70.5713 70.1523 70.847 69.6191 70.9366L67.9453 71.2156C67.9453 71.2156 70.3562 76.4674 75.4032 75.0777C80.4503 73.6879 80.6729 72.288 80.6729 72.288L79.4726 71.8708C78.9727 71.6966 78.5391 71.3718 78.2315 70.9409C77.924 70.51 77.7576 69.9944 77.7553 69.465L77.7425 66.2991H71.5258Z" fill="url(#paint13_linear_451_10384)"/>
<path d="M69.2613 61.1771C69.2613 61.1771 69.0899 64.6143 71.1348 67.4066C73.3512 70.4343 76.4224 70.9897 78.475 67.4066C79.0688 66.3828 80.1642 60.8854 79.7214 58.9838C79.2786 57.0822 71.964 51.6666 69.2613 61.1771Z" fill="url(#paint14_linear_451_10384)"/>
<path d="M68.2911 58.4694C68.4456 58.3754 68.5846 58.2579 68.7031 58.1213C68.8061 57.9188 68.8546 57.693 68.8439 57.4661C68.9591 55.9305 70.3155 54.7558 71.7436 54.1774C74.303 53.1357 77.4791 53.5785 79.5292 55.4571C80.2714 56.1327 80.9163 56.9927 81.8787 57.2819C82.076 57.3118 82.2626 57.391 82.4212 57.5122C82.7309 57.8142 82.5006 58.3517 82.1781 58.6434C82.0998 58.703 82.0367 58.7801 81.9938 58.8687C81.8991 59.1246 82.2344 59.3396 82.5057 59.4266C82.2609 59.759 81.9531 60.0399 81.5997 60.2533C81.7788 60.2712 81.8377 60.5297 81.7456 60.6832C81.6337 60.8244 81.4933 60.9404 81.3335 61.0236C80.8856 61.341 80.6604 61.8759 80.3738 62.3443C80.0871 62.8126 79.6367 63.2682 79.0941 63.2349C79.4231 61.9853 79.2819 60.6584 78.6974 59.5059C76.1995 60.179 73.5787 59.3754 71.0782 58.6921C70.8935 58.6174 70.687 58.6174 70.5024 58.6921C70.1824 58.8763 70.2848 59.3549 70.4307 59.6928C70.1159 59.6928 69.9598 60.0741 69.8958 60.3838C69.8034 60.8468 69.7503 61.3169 69.7371 61.7889C69.7371 62.0704 69.9419 63.0046 69.8113 63.2042C69.5554 63.5958 69.1817 62.9739 68.9565 62.6744C68.2348 61.7044 67.0498 59.4701 68.2911 58.4694Z" fill="#3F3D56"/>
<path d="M48.506 137.108L28.6557 166.935C28.3053 167.462 28.1043 168.074 28.0743 168.706C28.0442 169.338 28.1862 169.967 28.4851 170.525C28.7839 171.083 29.2285 171.549 29.7715 171.874C30.3144 172.199 30.9354 172.371 31.5683 172.371H202.934C203.582 172.372 204.218 172.192 204.77 171.853C205.322 171.513 205.769 171.027 206.061 170.449C206.353 169.87 206.478 169.222 206.423 168.576C206.368 167.93 206.135 167.313 205.75 166.792L183.765 137.103L48.506 137.108Z" fill="#FF9000"/>
<path d="M48.506 137.108L28.6557 166.935C28.3053 167.462 28.1043 168.074 28.0743 168.706C28.0442 169.338 28.1862 169.967 28.4851 170.525C28.7839 171.083 29.2285 171.549 29.7715 171.874C30.3144 172.199 30.9354 172.371 31.5683 172.371H202.934C203.582 172.372 204.218 172.192 204.77 171.853C205.322 171.513 205.769 171.027 206.061 170.449C206.353 169.87 206.478 169.222 206.423 168.576C206.368 167.93 206.135 167.313 205.75 166.792L183.765 137.103L48.506 137.108Z" fill="url(#paint15_linear_451_10384)"/>
<path d="M180.242 142.461H51.2891L52.4638 140.111H178.481L180.242 142.461Z" fill="url(#paint16_linear_451_10384)"/>
<path d="M182.818 145.901H49.5703L51.2902 142.461H180.243L182.818 145.901Z" fill="url(#paint17_linear_451_10384)"/>
<path d="M185.535 149.537H47.75L49.5671 145.9H182.814L185.535 149.537Z" fill="url(#paint18_linear_451_10384)"/>
<path d="M187.987 152.808H46.1172L47.7526 149.537H185.538L187.987 152.808Z" fill="url(#paint19_linear_451_10384)"/>
<path d="M93.7913 155.079H140.52L147.105 165.882H90.5L93.7913 155.079Z" fill="url(#paint20_linear_451_10384)"/>
<path d="M100.855 57.3309C100.878 57.7865 100.988 58.2497 100.88 58.6951C100.741 59.1048 100.523 59.4831 100.238 59.8084C97.4582 63.5578 97.3252 68.5793 97.3047 73.245C97.3047 74.4223 97.3047 75.6226 97.6425 76.7487C97.9778 77.8364 98.6202 78.7962 99.2549 79.7431C99.5595 80.1987 102.032 82.9961 102.582 83.0549C103.319 83.1343 101.149 70.8059 115.87 69.6158C117.342 69.4955 118.801 69.6798 120.277 69.7284C121.15 69.7566 122.023 69.6465 122.896 69.6798C124.367 69.7386 125.785 70.2121 127.177 70.6805C129.698 71.5276 132.381 72.4925 133.939 74.6449L135.347 73.8771L135.557 78.9779L135.61 80.2013L135.925 87.6234L139.16 82.7427C141.177 79.6996 143.271 75.9425 141.786 72.6077C141.085 71.0362 139.67 69.8487 139.068 68.2337C138.231 65.9841 139.155 63.4657 138.889 61.0804C138.377 56.4326 133.45 53.4305 128.8 52.934C127.763 52.8239 126.714 52.8009 125.69 52.6089C124.678 52.3878 123.682 52.0945 122.711 51.7311C120.707 51.0452 118.396 50.4514 116.569 51.5212C115.855 51.9384 115.289 52.5859 114.521 52.9263C113.196 53.5226 111.668 53.0619 110.222 52.9084C107.373 52.6166 100.652 53.236 100.855 57.3309Z" fill="#3F3D56"/>
<path d="M135.689 84.5551C135.689 84.5551 137.396 82.4283 138.786 84.184C140.175 85.9398 138.108 90.1064 134.826 90.1806C131.545 90.2548 135.689 84.5551 135.689 84.5551Z" fill="url(#paint21_linear_451_10384)"/>
<path d="M122.466 111.012C122.466 111.012 117.509 113.549 111.136 108.883L110.847 108.67C109.434 107.573 108.147 106.323 107.008 104.944C109.214 103.547 111.059 101.696 109.122 100.058C110.079 100.826 115.876 105.282 119.743 104.227C123.917 103.091 122.497 110.856 122.466 111.012Z" fill="url(#paint22_linear_451_10384)"/>
<path d="M176.604 89.9369C175.701 91.5262 174.884 93.0849 174.849 93.7324C174.774 95.1196 172.934 101.218 170.899 103.077C169.645 104.223 170.219 105.82 170.219 105.82L167.616 105.905L167.36 105.879C167.36 105.879 168.312 102.068 165.898 100.387C163.485 98.7052 160.639 96.8753 161 94.8278C161.361 92.7803 163.27 88.2452 168.166 90.7328C173.062 93.2205 176.604 89.9369 176.604 89.9369Z" fill="url(#paint23_linear_451_10384)"/>
<path d="M168.782 58.8111C170.15 58.8111 171.26 57.7019 171.26 56.3337C171.26 54.9654 170.15 53.8562 168.782 53.8562C167.414 53.8562 166.305 54.9654 166.305 56.3337C166.305 57.7019 167.414 58.8111 168.782 58.8111Z" fill="white"/>
<defs>
<linearGradient id="paint0_linear_451_10384" x1="106" y1="0" x2="106" y2="156.506" gradientUnits="userSpaceOnUse">
<stop stop-color="#008080"/>
<stop offset="1" stop-color="#B4B4B4" stop-opacity="0"/>
</linearGradient>
<linearGradient id="paint1_linear_451_10384" x1="116.782" y1="162.295" x2="119.646" y2="222.417" gradientUnits="userSpaceOnUse">
<stop stop-opacity="0"/>
<stop offset="0.97"/>
</linearGradient>
<linearGradient id="paint2_linear_451_10384" x1="115.562" y1="21.1652" x2="117.916" y2="168.842" gradientUnits="userSpaceOnUse">
<stop stop-color="white"/>
<stop offset="1" stop-color="white" stop-opacity="0"/>
</linearGradient>
<linearGradient id="paint3_linear_451_10384" x1="102.975" y1="85.1061" x2="95.3304" y2="87.2636" gradientUnits="userSpaceOnUse">
<stop stop-color="#ECC4D7"/>
<stop offset="0.42" stop-color="#EFD4D1"/>
<stop offset="1" stop-color="#F2EAC9"/>
</linearGradient>
<linearGradient id="paint4_linear_451_10384" x1="75.4741" y1="44.8324" x2="72.5027" y2="104.78" gradientUnits="userSpaceOnUse">
<stop stop-color="white"/>
<stop offset="1" stop-color="white" stop-opacity="0"/>
</linearGradient>
<linearGradient id="paint5_linear_451_10384" x1="79.24" y1="63.4556" x2="80.6758" y2="63.4556" gradientUnits="userSpaceOnUse">
<stop stop-color="#ECC4D7"/>
<stop offset="0.42" stop-color="#EFD4D1"/>
<stop offset="1" stop-color="#F2EAC9"/>
</linearGradient>
<linearGradient id="paint6_linear_451_10384" x1="68.118" y1="63.7742" x2="70.0478" y2="63.7742" gradientUnits="userSpaceOnUse">
<stop stop-color="#ECC4D7"/>
<stop offset="0.42" stop-color="#EFD4D1"/>
<stop offset="1" stop-color="#F2EAC9"/>
</linearGradient>
<linearGradient id="paint7_linear_451_10384" x1="69.1453" y1="63.9525" x2="68.9252" y2="64.9533" gradientUnits="userSpaceOnUse">
<stop stop-color="#ECC4D7"/>
<stop offset="0.42" stop-color="#EFD4D1"/>
<stop offset="1" stop-color="#F2EAC9"/>
</linearGradient>
<linearGradient id="paint8_linear_451_10384" x1="79.7118" y1="63.6196" x2="79.9293" y2="64.6203" gradientUnits="userSpaceOnUse">
<stop stop-color="#ECC4D7"/>
<stop offset="0.42" stop-color="#EFD4D1"/>
<stop offset="1" stop-color="#F2EAC9"/>
</linearGradient>
<linearGradient id="paint9_linear_451_10384" x1="102.178" y1="83.9156" x2="137.581" y2="83.9156" gradientUnits="userSpaceOnUse">
<stop stop-color="#ECC4D7"/>
<stop offset="0.42" stop-color="#EFD4D1"/>
<stop offset="1" stop-color="#F2EAC9"/>
</linearGradient>
<linearGradient id="paint10_linear_451_10384" x1="118.865" y1="105.97" x2="118.159" y2="189.932" gradientUnits="userSpaceOnUse">
<stop stop-opacity="0"/>
<stop offset="0.97"/>
</linearGradient>
<linearGradient id="paint11_linear_451_10384" x1="166.836" y1="113.678" x2="159.854" y2="158.545" gradientUnits="userSpaceOnUse">
<stop stop-opacity="0"/>
<stop offset="0.97"/>
</linearGradient>
<linearGradient id="paint12_linear_451_10384" x1="150.187" y1="90.2567" x2="179.108" y2="90.2567" gradientUnits="userSpaceOnUse">
<stop stop-color="#ECC4D7"/>
<stop offset="0.42" stop-color="#EFD4D1"/>
<stop offset="1" stop-color="#F2EAC9"/>
</linearGradient>
<linearGradient id="paint13_linear_451_10384" x1="73.8676" y1="69.7133" x2="74.8197" y2="74.1026" gradientUnits="userSpaceOnUse">
<stop stop-color="#ECC4D7"/>
<stop offset="0.42" stop-color="#EFD4D1"/>
<stop offset="1" stop-color="#F2EAC9"/>
</linearGradient>
<linearGradient id="paint14_linear_451_10384" x1="71.7849" y1="56.491" x2="76.686" y2="65.5613" gradientUnits="userSpaceOnUse">
<stop stop-color="#ECC4D7"/>
<stop offset="0.42" stop-color="#EFD4D1"/>
<stop offset="1" stop-color="#F2EAC9"/>
</linearGradient>
<linearGradient id="paint15_linear_451_10384" x1="138.209" y1="99.1686" x2="115.343" y2="175.212" gradientUnits="userSpaceOnUse">
<stop stop-color="white"/>
<stop offset="0.89" stop-color="white" stop-opacity="0"/>
</linearGradient>
<linearGradient id="paint16_linear_451_10384" x1="115.82" y1="128.584" x2="115.58" y2="189.182" gradientUnits="userSpaceOnUse">
<stop stop-opacity="0"/>
<stop offset="0.97"/>
</linearGradient>
<linearGradient id="paint17_linear_451_10384" x1="117.155" y1="101.859" x2="115.724" y2="167.468" gradientUnits="userSpaceOnUse">
<stop stop-color="white"/>
<stop offset="0.6" stop-color="white" stop-opacity="0.48"/>
<stop offset="0.87" stop-color="white" stop-opacity="0.13"/>
<stop offset="1" stop-color="white" stop-opacity="0"/>
</linearGradient>
<linearGradient id="paint18_linear_451_10384" x1="116.724" y1="128.586" x2="116.486" y2="189.186" gradientUnits="userSpaceOnUse">
<stop stop-opacity="0"/>
<stop offset="0.97"/>
</linearGradient>
<linearGradient id="paint19_linear_451_10384" x1="118.101" y1="104.718" x2="116.668" y2="170.329" gradientUnits="userSpaceOnUse">
<stop stop-color="white"/>
<stop offset="1" stop-color="white" stop-opacity="0"/>
</linearGradient>
<linearGradient id="paint20_linear_451_10384" x1="119.49" y1="142.901" x2="116.864" y2="230.697" gradientUnits="userSpaceOnUse">
<stop stop-opacity="0"/>
<stop offset="0.97"/>
</linearGradient>
<linearGradient id="paint21_linear_451_10384" x1="135.285" y1="86.6052" x2="142.929" y2="88.7627" gradientUnits="userSpaceOnUse">
<stop stop-color="#ECC4D7"/>
<stop offset="0.42" stop-color="#EFD4D1"/>
<stop offset="1" stop-color="#F2EAC9"/>
</linearGradient>
<linearGradient id="paint22_linear_451_10384" x1="114.952" y1="106.579" x2="109.027" y2="145.095" gradientUnits="userSpaceOnUse">
<stop stop-color="#ECC4D7"/>
<stop offset="0.42" stop-color="#EFD4D1"/>
<stop offset="1" stop-color="#F2EAC9"/>
</linearGradient>
<linearGradient id="paint23_linear_451_10384" x1="165.875" y1="89.1486" x2="182.918" y2="113.583" gradientUnits="userSpaceOnUse">
<stop stop-color="#ECC4D7"/>
<stop offset="0.42" stop-color="#EFD4D1"/>
<stop offset="1" stop-color="#F2EAC9"/>
</linearGradient>
</defs>
</svg>
