<svg width="469" height="489" viewBox="0 0 469 489" fill="none" xmlns="http://www.w3.org/2000/svg">
<g filter="url(#filter0_d_202_3060)">
<rect x="44" y="7" width="381" height="400.65" rx="10" fill="white"/>
<path d="M146.052 58.2C150.552 58.2 153.252 56.06 153.252 52.48V52.14H149.052V52.48C149.052 54 148.332 54.6 146.112 54.6C143.392 54.6 142.652 53.96 142.652 51.3C142.652 48.64 143.392 48 146.112 48C148.332 48 149.052 48.6 149.052 50.12V50.46H153.252V50.12C153.252 46.54 150.552 44.4 146.052 44.4C141.392 44.4 138.652 47.12 138.652 51.3C138.652 55.48 141.392 58.2 146.052 58.2ZM161.463 58.2C166.243 58.2 168.963 55.48 168.963 51.3C168.963 47.12 166.243 44.4 161.463 44.4C156.803 44.4 154.043 47.12 154.043 51.3C154.043 55.48 156.803 58.2 161.463 58.2ZM161.463 54.6C158.743 54.6 158.043 53.96 158.043 51.3C158.043 48.64 158.743 48 161.463 48C164.183 48 164.963 48.64 164.963 51.3C164.963 53.96 164.183 54.6 161.463 54.6ZM173.725 58V52.76L173.565 50.2H173.825L175.525 52.84L179.485 58H183.485V44.6H179.725V49.78L179.905 52.7H179.645L177.685 49.62L173.965 44.6H169.965V58H173.725ZM192.892 58V47.98H197.612V44.6H184.392V47.98H189.132V58H192.892ZM201.94 58L202.98 55.52H209.34L210.36 58H214.68L208.88 44.6H203.5L197.72 58H201.94ZM205.18 50.26L206.04 48H206.3L207.18 50.26L207.96 52.14H204.4L205.18 50.26ZM222.282 58.2C226.782 58.2 229.482 56.06 229.482 52.48V52.14H225.282V52.48C225.282 54 224.562 54.6 222.342 54.6C219.622 54.6 218.882 53.96 218.882 51.3C218.882 48.64 219.622 48 222.342 48C224.562 48 225.282 48.6 225.282 50.12V50.46H229.482V50.12C229.482 46.54 226.782 44.4 222.282 44.4C217.622 44.4 214.882 47.12 214.882 51.3C214.882 55.48 217.622 58.2 222.282 58.2ZM238.673 58V47.98H243.393V44.6H230.173V47.98H234.913V58H238.673Z" fill="black"/>
<path d="M250.854 58V53.44H252.394C253.854 53.44 254.254 53.72 254.734 54.72L256.334 58H260.674L259.014 54.64C258.514 53.62 258.074 52.96 256.694 52.6V52.4C259.254 52.08 260.314 50.82 260.314 48.7C260.314 46.08 258.454 44.6 254.914 44.6H247.094V58H250.854ZM250.854 47.98H254.874C255.974 47.98 256.374 48.24 256.374 49.3C256.374 50.44 255.974 50.64 254.874 50.64H250.854V47.98ZM273.174 58V54.62H265.034V52.94H272.874V49.58H265.034V47.98H273.174V44.6H261.274V58H273.174ZM278.003 58V52.76L277.843 50.2H278.103L279.803 52.84L283.763 58H287.763V44.6H284.003V49.78L284.183 52.7H283.923L281.963 49.62L278.243 44.6H274.243V58H278.003ZM297.169 58V47.98H301.889V44.6H288.669V47.98H293.409V58H297.169ZM310.997 58V47.98H315.717V44.6H302.497V47.98H307.237V58H310.997ZM323.845 58.2C328.625 58.2 331.345 55.48 331.345 51.3C331.345 47.12 328.625 44.4 323.845 44.4C319.185 44.4 316.425 47.12 316.425 51.3C316.425 55.48 319.185 58.2 323.845 58.2ZM323.845 54.6C321.125 54.6 320.425 53.96 320.425 51.3C320.425 48.64 321.125 48 323.845 48C326.565 48 327.345 48.64 327.345 51.3C327.345 53.96 326.565 54.6 323.845 54.6Z" fill="#FF9000"/>
<path opacity="0.18" d="M362.39 364.457C379.483 357.997 394.937 344.183 398.288 326.21C401.049 311.386 395.357 296.335 388.437 282.924C381.518 269.513 373.137 256.554 369.907 241.827C363.892 214.44 376.302 184.057 364.514 158.615C360.969 150.977 355.43 144.389 349.173 138.777C321.81 114.329 280.721 108.855 245.671 119.666C210.621 130.477 181.361 155.717 159.835 185.413C150.953 197.654 143.235 210.726 133.554 222.328C120.651 237.782 103.906 251.346 98.3022 270.652C94.2248 284.604 96.6874 299.718 101.532 313.444C108.984 334.486 141.095 371.909 156.379 371.836C190.444 371.667 255.804 373.338 287.382 372.127C311.039 371.199 337.627 373.806 362.39 364.457Z" fill="url(#paint0_linear_202_3060)"/>
<path d="M216.375 336.109C215.568 338.41 214.857 341.05 216.028 343.19C216.811 344.383 217.865 345.373 219.104 346.08L230.246 353.654C232.386 355.107 234.655 356.601 237.222 356.795C239.79 356.988 242.705 355.349 242.923 352.757C243.181 349.794 240.072 347.768 238.619 345.168C236.714 341.761 237.763 337.538 238.756 333.759C241.26 324.249 243.09 314.573 244.231 304.805C241.946 303.869 235.293 299.678 232.927 300.373C230.262 301.18 227.856 308.632 226.669 311.063C222.658 319.161 219.218 327.53 216.375 336.109Z" fill="#F1AF8C"/>
<path d="M237.734 272.202C234.844 280.414 231.776 288.649 227.141 296.029C226.973 296.243 226.885 296.508 226.891 296.78C226.965 297.036 227.124 297.258 227.343 297.41C232.002 301.487 237.032 305.742 243.16 306.622C243.56 306.715 243.978 306.678 244.355 306.517C244.709 306.267 244.97 305.906 245.098 305.492C249.006 296.441 250.387 286.526 250.257 276.724C250.173 271.828 249.784 266.942 249.095 262.094C248.933 260.915 248.844 255.683 247.819 255.069C246.261 254.149 244.549 257.362 243.871 258.371C241.061 262.578 239.398 267.422 237.734 272.202Z" fill="#FF9000"/>
<path d="M250.41 256.554C250.41 256.554 246.769 257.918 243.806 268.172C240.842 278.426 233.77 303.279 233.77 303.279C233.77 303.279 244.71 308.745 247.447 306.694C250.184 304.643 250.41 256.554 250.41 256.554Z" fill="url(#paint1_linear_202_3060)"/>
<path d="M281.439 245.993C287.398 245.807 293.429 246.098 299.162 247.713C304.894 249.328 310.344 252.38 314.107 257.006C318.273 262.125 320.098 268.819 320.518 275.399C320.938 281.979 320.066 288.576 319.404 295.148C317.852 310.532 317.442 326.009 318.176 341.453C318.354 345.151 320.469 364.456 317.87 367.097C316.255 368.76 319.484 370.423 317.183 370.972C298.371 375.494 264.572 373.273 246.761 365.732C242.231 363.811 237.686 361.138 235.457 356.762C233.035 352.022 239.575 333.234 240.358 327.961C242.732 311.872 244.444 295.697 245.493 279.436C245.953 272.242 245.421 264.491 246.898 257.426C247.972 252.299 251.274 250.902 256.038 249.643C264.342 247.482 272.862 246.258 281.439 245.993Z" fill="#FF9000"/>
<path d="M296.916 330.165C296.295 333.435 295.479 336.851 293.243 339.321C291.473 341.09 289.309 342.412 286.929 343.181C275.706 347.411 262.908 346.749 252.153 352.062C251.395 352.395 250.696 352.85 250.086 353.411C248.011 355.461 248.593 359.062 250.24 361.485C253.897 366.838 261.011 368.34 267.43 369.333C282.819 371.755 298.531 373.733 313.912 371.254C314.749 371.194 315.55 370.888 316.213 370.374C316.744 369.758 317.084 369 317.19 368.194C320.678 352.708 317.933 336.584 317.869 320.71C317.869 311.554 318.676 302.39 318.054 293.258C317.741 287.576 316.56 281.975 314.55 276.65C313.121 273.033 308.939 265.047 306.428 272.46C302.439 284.24 301.292 296.94 299.855 309.221C299.072 316.221 298.232 323.229 296.916 330.165Z" fill="url(#paint2_linear_202_3060)"/>
<path d="M301.724 358.554H171.23C167.569 358.554 164.602 361.522 164.602 365.183C164.602 368.844 167.569 371.812 171.23 371.812H301.724C305.385 371.812 308.353 368.844 308.353 365.183C308.353 361.522 305.385 358.554 301.724 358.554Z" fill="#FF9000"/>
<path d="M301.724 358.554H171.23C167.569 358.554 164.602 361.522 164.602 365.183C164.602 368.844 167.569 371.812 171.23 371.812H301.724C305.385 371.812 308.353 368.844 308.353 365.183C308.353 361.522 305.385 358.554 301.724 358.554Z" fill="url(#paint3_linear_202_3060)"/>
<path d="M267.051 258.54C264.379 258.113 262.877 255.424 264.072 248.948C264.201 248.23 264.371 247.535 264.564 246.841C264.564 246.712 264.637 246.583 264.669 246.454C264.96 245.452 265.291 244.451 265.614 243.458C266.513 241.075 266.988 238.553 267.019 236.006C266.946 234.149 266.801 232.219 267.487 230.507C268.146 229.054 269.18 227.803 270.483 226.882C273.365 224.661 281.786 220.487 283.401 226.002C284.12 228.359 283.595 231.105 283.563 233.519C283.401 236.978 284.036 240.428 285.42 243.603C287.18 247.14 273.615 259.59 267.051 258.54Z" fill="#F1AF8C"/>
<path d="M265.156 245.388C265.156 245.388 280.045 239.736 282.919 230.798L267.054 235.99C267.054 235.99 266.674 244.169 265.156 245.388Z" fill="url(#paint4_linear_202_3060)"/>
<path d="M305.512 264.717C303.992 281.61 306.793 298.611 313.65 314.123C313.853 314.695 314.194 315.208 314.644 315.617C315.368 316.067 316.216 316.276 317.066 316.214C323.708 316.357 330.206 314.271 335.523 310.288C337.138 309.068 338.656 307.51 338.793 305.613C338.797 304.596 338.596 303.588 338.204 302.65C334.082 290.671 329.27 278.941 323.792 267.519C321.757 263.288 319.028 258.331 314.103 256.466C308.176 254.229 305.924 260.293 305.512 264.717Z" fill="white"/>
<path d="M276.671 274.374C281.088 269.715 284.326 264.088 287.523 258.524C289.469 255.133 291.463 251.589 291.738 247.681C291.807 247.237 291.736 246.783 291.536 246.381C291.341 246.101 291.088 245.866 290.793 245.695L284.729 241.585C284.624 245.307 281.952 248.504 278.9 250.644C275.67 252.937 266.425 255.448 268.404 260.204C268.896 261.407 276.155 274.915 276.671 274.374Z" fill="#FF9000"/>
<path d="M276.671 274.374C281.088 269.715 284.326 264.088 287.523 258.524C289.469 255.133 291.463 251.589 291.738 247.681C291.807 247.237 291.736 246.783 291.536 246.381C291.341 246.101 291.088 245.866 290.793 245.695L284.729 241.585C284.624 245.307 281.952 248.504 278.9 250.644C275.67 252.937 266.425 255.448 268.404 260.204C268.896 261.407 276.155 274.915 276.671 274.374Z" fill="url(#paint5_linear_202_3060)"/>
<path d="M311.166 361.59L346.53 354.832C348.621 354.428 350.801 354.024 352.457 352.652C354.725 350.827 355.525 347.63 355.194 344.731C354.863 341.833 353.579 339.144 352.303 336.512C347.281 326.112 337.092 307.445 337.027 308.535C330.842 309.843 325.723 309.908 320.41 313.307C319.496 313.8 318.723 314.52 318.166 315.398C316.042 319.435 321.848 325.329 323.818 328.397C324.573 329.378 325.077 330.528 325.287 331.748C325.33 332.61 325.169 333.47 324.819 334.259C322.905 338.958 316.091 341.695 311.9 344.109C306.422 347.422 300.279 349.484 293.911 350.149C288.97 350.569 283.924 349.931 279.095 351.037C276.134 351.743 273.359 353.077 270.959 354.949C268.558 356.821 266.589 359.188 265.184 361.889C268.058 363.713 271.796 362.656 275.107 361.824C281.24 360.303 287.581 359.793 293.879 360.314C297.964 360.661 309.228 365.393 311.166 361.59Z" fill="#F1AF8C"/>
<path d="M256.49 371.82H156.371L129.961 304.805C129.603 303.911 129.47 302.943 129.573 301.985C129.676 301.028 130.013 300.11 130.553 299.313C131.094 298.516 131.821 297.864 132.672 297.414C133.524 296.963 134.472 296.729 135.435 296.73H214.029C217.835 296.728 221.553 297.873 224.7 300.014C227.847 302.156 230.276 305.195 231.67 308.737L256.49 371.82Z" fill="#FF9000"/>
<path d="M256.49 371.82H156.371L129.961 304.805C129.603 303.911 129.47 302.943 129.573 301.985C129.676 301.028 130.013 300.11 130.553 299.313C131.094 298.516 131.821 297.864 132.672 297.414C133.524 296.963 134.472 296.729 135.435 296.73H214.029C217.835 296.728 221.553 297.873 224.7 300.014C227.847 302.156 230.276 305.195 231.67 308.737L256.49 371.82Z" fill="url(#paint6_linear_202_3060)"/>
<path d="M251.41 371.893H156.281L131.186 308.26C130.852 307.412 130.73 306.496 130.831 305.59C130.932 304.684 131.253 303.817 131.765 303.063C132.278 302.31 132.967 301.692 133.772 301.266C134.577 300.839 135.475 300.615 136.386 300.614H211.039C214.655 300.617 218.186 301.706 221.175 303.74C224.164 305.775 226.472 308.66 227.801 312.023L251.41 371.893Z" fill="url(#paint7_linear_202_3060)"/>
<path d="M263.819 150.742C266.241 149.321 268.664 147.876 271.401 147.343C274.138 146.81 277.86 147.133 279.709 149.2C277.311 149.369 274.975 150.035 272.85 151.157C270.724 152.279 268.856 153.832 267.364 155.716C267.225 155.961 267.005 156.149 266.742 156.249C266.517 156.273 266.29 156.231 266.088 156.128C264.974 155.708 256.625 157.613 256.141 156.604C256.165 156.604 262.794 151.364 263.819 150.742Z" fill="#FF9000"/>
<path d="M263.819 150.742C266.241 149.321 268.664 147.876 271.401 147.343C274.138 146.81 277.86 147.133 279.709 149.2C277.311 149.369 274.975 150.035 272.85 151.157C270.724 152.279 268.856 153.832 267.364 155.716C267.225 155.961 267.005 156.149 266.742 156.249C266.517 156.273 266.29 156.231 266.088 156.128C264.974 155.708 256.625 157.613 256.141 156.604C256.165 156.604 262.794 151.364 263.819 150.742Z" fill="url(#paint8_linear_202_3060)"/>
<path d="M245.775 212.315C251.188 212.315 255.577 206.908 255.577 200.237C255.577 193.566 251.188 188.158 245.775 188.158C240.361 188.158 235.973 193.566 235.973 200.237C235.973 206.908 240.361 212.315 245.775 212.315Z" fill="#FF9000"/>
<path d="M247.782 212.768C252.79 212.768 256.849 207.765 256.849 201.594C256.849 195.422 252.79 190.419 247.782 190.419C242.774 190.419 238.715 195.422 238.715 201.594C238.715 207.765 242.774 212.768 247.782 212.768Z" fill="#FF9000"/>
<path d="M247.782 212.768C252.79 212.768 256.849 207.765 256.849 201.594C256.849 195.422 252.79 190.419 247.782 190.419C242.774 190.419 238.715 195.422 238.715 201.594C238.715 207.765 242.774 212.768 247.782 212.768Z" fill="url(#paint9_linear_202_3060)"/>
<path d="M244.598 179.083L246.866 220.592C246.866 220.592 247.876 236.256 263.402 236.409C282.053 236.595 287.73 225.751 290.564 217.5C293.398 209.248 295.957 185.009 290.564 178.308C285.17 171.606 254.819 155.111 244.598 179.083Z" fill="#F1AF8C"/>
<path d="M256.386 154.158C249.071 154.029 240.714 157.444 237.379 164.347C236.579 165.936 236.144 167.683 236.104 169.461C236.065 171.239 236.424 173.004 237.153 174.626C237.421 175.103 237.633 175.609 237.783 176.136C237.856 176.717 237.856 177.306 237.783 177.888C237.719 179.29 238.002 180.687 238.606 181.954C239.21 183.221 240.117 184.321 241.247 185.154C242.531 186.083 244.089 186.664 245.114 187.867L244.719 180.14C244.627 179.723 244.705 179.286 244.935 178.926C245.165 178.566 245.529 178.311 245.946 178.219L250.863 175.926C250.863 175.926 252.381 177.032 252.567 177.121C253.383 177.468 254.264 177.636 255.15 177.613C257.078 177.659 259.005 177.551 260.915 177.29C265.041 176.701 268.989 175.191 272.841 173.689C272.716 174.883 272.2 176.002 271.371 176.87L283.91 179.293C285.747 181.818 287.228 184.583 288.311 187.512C289.178 189.801 289.748 192.191 290.006 194.625C290.342 197.934 290.032 201.277 289.094 204.468C289.947 203.817 290.693 203.038 291.306 202.158C292.44 202.946 293.695 203.543 295.02 203.927C295.296 204.029 295.595 204.054 295.884 203.999C296.498 203.83 296.627 203.103 296.692 202.522C297.192 197.314 301.068 192.914 302.844 187.94C305 181.917 303.91 175.142 300.616 169.563C299.64 167.795 298.313 166.246 296.716 165.009C290.943 160.779 282.74 162.716 276.151 160.504C273.018 159.454 270.499 157.46 267.504 156.144C264.177 154.731 260.011 154.222 256.386 154.158Z" fill="#3F3D56"/>
<path d="M256.386 154.158C249.071 154.029 240.714 157.444 237.379 164.347C236.579 165.936 236.144 167.683 236.104 169.461C236.065 171.239 236.424 173.004 237.153 174.626C237.421 175.103 237.633 175.609 237.783 176.136C237.856 176.717 237.856 177.306 237.783 177.888C237.719 179.29 238.002 180.687 238.606 181.954C239.21 183.221 240.117 184.321 241.247 185.154C242.531 186.083 244.089 186.664 245.114 187.867L244.719 180.14C244.627 179.723 244.705 179.286 244.935 178.926C245.165 178.566 245.529 178.311 245.946 178.219L250.863 175.926C250.863 175.926 252.381 177.032 252.567 177.121C253.383 177.468 254.264 177.636 255.15 177.613C257.078 177.659 259.005 177.551 260.915 177.29C265.041 176.701 268.989 175.191 272.841 173.689C272.716 174.883 272.2 176.002 271.371 176.87L283.91 179.293C285.747 181.818 287.228 184.583 288.311 187.512C289.178 189.801 289.748 192.191 290.006 194.625C290.342 197.934 290.032 201.277 289.094 204.468C289.947 203.817 290.693 203.038 291.306 202.158C292.44 202.946 293.695 203.543 295.02 203.927C295.296 204.029 295.595 204.054 295.884 203.999C296.498 203.83 296.627 203.103 296.692 202.522C297.192 197.314 301.068 192.914 302.844 187.94C305 181.917 303.91 175.142 300.616 169.563C299.64 167.795 298.313 166.246 296.716 165.009C290.943 160.779 282.74 162.716 276.151 160.504C273.018 159.454 270.499 157.46 267.504 156.144C264.177 154.731 260.011 154.222 256.386 154.158Z" fill="url(#paint10_linear_202_3060)"/>
<path d="M299.759 213.681C305.115 213.681 309.457 208.327 309.457 201.723C309.457 195.119 305.115 189.766 299.759 189.766C294.404 189.766 290.062 195.119 290.062 201.723C290.062 208.327 294.404 213.681 299.759 213.681Z" fill="#FF9000"/>
<path d="M299.759 213.681C305.115 213.681 309.457 208.327 309.457 201.723C309.457 195.119 305.115 189.766 299.759 189.766C294.404 189.766 290.062 195.119 290.062 201.723C290.062 208.327 294.404 213.681 299.759 213.681Z" fill="url(#paint11_linear_202_3060)"/>
<path d="M303.474 213.681C308.83 213.681 313.171 208.327 313.171 201.723C313.171 195.119 308.83 189.766 303.474 189.766C298.119 189.766 293.777 195.119 293.777 201.723C293.777 208.327 298.119 213.681 303.474 213.681Z" fill="#FF9000"/>
<path d="M303.556 190.717L298.712 191.234L297.557 191.355L292.713 167.512C290.193 158.082 284.033 150.831 276.306 148.022C275.11 147.604 273.837 147.453 272.576 147.577L269.273 147.876L270.888 147.448L274.118 146.592C275.127 146.314 276.172 146.186 277.218 146.213C285.842 146.528 294.021 153.48 296.984 163.443L303.556 190.717Z" fill="#FF9000"/>
<path d="M303.556 190.717L298.712 191.234L297.557 191.355L292.713 167.512C290.193 158.082 284.033 150.831 276.306 148.022C275.11 147.604 273.837 147.453 272.576 147.577L269.273 147.876L270.888 147.448L274.118 146.592C275.127 146.314 276.172 146.186 277.218 146.213C285.842 146.528 294.021 153.48 296.984 163.443L303.556 190.717Z" fill="url(#paint12_linear_202_3060)"/>
<path d="M303.555 190.717L298.71 191.234L293.866 167.335C291.306 157.807 285.089 150.5 277.289 147.666C276.083 147.234 274.794 147.079 273.519 147.214L270.887 147.448L274.116 146.592C275.126 146.314 276.17 146.186 277.217 146.213C285.84 146.528 294.019 153.48 296.982 163.443L303.555 190.717Z" fill="#FF9000"/>
<path opacity="0.45" d="M201.89 118.543H83.499C76.5248 118.543 70.8711 124.197 70.8711 131.171V270.191C70.8711 277.166 76.5248 282.819 83.499 282.819H201.89C208.864 282.819 214.518 277.166 214.518 270.191V131.171C214.518 124.197 208.864 118.543 201.89 118.543Z" fill="url(#paint13_linear_202_3060)"/>
<path d="M114.185 267.107C126.055 267.107 135.678 257.484 135.678 245.613C135.678 233.743 126.055 224.12 114.185 224.12C102.314 224.12 92.6914 233.743 92.6914 245.613C92.6914 257.484 102.314 267.107 114.185 267.107Z" fill="url(#paint14_linear_202_3060)"/>
<path d="M83.6602 134.118H175.471V139.286H83.6602V134.118Z" fill="#FF9000"/>
<path opacity="0.51" d="M86.4375 202.07H178.248V207.237H86.4375V202.07Z" fill="#FF9000"/>
<path d="M86.4375 193.229H151.701V198.396H86.4375V193.229Z" fill="#FF9000"/>
<path d="M160.633 193.229H204.322V198.396H160.633V193.229Z" fill="#FF9000"/>
<path d="M137 160.52H204.177V165.114H137V160.52Z" fill="#FF9000"/>
<path opacity="0.51" d="M122.922 168.667H194.79V173.262H122.922V168.667Z" fill="#FF9000"/>
<path d="M87.6953 160.52H131.877V165.114H87.6953V160.52Z" fill="#FF9000"/>
<path d="M107.074 176.581H204.182V181.175H107.074V176.581Z" fill="#FF9000"/>
<path opacity="0.51" d="M87.6953 176.581H101.954V181.175H87.6953V176.581Z" fill="#FF9000"/>
<path opacity="0.51" d="M140.082 184.735H204.174V189.329H140.082V184.735Z" fill="#FF9000"/>
<path d="M87.6953 184.735H131.877V189.329H87.6953V184.735Z" fill="#FF9000"/>
<path d="M87.6953 168.473H116.108V173.067H87.6953V168.473Z" fill="#FF9000"/>
<path d="M118.953 231.484C117.693 233.026 117.483 235.182 117.717 237.136C117.79 237.49 117.79 237.855 117.717 238.21C117.61 238.508 117.446 238.782 117.233 239.017C113.812 243.27 109.979 247.175 105.792 250.676C105.674 250.79 105.534 250.878 105.38 250.934C105.106 250.991 104.821 250.951 104.573 250.821C103.362 250.345 102.062 249.828 100.794 250.135C100.22 250.307 99.694 250.612 99.2604 251.026C98.8267 251.44 98.4973 251.951 98.2992 252.517C97.9075 253.658 97.8432 254.886 98.1135 256.061C99.4914 254.915 100.926 253.838 102.417 252.832L104.54 254.939C104.651 255.023 104.741 255.13 104.805 255.253C104.869 255.376 104.906 255.511 104.912 255.65C104.871 255.815 104.784 255.966 104.662 256.086L101.529 259.784C102.559 260.196 103.683 260.318 104.778 260.136C105.873 259.953 106.897 259.474 107.738 258.75C109.353 257.216 109.595 254.35 108.012 252.808L120.035 239.332C120.845 239.931 121.83 240.248 122.838 240.233C123.846 240.219 124.821 239.874 125.614 239.251C126.384 238.6 126.979 237.768 127.345 236.829C127.712 235.89 127.838 234.874 127.713 233.874C126.217 234.771 124.829 235.838 123.579 237.055L121.157 234.035C122.013 233.228 125.331 230.999 123.175 230.127C121.754 229.554 119.873 230.362 118.953 231.484Z" fill="#FF9000"/>
<path d="M188.55 253.268L189.705 249.594C189.705 249.594 185.143 245.993 185.006 246.219L184.82 243.563L188.994 239.122L187.073 235.787C187.073 235.787 181.421 236.708 181.421 236.966C180.33 235.941 179.155 235.009 177.908 234.181L177.731 228.125L174.017 227.116C174.017 227.116 170.618 231.831 170.844 231.96C170.844 231.96 168.228 232.509 166.976 232.905L162.745 229.304L159.516 231.387C159.516 231.387 160.476 235.884 160.856 236.829C159.952 237.822 158.821 238.944 158.821 238.944L152.798 239.913L152.281 243.724C152.281 243.724 156.52 246.017 157.344 246.251C157.361 247.486 157.551 248.711 157.909 249.893L154.623 254.947L157.101 257.886C157.101 257.886 160.388 256.732 161.817 256.102C163.149 257.313 165.046 258.75 165.046 258.75L166.564 264.66L170.408 264.822C170.408 264.822 172.257 260.518 172.45 259.574C173.687 259.436 174.933 259.42 176.173 259.525L181.574 262.359L184.279 259.614C183.499 257.869 182.628 256.166 181.671 254.511C182.014 254.094 182.324 253.651 182.6 253.187L188.55 253.268ZM170.626 253.405C169.115 253.407 167.637 252.96 166.38 252.122C165.123 251.283 164.143 250.091 163.563 248.695C162.984 247.3 162.831 245.764 163.125 244.282C163.419 242.8 164.146 241.438 165.214 240.369C166.282 239.3 167.643 238.572 169.124 238.276C170.606 237.981 172.143 238.132 173.539 238.709C174.935 239.287 176.128 240.266 176.968 241.523C177.807 242.779 178.256 244.256 178.256 245.767C178.254 247.791 177.449 249.731 176.019 251.163C174.589 252.594 172.649 253.401 170.626 253.405Z" fill="#FF9000"/>
<path d="M239.381 176.993C240.811 174.167 243.911 172.488 247.036 171.979C250.16 171.47 253.358 171.939 256.482 172.415C253.455 174.837 245.001 178.446 244.84 179.092C244.726 180.236 244.712 181.386 244.799 182.532C244.912 184.195 244.969 185.939 244.961 187.602C244.181 186.839 243.307 186.177 242.361 185.632C241.547 185.319 240.806 184.844 240.181 184.236C239.364 183.234 238.854 182.017 238.712 180.732C238.571 179.447 238.803 178.149 239.381 176.993Z" fill="url(#paint15_linear_202_3060)"/>
<path d="M280.502 230.71C276.854 230.636 273.237 230.032 269.763 228.917C269.352 228.794 269.007 228.513 268.803 228.135C268.6 227.757 268.554 227.314 268.677 226.903C268.801 226.492 269.082 226.146 269.46 225.943C269.838 225.739 270.281 225.694 270.692 225.817C279.008 228.32 285.266 227.989 289.262 224.832C294.704 220.561 294.349 212.422 294.349 212.341C294.328 211.913 294.477 211.494 294.765 211.176C295.053 210.858 295.455 210.667 295.883 210.646C296.311 210.624 296.731 210.774 297.049 211.061C297.367 211.349 297.557 211.751 297.579 212.18C297.579 212.575 298.007 222.087 291.257 227.383C288.447 229.596 284.862 230.704 280.502 230.71Z" fill="#FF9000"/>
<path d="M280.502 230.71C276.854 230.636 273.237 230.032 269.763 228.917C269.352 228.794 269.007 228.513 268.803 228.135C268.6 227.757 268.554 227.314 268.677 226.903C268.801 226.492 269.082 226.146 269.46 225.943C269.838 225.739 270.281 225.694 270.692 225.817C279.008 228.32 285.266 227.989 289.262 224.832C294.704 220.561 294.349 212.422 294.349 212.341C294.328 211.913 294.477 211.494 294.765 211.176C295.053 210.858 295.455 210.667 295.883 210.646C296.311 210.624 296.731 210.774 297.049 211.061C297.367 211.349 297.557 211.751 297.579 212.18C297.579 212.575 298.007 222.087 291.257 227.383C288.447 229.596 284.862 230.704 280.502 230.71Z" fill="url(#paint16_linear_202_3060)"/>
<path d="M270.599 223.087C271.526 223.553 272.252 224.339 272.642 225.299C272.997 226.672 271.932 227.988 270.834 228.884C269.89 229.725 268.729 230.285 267.483 230.499C265.658 230.717 263.914 229.732 262.396 228.69C261.549 228.174 260.827 227.476 260.281 226.648C258.876 224.177 260.692 220.996 263.074 219.946C265.715 218.808 268.524 221.722 270.599 223.087Z" fill="#FF9000"/>
<path d="M270.599 223.087C271.526 223.553 272.252 224.339 272.642 225.299C272.997 226.672 271.932 227.988 270.834 228.884C269.89 229.725 268.729 230.285 267.483 230.499C265.658 230.717 263.914 229.732 262.396 228.69C261.549 228.174 260.827 227.476 260.281 226.648C258.876 224.177 260.692 220.996 263.074 219.946C265.715 218.808 268.524 221.722 270.599 223.087Z" fill="url(#paint17_linear_202_3060)"/>
</g>
<defs>
<filter id="filter0_d_202_3060" x="0.332375" y="0.449856" width="468.335" height="487.986" filterUnits="userSpaceOnUse" color-interpolation-filters="sRGB">
<feFlood flood-opacity="0" result="BackgroundImageFix"/>
<feColorMatrix in="SourceAlpha" type="matrix" values="0 0 0 0 0 0 0 0 0 0 0 0 0 0 0 0 0 0 127 0" result="hardAlpha"/>
<feOffset dy="37.1175"/>
<feGaussianBlur stdDeviation="21.8338"/>
<feComposite in2="hardAlpha" operator="out"/>
<feColorMatrix type="matrix" values="0 0 0 0 0.725 0 0 0 0 0.725 0 0 0 0 0.725 0 0 0 0.1 0"/>
<feBlend mode="normal" in2="BackgroundImageFix" result="effect1_dropShadow_202_3060"/>
<feBlend mode="normal" in="SourceGraphic" in2="effect1_dropShadow_202_3060" result="shape"/>
</filter>
<linearGradient id="paint0_linear_202_3060" x1="247.623" y1="114.377" x2="247.623" y2="372.571" gradientUnits="userSpaceOnUse">
<stop stop-color="#008080"/>
<stop offset="1" stop-color="#DEDEDE" stop-opacity="0"/>
</linearGradient>
<linearGradient id="paint1_linear_202_3060" x1="286.219" y1="280.179" x2="230.911" y2="282.609" gradientUnits="userSpaceOnUse">
<stop offset="0.01"/>
<stop offset="1" stop-opacity="0"/>
</linearGradient>
<linearGradient id="paint2_linear_202_3060" x1="424.221" y1="448.838" x2="244.612" y2="282.915" gradientUnits="userSpaceOnUse">
<stop offset="0.01"/>
<stop offset="1" stop-opacity="0"/>
</linearGradient>
<linearGradient id="paint3_linear_202_3060" x1="236.17" y1="360.008" x2="237.535" y2="383.027" gradientUnits="userSpaceOnUse">
<stop offset="0.01"/>
<stop offset="1" stop-opacity="0"/>
</linearGradient>
<linearGradient id="paint4_linear_202_3060" x1="276.928" y1="215.481" x2="272.213" y2="252.404" gradientUnits="userSpaceOnUse">
<stop offset="0.01"/>
<stop offset="1" stop-opacity="0"/>
</linearGradient>
<linearGradient id="paint5_linear_202_3060" x1="272.505" y1="249.417" x2="289.598" y2="265.597" gradientUnits="userSpaceOnUse">
<stop offset="0.02" stop-color="white" stop-opacity="0"/>
<stop offset="0.58" stop-color="white" stop-opacity="0.39"/>
<stop offset="1" stop-color="white"/>
</linearGradient>
<linearGradient id="paint6_linear_202_3060" x1="265.889" y1="207.681" x2="183.839" y2="352.644" gradientUnits="userSpaceOnUse">
<stop offset="0.01"/>
<stop offset="1" stop-opacity="0"/>
</linearGradient>
<linearGradient id="paint7_linear_202_3060" x1="213.994" y1="403.228" x2="163.854" y2="263.74" gradientUnits="userSpaceOnUse">
<stop offset="0.01"/>
<stop offset="0.09" stop-opacity="0.82"/>
<stop offset="1" stop-opacity="0"/>
</linearGradient>
<linearGradient id="paint8_linear_202_3060" x1="267.041" y1="143.371" x2="268.712" y2="160.843" gradientUnits="userSpaceOnUse">
<stop offset="0.01"/>
<stop offset="1" stop-opacity="0"/>
</linearGradient>
<linearGradient id="paint9_linear_202_3060" x1="252.215" y1="184.242" x2="243.777" y2="217.298" gradientUnits="userSpaceOnUse">
<stop offset="0.01"/>
<stop offset="1" stop-opacity="0"/>
</linearGradient>
<linearGradient id="paint10_linear_202_3060" x1="286.785" y1="167.157" x2="273.115" y2="178.098" gradientUnits="userSpaceOnUse">
<stop offset="0.01"/>
<stop offset="1" stop-opacity="0"/>
</linearGradient>
<linearGradient id="paint11_linear_202_3060" x1="301.455" y1="201.384" x2="289.869" y2="203.702" gradientUnits="userSpaceOnUse">
<stop offset="0.01"/>
<stop offset="1" stop-opacity="0"/>
</linearGradient>
<linearGradient id="paint12_linear_202_3060" x1="303.064" y1="162.095" x2="276.855" y2="173.495" gradientUnits="userSpaceOnUse">
<stop offset="0.01"/>
<stop offset="1" stop-opacity="0"/>
</linearGradient>
<linearGradient id="paint13_linear_202_3060" x1="142.694" y1="118.543" x2="142.694" y2="282.819" gradientUnits="userSpaceOnUse">
<stop stop-color="#008080"/>
<stop offset="1" stop-color="#FFD6A2" stop-opacity="0"/>
</linearGradient>
<linearGradient id="paint14_linear_202_3060" x1="118.036" y1="168.627" x2="113.216" y2="264.991" gradientUnits="userSpaceOnUse">
<stop offset="0.02" stop-color="white" stop-opacity="0"/>
<stop offset="0.58" stop-color="white" stop-opacity="0.39"/>
<stop offset="0.68" stop-color="white" stop-opacity="0.68"/>
<stop offset="1" stop-color="white"/>
</linearGradient>
<linearGradient id="paint15_linear_202_3060" x1="246.592" y1="190.218" x2="248.263" y2="166.359" gradientUnits="userSpaceOnUse">
<stop offset="0.01"/>
<stop offset="1" stop-opacity="0"/>
</linearGradient>
<linearGradient id="paint16_linear_202_3060" x1="279.186" y1="211.744" x2="287.502" y2="228.837" gradientUnits="userSpaceOnUse">
<stop offset="0.02" stop-color="white" stop-opacity="0"/>
<stop offset="0.58" stop-color="white" stop-opacity="0.39"/>
<stop offset="0.68" stop-color="white" stop-opacity="0.68"/>
<stop offset="1" stop-color="white"/>
</linearGradient>
<linearGradient id="paint17_linear_202_3060" x1="270.317" y1="216.886" x2="260.289" y2="237.096" gradientUnits="userSpaceOnUse">
<stop offset="0.01"/>
<stop offset="1" stop-opacity="0"/>
</linearGradient>
</defs>
</svg>
