<svg width="476" height="499" viewBox="0 0 476 499" fill="none" xmlns="http://www.w3.org/2000/svg">
<g filter="url(#filter0_d_202_3140)">
<rect x="63" y="40" width="350" height="373" rx="10" fill="white"/>
</g>
<path d="M90.6803 77V72.44H92.2203C93.6803 72.44 94.0803 72.72 94.5603 73.72L96.1603 77H100.5L98.8403 73.64C98.3403 72.62 97.9003 71.96 96.5203 71.6V71.4C99.0803 71.08 100.14 69.82 100.14 67.7C100.14 65.08 98.2803 63.6 94.7403 63.6H86.9203V77H90.6803ZM90.6803 66.98H94.7003C95.8003 66.98 96.2003 67.24 96.2003 68.3C96.2003 69.44 95.8003 69.64 94.7003 69.64H90.6803V66.98ZM113 77V73.62H104.86V71.94H112.7V68.58H104.86V66.98H113V63.6H101.1V77H113ZM120.569 77.2C125.089 77.2 126.849 75.16 126.849 72.86C126.849 71.14 125.969 69.46 122.689 68.98L118.489 68.36C117.769 68.26 117.529 68.06 117.529 67.64C117.529 67.06 117.949 66.8 119.869 66.8C122.389 66.8 122.809 67.12 122.809 68.08V68.38H126.569V68.26C126.569 65.26 124.529 63.4 120.269 63.4C115.429 63.4 113.769 65.64 113.769 67.78C113.769 69.94 115.029 71.28 117.529 71.62L121.729 72.18C122.829 72.32 123.089 72.52 123.089 73C123.089 73.6 122.849 73.78 120.569 73.78C118.049 73.78 117.729 73.54 117.729 72.64V72.22H113.969V72.34C113.969 75.74 116.469 77.2 120.569 77.2ZM131.501 77V63.6H127.741V77H131.501ZM139.702 77C144.122 77 146.922 74.54 146.922 70.3C146.922 66.06 144.122 63.6 139.702 63.6H132.922V77H139.702ZM139.702 66.98C142.082 66.98 142.902 67.28 142.902 70.3C142.902 73.32 142.082 73.62 139.702 73.62H136.682V66.98H139.702ZM159.816 77V73.62H151.676V71.94H159.516V68.58H151.676V66.98H159.816V63.6H147.916V77H159.816ZM164.645 77V71.76L164.485 69.2H164.745L166.445 71.84L170.405 77H174.405V63.6H170.645V68.78L170.825 71.7H170.565L168.605 68.62L164.885 63.6H160.885V77H164.645ZM183.812 77V66.98H188.532V63.6H175.312V66.98H180.052V77H183.812ZM193.2 77V63.6H189.44V77H193.2ZM197.821 77L198.861 74.52H205.221L206.241 77H210.561L204.761 63.6H199.381L193.601 77H197.821ZM201.061 69.26L201.921 67H202.181L203.061 69.26L203.841 71.14H200.281L201.061 69.26ZM222.463 77V73.62H214.723V63.6H210.963V77H222.463ZM232.456 77.2C237.356 77.2 238.776 75.18 238.776 72.04V71.7H240.716V68.62H238.776V66.92H235.076V68.62H231.596C230.856 68.62 230.436 68.52 230.436 67.7C230.436 66.84 230.836 66.74 231.696 66.74H234.336V63.32H232.236C228.716 63.32 226.676 64.38 226.676 66.92C226.676 68.4 227.576 69.6 229.416 69.76V70.02C227.436 70.16 226.056 71.18 226.056 73.24C226.056 76.02 228.356 77.2 232.456 77.2ZM232.596 73.78C230.336 73.78 229.876 73.54 229.876 72.74C229.876 71.86 230.336 71.7 231.096 71.7H235.076V72.24C235.076 73.66 234.776 73.78 232.596 73.78ZM251.718 77.2C256.218 77.2 258.918 75.06 258.918 71.48V71.14H254.718V71.48C254.718 73 253.998 73.6 251.778 73.6C249.058 73.6 248.318 72.96 248.318 70.3C248.318 67.64 249.058 67 251.778 67C253.998 67 254.718 67.6 254.718 69.12V69.46H258.918V69.12C258.918 65.54 256.218 63.4 251.718 63.4C247.058 63.4 244.318 66.12 244.318 70.3C244.318 74.48 247.058 77.2 251.718 77.2ZM267.129 77.2C271.909 77.2 274.629 74.48 274.629 70.3C274.629 66.12 271.909 63.4 267.129 63.4C262.469 63.4 259.709 66.12 259.709 70.3C259.709 74.48 262.469 77.2 267.129 77.2ZM267.129 73.6C264.409 73.6 263.709 72.96 263.709 70.3C263.709 67.64 264.409 67 267.129 67C269.849 67 270.629 67.64 270.629 70.3C270.629 72.96 269.849 73.6 267.129 73.6ZM279.391 77V71.46L279.251 69.22H279.511L280.271 71.46L282.271 76.2H286.831L288.831 71.46L289.591 69.22H289.851L289.711 71.46V77H293.471V63.6H288.371L286.031 69.16L284.771 72.62H284.511L283.191 69.16L280.731 63.6H275.631V77H279.391ZM298.434 77V71.46L298.294 69.22H298.554L299.314 71.46L301.314 76.2H305.874L307.874 71.46L308.634 69.22H308.894L308.754 71.46V77H312.514V63.6H307.414L305.074 69.16L303.814 72.62H303.554L302.234 69.16L299.774 63.6H294.674V77H298.434ZM325.617 77V73.62H317.477V71.94H325.317V68.58H317.477V66.98H325.617V63.6H313.717V77H325.617ZM330.446 77V72.44H331.986C333.446 72.44 333.846 72.72 334.326 73.72L335.926 77H340.266L338.606 73.64C338.106 72.62 337.666 71.96 336.286 71.6V71.4C338.846 71.08 339.906 69.82 339.906 67.7C339.906 65.08 338.046 63.6 334.506 63.6H326.686V77H330.446ZM330.446 66.98H334.466C335.566 66.98 335.966 67.24 335.966 68.3C335.966 69.44 335.566 69.64 334.466 69.64H330.446V66.98ZM348.066 77.2C352.566 77.2 355.266 75.06 355.266 71.48V71.14H351.066V71.48C351.066 73 350.346 73.6 348.126 73.6C345.406 73.6 344.666 72.96 344.666 70.3C344.666 67.64 345.406 67 348.126 67C350.346 67 351.066 67.6 351.066 69.12V69.46H355.266V69.12C355.266 65.54 352.566 63.4 348.066 63.4C343.406 63.4 340.666 66.12 340.666 70.3C340.666 74.48 343.406 77.2 348.066 77.2ZM360.016 77V63.6H356.256V77H360.016ZM364.637 77L365.677 74.52H372.037L373.057 77H377.377L371.577 63.6H366.197L360.417 77H364.637ZM367.877 69.26L368.737 67H368.997L369.877 69.26L370.657 71.14H367.097L367.877 69.26ZM389.28 77V73.62H381.54V63.6H377.78V77H389.28Z" fill="black"/>
<path d="M186.139 107V103.62H189.799C192.979 103.62 194.979 101.78 194.979 98.6C194.979 95.42 192.979 93.6 189.799 93.6H182.379V107H186.139ZM189.379 96.98C190.699 96.98 191.239 97.24 191.239 98.6C191.239 99.98 190.699 100.24 189.379 100.24H186.139V96.98H189.379ZM199.538 107V102.44H201.078C202.538 102.44 202.938 102.72 203.418 103.72L205.018 107H209.358L207.698 103.64C207.198 102.62 206.758 101.96 205.378 101.6V101.4C207.938 101.08 208.998 99.82 208.998 97.7C208.998 95.08 207.138 93.6 203.598 93.6H195.778V107H199.538ZM199.538 96.98H203.558C204.658 96.98 205.058 97.24 205.058 98.3C205.058 99.44 204.658 99.64 203.558 99.64H199.538V96.98ZM217.177 107.2C221.957 107.2 224.677 104.48 224.677 100.3C224.677 96.12 221.957 93.4 217.177 93.4C212.517 93.4 209.757 96.12 209.757 100.3C209.757 104.48 212.517 107.2 217.177 107.2ZM217.177 103.6C214.457 103.6 213.757 102.96 213.757 100.3C213.757 97.64 214.457 97 217.177 97C219.897 97 220.677 97.64 220.677 100.3C220.677 102.96 219.897 103.6 217.177 103.6ZM231.54 107.2C236.14 107.2 237.84 105.2 237.84 101.46V93.6H233.84V101.42C233.84 103.08 233.68 103.56 231.54 103.56C229.38 103.56 229.28 103.04 229.28 101.22V100.74H225.28V101.26C225.28 105.14 226.96 107.2 231.54 107.2ZM250.861 107V103.62H242.721V101.94H250.561V98.58H242.721V96.98H250.861V93.6H238.961V107H250.861ZM259.13 107.2C263.63 107.2 266.33 105.06 266.33 101.48V101.14H262.13V101.48C262.13 103 261.41 103.6 259.19 103.6C256.47 103.6 255.73 102.96 255.73 100.3C255.73 97.64 256.47 97 259.19 97C261.41 97 262.13 97.6 262.13 99.12V99.46H266.33V99.12C266.33 95.54 263.63 93.4 259.13 93.4C254.47 93.4 251.73 96.12 251.73 100.3C251.73 104.48 254.47 107.2 259.13 107.2ZM275.521 107V96.98H280.241V93.6H267.021V96.98H271.761V107H275.521ZM287.649 107.2C292.169 107.2 293.929 105.16 293.929 102.86C293.929 101.14 293.049 99.46 289.769 98.98L285.569 98.36C284.849 98.26 284.609 98.06 284.609 97.64C284.609 97.06 285.029 96.8 286.949 96.8C289.469 96.8 289.889 97.12 289.889 98.08V98.38H293.649V98.26C293.649 95.26 291.609 93.4 287.349 93.4C282.509 93.4 280.849 95.64 280.849 97.78C280.849 99.94 282.109 101.28 284.609 101.62L288.809 102.18C289.909 102.32 290.169 102.52 290.169 103C290.169 103.6 289.929 103.78 287.649 103.78C285.129 103.78 284.809 103.54 284.809 102.64V102.22H281.049V102.34C281.049 105.74 283.549 107.2 287.649 107.2Z" fill="#FF9000"/>
<path d="M332.241 336.183C325.661 342.965 319.774 346.952 315.266 349.961C271.305 379.315 221.053 370.854 205.516 367.963C180.449 363.297 159.29 360.006 141.11 343.581C99.7988 306.258 101.809 228.401 133.375 180.172C137.117 174.453 168.636 127.732 218.997 121.149C220.228 120.988 221.148 120.897 221.953 120.811C229.744 119.987 278.021 115.633 317.388 148.614C323.023 153.335 332.091 161.85 340.5 174.838C371.247 222.326 371.345 295.876 332.241 336.183Z" fill="url(#paint0_linear_202_3140)"/>
<path d="M308.4 211.812L330.824 206.592C330.824 206.592 345.816 205.244 347.844 218.57C349.871 231.895 349.283 310.842 348.649 327.124C348.44 332.49 348.465 337.449 348.922 341.773C349.874 350.779 342.847 358.646 333.792 358.803L292.047 359.526L308.4 211.812Z" fill="url(#paint1_linear_202_3140)"/>
<path d="M296.473 365.941C296.473 365.941 300.952 303.131 332.813 264.844C333.228 264.345 333.947 264.469 334.167 265.084C337.64 274.783 357.153 337.155 296.473 365.941Z" fill="#008080"/>
<path d="M331.437 283.071C331.168 286.735 330.638 290.351 330.023 293.961C329.388 297.565 328.641 301.15 327.762 304.705C326.008 311.816 323.815 318.827 321.117 325.651C319.757 329.057 318.314 332.434 316.7 335.73C315.917 337.389 315.044 339.006 314.207 340.638C313.318 342.244 312.45 343.861 311.487 345.426C307.758 351.746 303.39 357.703 298.403 363.064C298.255 363.223 298.005 363.233 297.845 363.084C297.694 362.944 297.678 362.714 297.8 362.554L297.804 362.549C302.241 356.798 306.239 350.752 309.705 344.406C310.599 342.835 311.394 341.209 312.245 339.616C313.036 337.99 313.862 336.383 314.599 334.732C314.968 333.908 315.369 333.098 315.727 332.268L316.819 329.785C317.177 328.955 317.513 328.116 317.86 327.282C318.212 326.45 318.541 325.607 318.865 324.764C319.539 323.086 320.165 321.389 320.797 319.694C321.4 317.988 322.003 316.283 322.566 314.563C323.728 311.134 324.761 307.662 325.758 304.179C326.734 300.69 327.642 297.178 328.457 293.644C329.288 290.115 330.025 286.551 330.652 282.986L330.654 282.975C330.691 282.76 330.896 282.616 331.111 282.654C331.312 282.688 331.45 282.871 331.437 283.071Z" fill="url(#paint2_linear_202_3140)"/>
<path d="M300.418 359.066C300.418 359.066 333.262 303.82 368.996 302.955C369.63 302.94 370.111 303.522 369.98 304.142C368.46 311.364 357.82 349.167 300.418 359.066Z" fill="#008080"/>
<path d="M361.434 311.72C359.269 313.993 357.039 316.18 354.779 318.346C353.637 319.415 352.495 320.483 351.341 321.54C350.178 322.584 349.027 323.645 347.852 324.677C343.164 328.817 338.328 332.794 333.366 336.604C330.904 338.535 328.353 340.348 325.836 342.205L321.985 344.888C321.342 345.333 320.704 345.785 320.054 346.22L318.088 347.502C312.896 350.997 307.47 354.13 302.005 357.173C301.814 357.279 301.574 357.21 301.468 357.02C301.363 356.832 301.429 356.596 301.613 356.487L301.623 356.482L305.656 354.117L307.671 352.934C308.337 352.53 308.991 352.106 309.651 351.693L313.613 349.213C314.918 348.363 316.208 347.488 317.506 346.627L319.45 345.331L321.364 343.991L325.19 341.307C327.691 339.448 330.225 337.634 332.672 335.703C335.151 333.815 337.576 331.857 340.002 329.902L343.596 326.912L347.145 323.87C348.328 322.854 349.484 321.811 350.655 320.782C351.816 319.741 352.964 318.689 354.113 317.636C356.401 315.523 358.675 313.381 360.858 311.173L360.864 311.167C361.017 311.012 361.267 311.011 361.422 311.164C361.579 311.319 361.582 311.565 361.434 311.72Z" fill="#BDD0FB"/>
<path d="M262.814 212.896C262.814 212.896 303.643 215.139 330.822 206.592C330.822 206.592 312.753 205.354 312.753 247.07C312.753 278.964 317.483 339.841 313.353 351.397C309.223 362.953 293.78 378.487 271.643 365.137C249.507 351.787 262.814 212.896 262.814 212.896Z" fill="#FFAE45"/>
<path d="M251.961 150.354C251.961 150.354 297.009 155.264 302.813 147.629C302.813 147.629 298.196 133.887 284.487 134.801C270.778 135.716 251.961 150.354 251.961 150.354Z" fill="#CD7400"/>
<path d="M105.446 165.815C109.375 209.962 117.626 303.341 121.215 348.828C122.016 358.968 130.144 366.978 140.295 367.63C176.455 369.951 257.834 374.454 289.064 370.265C281.91 366.738 277.405 359.428 277.47 351.453L279.129 147.34C279.187 140.128 286.371 134.945 293.125 137.476C297.38 139.07 300.602 142.467 302.812 147.63C299.863 139.038 295.226 132.752 284.486 134.802C284.486 134.802 179.445 135.852 128.473 139.013C114.623 139.871 104.217 151.992 105.446 165.815Z" fill="#FF9000"/>
<mask id="mask0_202_3140" style="mask-type:alpha" maskUnits="userSpaceOnUse" x="109" y="139" width="171" height="230">
<path d="M131.43 144.853L272.574 139.419C266.752 182.517 269.209 270.282 271.43 356.776C271.562 361.903 274.569 366.518 279.207 368.71C279.207 368.71 185.065 369.795 144.614 366.926C135.09 366.25 127.32 359.044 125.905 349.601C120.352 312.543 107.066 216.81 109.831 166.128C110.466 154.52 119.815 145.3 131.43 144.853Z" fill="url(#paint3_linear_202_3140)"/>
</mask>
<g mask="url(#mask0_202_3140)">
<path d="M131.43 144.854L272.574 139.42C266.752 182.518 269.209 270.283 271.43 356.777C271.562 361.904 274.569 366.519 279.207 368.711C279.207 368.711 185.065 369.796 144.614 366.927C135.09 366.251 127.32 359.045 125.905 349.602C120.352 312.544 107.066 216.811 109.831 166.129C110.466 154.521 119.815 145.301 131.43 144.854Z" fill="url(#paint4_linear_202_3140)"/>
<path d="M129.567 211.702L131.214 227.511C131.517 230.409 133.903 232.645 136.814 232.756L146.019 233.109C149.339 233.237 152.099 230.58 152.099 227.257V210.202C152.099 206.778 149.176 204.085 145.763 204.365L134.912 205.257C131.639 205.528 129.227 208.436 129.567 211.702Z" fill="url(#paint5_linear_202_3140)"/>
<path d="M161.934 206.83C177.253 206.354 236.064 204.442 250.914 203.958C252.788 203.897 254.336 205.399 254.336 207.273C254.336 209.057 252.925 210.521 251.142 210.587L162.219 213.889C160.505 213.953 159.026 212.701 158.806 211.001L158.751 210.571C158.498 208.627 159.975 206.89 161.934 206.83Z" fill="url(#paint6_linear_202_3140)"/>
<path d="M160.973 227.671C161.233 228.107 161.707 228.37 162.215 228.359L223.274 227.033C224.041 227.017 224.655 226.39 224.655 225.622V221.597C224.655 220.797 223.99 220.157 223.191 220.187L163.834 222.406C161.191 222.505 159.618 225.399 160.973 227.671Z" fill="url(#paint7_linear_202_3140)"/>
<path d="M129.567 255.58L131.214 271.389C131.517 274.287 133.903 276.523 136.814 276.634L146.019 276.987C149.339 277.115 152.099 274.458 152.099 271.135V254.08C152.099 250.656 149.176 247.963 145.763 248.243L134.912 249.135C131.639 249.407 129.227 252.314 129.567 255.58Z" fill="url(#paint8_linear_202_3140)"/>
<path d="M161.934 250.708C177.253 250.232 236.064 248.32 250.914 247.836C252.788 247.774 254.336 249.277 254.336 251.151C254.336 252.935 252.925 254.399 251.142 254.465L162.219 257.766C160.505 257.83 159.026 256.578 158.806 254.878L158.751 254.448C158.498 252.505 159.975 250.769 161.934 250.708Z" fill="url(#paint9_linear_202_3140)"/>
<path opacity="0.78" d="M160.973 271.55C161.233 271.986 161.707 272.249 162.215 272.238L223.274 270.912C224.041 270.896 224.655 270.269 224.655 269.502V265.476C224.655 264.677 223.99 264.037 223.191 264.066L163.834 266.286C161.191 266.383 159.618 269.277 160.973 271.55Z" fill="white"/>
<path d="M129.567 299.459L131.214 315.268C131.517 318.166 133.903 320.401 136.814 320.513L146.019 320.866C149.339 320.994 152.099 318.337 152.099 315.014V297.959C152.099 294.535 149.176 291.842 145.763 292.122L134.912 293.014C131.639 293.284 129.227 296.192 129.567 299.459Z" fill="url(#paint10_linear_202_3140)"/>
<path d="M161.934 294.586C177.253 294.11 236.064 292.198 250.914 291.715C252.788 291.654 254.336 293.155 254.336 295.03C254.336 296.814 252.925 298.278 251.142 298.344L162.219 301.645C160.505 301.708 159.026 300.457 158.806 298.757L158.751 298.327C158.498 296.384 159.975 294.647 161.934 294.586Z" fill="url(#paint11_linear_202_3140)"/>
<path d="M160.973 315.428C161.233 315.863 161.707 316.126 162.215 316.116L223.274 314.789C224.041 314.773 224.655 314.146 224.655 313.379V309.354C224.655 308.554 223.99 307.914 223.191 307.944L163.834 310.163C161.191 310.262 159.618 313.156 160.973 315.428Z" fill="url(#paint12_linear_202_3140)"/>
<path d="M207.378 360.023C206.681 360.023 205.984 359.694 205.247 359.017C202.541 356.531 201.842 352.71 201.652 349.076C200.403 350.474 199.126 351.835 197.863 353.181L197.164 352.525C198.647 350.944 200.151 349.342 201.601 347.688C201.481 342.71 201.711 337.679 202.284 332.732C202.635 329.698 203.142 326.488 204.457 323.559C204.876 322.626 205.571 321.288 206.768 320.451C208.017 319.577 209.653 319.482 210.749 320.218C211.981 321.046 212.313 322.614 212.455 323.722C213.292 330.231 210.752 336.198 208.475 340.057C206.783 342.922 204.736 345.543 202.568 348.036C202.68 351.756 203.196 355.832 205.895 358.311C206.463 358.833 206.958 359.081 207.422 359.063C208.183 359.036 208.798 358.298 209.3 357.58C211.582 354.311 213.356 350.768 214.597 347.01C214.742 345.879 215.058 344.77 215.539 343.735L216.439 344.05C216.178 345.123 215.877 346.181 215.536 347.222C215.409 348.287 215.448 349.37 215.659 350.423C215.771 350.983 216.243 352.829 217.606 353.089C218.624 353.281 219.684 352.513 220.854 350.733L225.654 343.437L225.047 346.049C224.833 346.972 224.474 349.173 225.761 349.702C226.493 350.004 227.268 349.568 228.165 349.062C229.056 348.56 229.977 348.04 231.024 348.18L231.518 348.246L231.434 348.737C231.385 349.018 230.997 351.488 232.278 351.771C232.865 351.901 233.355 351.494 234.094 350.811C234.675 350.273 235.276 349.719 236.067 349.527L236.292 350.459C235.744 350.591 235.26 351.039 234.746 351.514C234.017 352.189 233.192 352.953 232.072 352.707C230.613 352.384 230.255 350.741 230.412 349.137C229.838 349.22 229.25 349.552 228.636 349.898C227.663 350.446 226.559 351.067 225.397 350.589C224.438 350.195 223.919 349.243 223.88 347.88L221.656 351.26C220.759 352.625 219.346 354.399 217.427 354.032C216.11 353.782 215.097 352.503 214.718 350.613C214.666 350.35 214.622 350.084 214.59 349.818C213.413 352.741 211.907 355.522 210.085 358.13C209.485 358.99 208.645 359.981 207.456 360.024C207.43 360.022 207.403 360.023 207.378 360.023ZM209.046 320.676C208.416 320.676 207.78 320.912 207.318 321.236C206.316 321.936 205.705 323.122 205.331 323.952C204.07 326.761 203.579 329.886 203.236 332.842C202.708 337.392 202.475 342.015 202.539 346.6C204.417 344.386 206.176 342.067 207.65 339.569C209.852 335.84 212.308 330.083 211.506 323.844C211.317 322.378 210.907 321.479 210.216 321.014C209.86 320.775 209.454 320.676 209.046 320.676Z" fill="url(#paint13_linear_202_3140)"/>
<path opacity="0.78" d="M249.447 187.076L137.008 190.412C132.969 190.532 129.577 187.398 129.379 183.362L128.966 174.951C128.763 170.794 132.018 167.282 136.179 167.172L249.178 164.184C253.403 164.073 256.867 167.508 256.79 171.733L256.644 179.796C256.572 183.754 253.405 186.958 249.447 187.076Z" fill="white"/>
</g>
<path d="M214.031 275.664C214.031 275.664 210.281 273.204 209.762 273.771C209.576 273.973 209.145 274.659 208.743 275.407C208.459 275.935 208.547 276.586 208.964 277.017L209.931 278.016C210.852 278.968 212.411 278.9 213.224 277.854C213.634 277.326 213.961 276.615 214.031 275.664Z" fill="url(#paint14_linear_202_3140)"/>
<path d="M217.849 270.99C217.849 270.99 216.562 267.602 215.059 267.913C213.556 268.223 211.911 269.378 211.911 269.378L209.496 272.644C209.496 272.644 216.275 275.314 218.66 273.784C218.66 273.784 225.584 274.981 234.329 273.546C233.063 270.874 232.308 268.198 231.866 266.121C227.436 268.628 222.666 270.501 217.849 270.99Z" fill="url(#paint15_linear_202_3140)"/>
<path d="M254.528 246.417C254.528 246.417 244.614 258.905 231.863 266.122C232.307 268.199 233.061 270.874 234.326 273.547C240.94 272.461 248.595 269.872 255.084 264.117L254.528 246.417Z" fill="#008080"/>
<path d="M266.896 301.764C264.957 292.554 263.018 287.222 256.526 269.766C254.483 264.273 252.628 258.714 253.525 252.922L254.532 246.417C254.532 246.417 267.148 242.148 281.133 246.238C281.133 246.238 300.214 254.527 287.254 295.462C281.412 301.998 274.577 303.861 266.896 301.764Z" fill="#008080"/>
<path d="M256.68 238.115L259.951 245.974C260.157 246.47 260.604 246.824 261.134 246.915C263.02 247.238 267.582 247.743 270.578 245.773C270.935 245.538 271.026 245.054 270.781 244.703L264.737 236.025L256.68 238.115Z" fill="url(#paint16_linear_202_3140)"/>
<path d="M260.06 226.09C259.923 226.22 254.262 237.337 254.262 237.337L260.678 240.434L267.609 230.695C267.609 230.695 262.36 223.925 260.06 226.09Z" fill="url(#paint17_linear_202_3140)"/>
<path d="M264.692 231.864L261.492 237.198C261.443 237.279 261.385 237.353 261.316 237.417C260.935 237.771 259.632 238.803 258.624 237.399C257.765 236.202 256.959 235.115 256.096 234.665C255.592 234.403 254.971 234.613 254.714 235.12C254.187 236.166 253.166 238.295 252.524 240.316C252.363 240.822 252.625 241.366 253.117 241.566C254.417 242.092 256.984 243.044 259.263 243.359C259.637 243.41 260.008 243.252 260.231 242.947C261.21 241.604 263.974 237.85 264.917 236.911C265.794 236.039 267.41 236.367 268.139 236.577C268.416 236.657 268.711 236.619 268.957 236.47C269.696 236.024 270.986 234.916 269.807 233.038C269.513 232.572 269.663 231.95 270.123 231.647C270.949 231.103 271.844 230.085 270.991 228.434C270.127 226.763 268.585 226.613 267.534 226.742C267.069 226.799 266.597 226.555 266.419 226.122C266.339 225.929 266.182 225.765 265.891 225.706C265.34 225.595 264.979 225.091 265.086 224.539C265.272 223.594 265.132 222.365 263.623 221.536C260.854 220.014 258.429 222.494 257.813 224.587C257.196 226.681 260.292 228.161 262.238 228.407C263.669 228.589 264.453 230.149 264.769 230.965C264.883 231.261 264.855 231.591 264.692 231.864Z" fill="url(#paint18_linear_202_3140)"/>
<path d="M263.566 238.507C263.566 238.507 264.944 235.267 266.519 235.399C268.095 235.531 269.335 237.101 267.382 238.866C264.953 241.061 263.566 238.507 263.566 238.507Z" fill="url(#paint19_linear_202_3140)"/>
<path d="M265.651 382.929C268.699 383.192 273.988 383.62 278.156 383.803C280.662 383.913 282.105 383.668 282.936 383.336C282.935 383.43 282.932 383.518 282.928 383.6C282.908 384.038 282.552 384.39 282.109 384.415C274.23 384.854 267.966 384.567 265.735 384.431C265.273 384.403 264.999 383.902 265.235 383.508C265.354 383.312 265.497 383.12 265.651 382.929Z" fill="url(#paint20_linear_202_3140)"/>
<path d="M278.161 383.804C273.991 383.621 268.703 383.193 265.656 382.93C268.652 379.255 278.161 376.777 278.161 376.777H280.846C282.693 379.44 282.961 381.975 282.941 383.337C282.11 383.669 280.667 383.915 278.161 383.804Z" fill="url(#paint21_linear_202_3140)"/>
<path d="M281.295 372.392L281.044 377.365C281.017 377.903 280.614 378.356 280.075 378.433C279.538 378.51 278.819 378.52 278.057 378.266C277.589 378.11 277.24 377.715 277.154 377.233L276.285 372.392H281.295Z" fill="url(#paint22_linear_202_3140)"/>
<path d="M316.18 383.767C317.501 383.583 318.099 382.897 318.35 382.163C318.352 382.169 318.354 382.176 318.355 382.183C318.548 382.957 318.098 383.759 317.197 384.141C316.108 384.602 314.917 384.68 313.992 384.643C313.001 384.602 312.09 384.192 311.59 383.534L311.582 383.525C312.578 384.017 313.976 384.075 316.18 383.767Z" fill="url(#paint23_linear_202_3140)"/>
<path d="M309.945 372.361H312.16C315.533 372.292 317.652 379.408 318.345 382.163C318.094 382.897 317.496 383.583 316.174 383.767C313.971 384.075 312.573 384.017 311.578 383.525C309.755 381.126 308.852 377.614 308.417 375.564C307.925 373.231 309.945 372.361 309.945 372.361Z" fill="url(#paint24_linear_202_3140)"/>
<path d="M311.875 367.744L313.104 372.635C313.255 373.235 312.968 373.855 312.413 374.14C311.725 374.493 310.757 374.864 309.867 374.757C309.448 374.706 309.1 374.412 308.962 374.017L307.156 368.87L311.875 367.744Z" fill="url(#paint25_linear_202_3140)"/>
<path d="M313.345 369.157C311.815 370.514 306.838 370.694 306.838 370.694C288.91 327.666 281.436 315.821 281.436 315.821C284.025 332.062 281.994 373.749 281.994 373.749C279.036 375.054 275.221 373.749 275.221 373.749C274.981 347.161 271.238 318.591 266.41 300.31C278.527 300.037 285.112 297.396 287.216 295.732C297.316 312.016 313.345 369.157 313.345 369.157Z" fill="url(#paint26_linear_202_3140)"/>
<path d="M263.363 312.333L265.593 326.201C265.982 328.618 268.222 330.296 270.664 329.998L304.034 325.927C305.667 325.728 306.905 324.364 306.937 322.728C307.009 319.145 306.868 312.768 305.364 306.958L263.363 312.333Z" fill="url(#paint27_linear_202_3140)"/>
<path d="M271.788 329.069C271.733 329.069 271.686 329.028 271.678 328.973C271.671 328.913 271.714 328.858 271.774 328.851L272.646 328.745C272.709 328.738 272.761 328.78 272.768 328.84C272.775 328.9 272.732 328.955 272.673 328.962L271.801 329.068C271.796 329.068 271.792 329.069 271.788 329.069ZM269.754 329.031C269.745 329.031 269.737 329.03 269.727 329.027C269.437 328.955 269.152 328.853 268.881 328.724C268.827 328.699 268.804 328.632 268.829 328.579C268.856 328.524 268.923 328.501 268.975 328.527C269.233 328.65 269.503 328.746 269.78 328.815C269.838 328.829 269.875 328.889 269.859 328.948C269.848 328.997 269.803 329.031 269.754 329.031ZM274.693 328.714C274.638 328.714 274.591 328.673 274.584 328.617C274.576 328.557 274.619 328.502 274.68 328.495L275.551 328.389C275.61 328.38 275.665 328.424 275.673 328.485C275.681 328.544 275.638 328.6 275.577 328.606L274.706 328.713C274.702 328.714 274.698 328.714 274.693 328.714ZM277.599 328.36C277.545 328.36 277.498 328.318 277.491 328.264C277.483 328.203 277.526 328.149 277.586 328.142L278.458 328.035C278.521 328.026 278.573 328.071 278.579 328.131C278.587 328.192 278.544 328.246 278.484 328.253L277.613 328.36C277.608 328.36 277.603 328.36 277.599 328.36ZM280.505 328.006C280.45 328.006 280.403 327.964 280.396 327.91C280.389 327.849 280.432 327.794 280.491 327.788L281.363 327.681C281.426 327.674 281.478 327.717 281.485 327.776C281.492 327.837 281.449 327.891 281.39 327.898L280.518 328.005C280.513 328.005 280.509 328.006 280.505 328.006ZM283.41 327.651C283.355 327.651 283.308 327.61 283.302 327.555C283.294 327.495 283.337 327.44 283.397 327.433L284.268 327.327C284.332 327.318 284.383 327.362 284.39 327.423C284.398 327.483 284.355 327.538 284.294 327.545L283.423 327.651C283.419 327.65 283.415 327.651 283.41 327.651ZM267.348 327.461C267.316 327.461 267.283 327.447 267.262 327.418C267.079 327.181 266.919 326.924 266.788 326.654C266.761 326.599 266.784 326.534 266.839 326.507C266.894 326.481 266.959 326.503 266.986 326.558C267.11 326.814 267.262 327.059 267.436 327.284C267.473 327.332 267.465 327.401 267.417 327.437C267.396 327.454 267.372 327.461 267.348 327.461ZM286.316 327.296C286.261 327.296 286.214 327.255 286.207 327.2C286.199 327.14 286.243 327.085 286.302 327.078L287.174 326.972C287.237 326.962 287.289 327.007 287.296 327.068C287.303 327.128 287.26 327.183 287.2 327.19L286.328 327.296C286.324 327.296 286.32 327.296 286.316 327.296ZM289.221 326.942C289.166 326.942 289.119 326.901 289.113 326.846C289.105 326.786 289.148 326.731 289.208 326.724L290.079 326.618C290.138 326.611 290.193 326.653 290.201 326.713C290.209 326.773 290.165 326.828 290.105 326.835L289.233 326.941C289.231 326.942 289.226 326.942 289.221 326.942ZM292.127 326.588C292.073 326.588 292.026 326.547 292.018 326.492C292.01 326.431 292.053 326.377 292.114 326.37L292.985 326.263C293.049 326.256 293.101 326.299 293.107 326.359C293.115 326.42 293.072 326.475 293.012 326.481L292.141 326.588C292.136 326.588 292.131 326.588 292.127 326.588ZM295.033 326.233C294.978 326.233 294.931 326.191 294.924 326.137C294.917 326.076 294.96 326.022 295.019 326.015L295.891 325.908C295.954 325.899 296.006 325.944 296.013 326.004C296.02 326.065 295.977 326.119 295.918 326.126L295.046 326.233C295.041 326.233 295.037 326.233 295.033 326.233ZM297.938 325.879C297.883 325.879 297.836 325.837 297.83 325.783C297.822 325.722 297.865 325.667 297.926 325.661L298.797 325.554C298.861 325.547 298.912 325.59 298.919 325.649C298.927 325.71 298.884 325.764 298.824 325.771L297.953 325.878C297.947 325.879 297.943 325.879 297.938 325.879ZM300.844 325.524C300.789 325.524 300.742 325.483 300.735 325.428C300.727 325.368 300.771 325.313 300.83 325.307L301.702 325.2C301.765 325.192 301.817 325.235 301.824 325.295C301.831 325.355 301.788 325.41 301.728 325.417L300.856 325.523C300.852 325.524 300.848 325.524 300.844 325.524ZM303.736 325.102C303.691 325.102 303.648 325.073 303.633 325.028C303.613 324.971 303.643 324.908 303.701 324.889C303.968 324.797 304.221 324.668 304.453 324.506C304.502 324.471 304.571 324.483 304.606 324.533C304.641 324.583 304.629 324.651 304.579 324.686C304.33 324.859 304.058 324.997 303.772 325.096C303.76 325.1 303.748 325.102 303.736 325.102ZM266.382 324.74C266.329 324.74 266.282 324.702 266.273 324.648L266.134 323.781C266.125 323.722 266.165 323.665 266.225 323.656C266.286 323.646 266.342 323.686 266.351 323.747L266.49 324.614C266.5 324.673 266.46 324.73 266.399 324.739C266.393 324.739 266.388 324.74 266.382 324.74ZM305.709 323.084C305.698 323.084 305.687 323.082 305.676 323.078C305.619 323.06 305.586 322.998 305.605 322.941C305.69 322.672 305.737 322.392 305.743 322.107C305.745 322.048 305.794 322 305.853 322C305.854 322 305.855 322 305.856 322C305.916 322.002 305.964 322.052 305.963 322.112C305.956 322.416 305.906 322.718 305.814 323.006C305.798 323.054 305.755 323.084 305.709 323.084ZM265.918 321.85C265.866 321.85 265.819 321.812 265.81 321.758L265.671 320.891C265.661 320.832 265.701 320.775 265.762 320.766C265.824 320.755 265.878 320.797 265.888 320.857L266.027 321.723C266.036 321.783 265.996 321.84 265.936 321.849C265.93 321.849 265.923 321.85 265.918 321.85ZM305.864 320.171C305.804 320.171 305.755 320.122 305.755 320.062C305.752 319.779 305.748 319.486 305.742 319.185C305.741 319.124 305.789 319.074 305.849 319.072C305.914 319.062 305.959 319.119 305.961 319.18C305.968 319.482 305.972 319.776 305.975 320.06C305.974 320.122 305.926 320.171 305.864 320.171ZM265.453 318.96C265.4 318.96 265.353 318.922 265.344 318.868L265.205 318.001C265.196 317.942 265.236 317.885 265.296 317.876C265.357 317.867 265.412 317.906 265.422 317.967L265.561 318.833C265.571 318.893 265.531 318.95 265.47 318.959C265.464 318.959 265.459 318.96 265.453 318.96ZM305.778 317.245C305.72 317.245 305.671 317.2 305.669 317.14C305.654 316.853 305.637 316.562 305.619 316.265C305.615 316.204 305.661 316.152 305.721 316.148C305.794 316.153 305.835 316.19 305.838 316.251C305.858 316.548 305.874 316.841 305.888 317.129C305.891 317.189 305.845 317.241 305.785 317.244C305.782 317.245 305.78 317.245 305.778 317.245ZM264.988 316.07C264.935 316.07 264.888 316.032 264.88 315.978L264.741 315.111C264.731 315.052 264.771 314.995 264.832 314.985C264.894 314.976 264.948 315.017 264.958 315.077L265.097 315.943C265.106 316.003 265.066 316.06 265.006 316.069C265 316.069 264.994 316.07 264.988 316.07ZM305.564 314.325C305.508 314.325 305.46 314.283 305.455 314.226C305.427 313.938 305.396 313.647 305.363 313.355C305.357 313.294 305.4 313.241 305.46 313.234C305.52 313.226 305.575 313.27 305.581 313.331C305.615 313.624 305.645 313.916 305.673 314.206C305.679 314.267 305.635 314.32 305.575 314.326C305.571 314.324 305.568 314.325 305.564 314.325ZM264.524 313.18C264.471 313.18 264.424 313.142 264.415 313.088L264.258 312.109L265.062 312.006C265.125 311.997 265.177 312.042 265.185 312.101C265.193 312.162 265.15 312.216 265.09 312.224L264.511 312.298L264.632 313.053C264.642 313.113 264.601 313.17 264.541 313.179C264.535 313.179 264.529 313.18 264.524 313.18ZM267.109 311.964C267.054 311.964 267.007 311.924 267 311.868C266.992 311.808 267.035 311.753 267.095 311.745L267.967 311.634C268.037 311.625 268.082 311.669 268.089 311.729C268.097 311.789 268.055 311.844 267.994 311.852L267.123 311.963C267.117 311.964 267.113 311.964 267.109 311.964ZM270.012 311.593C269.957 311.593 269.91 311.552 269.904 311.497C269.896 311.436 269.938 311.381 269.999 311.374L270.869 311.262C270.938 311.254 270.984 311.297 270.992 311.357C271 311.418 270.957 311.473 270.897 311.48L270.025 311.592C270.022 311.593 270.017 311.593 270.012 311.593ZM305.206 311.42C305.152 311.42 305.106 311.38 305.097 311.327C305.054 311.039 305.007 310.75 304.958 310.461C304.949 310.401 304.989 310.345 305.049 310.334C305.111 310.325 305.166 310.365 305.175 310.424C305.224 310.714 305.271 311.004 305.314 311.294C305.323 311.354 305.283 311.41 305.222 311.419C305.217 311.419 305.212 311.42 305.206 311.42ZM272.915 311.221C272.861 311.221 272.814 311.181 272.806 311.125C272.798 311.065 272.841 311.01 272.901 311.002L273.773 310.891C273.842 310.883 273.888 310.926 273.895 310.986C273.903 311.046 273.861 311.101 273.8 311.109L272.929 311.22C272.925 311.221 272.92 311.221 272.915 311.221ZM275.819 310.85C275.764 310.85 275.717 310.809 275.71 310.754C275.702 310.693 275.744 310.638 275.805 310.631L276.676 310.519C276.744 310.513 276.791 310.555 276.799 310.614C276.807 310.675 276.764 310.73 276.704 310.737L275.832 310.849C275.829 310.85 275.824 310.85 275.819 310.85ZM278.722 310.478C278.668 310.478 278.621 310.438 278.614 310.382C278.606 310.322 278.648 310.267 278.709 310.259L279.58 310.148C279.649 310.142 279.696 310.183 279.703 310.243C279.711 310.303 279.669 310.358 279.608 310.366L278.738 310.477C278.732 310.478 278.727 310.478 278.722 310.478ZM281.626 310.107C281.571 310.107 281.524 310.066 281.516 310.011C281.509 309.95 281.551 309.896 281.611 309.888L282.483 309.777C282.55 309.767 282.598 309.812 282.606 309.872C282.614 309.932 282.571 309.987 282.511 309.994L281.64 310.106C281.635 310.107 281.631 310.107 281.626 310.107ZM284.529 309.735C284.475 309.735 284.428 309.695 284.421 309.639C284.413 309.579 284.455 309.524 284.516 309.516L285.386 309.405C285.449 309.396 285.502 309.44 285.509 309.5C285.517 309.561 285.475 309.615 285.414 309.623L284.543 309.734C284.539 309.735 284.534 309.735 284.529 309.735ZM287.433 309.364C287.378 309.364 287.331 309.323 287.324 309.268C287.317 309.207 287.359 309.153 287.419 309.145L288.291 309.034C288.357 309.026 288.406 309.069 288.414 309.129C288.421 309.189 288.379 309.244 288.319 309.251L287.447 309.363C287.442 309.363 287.438 309.364 287.433 309.364ZM290.336 308.992C290.282 308.992 290.235 308.952 290.227 308.896C290.219 308.836 290.261 308.781 290.322 308.773L291.193 308.662C291.264 308.655 291.309 308.698 291.316 308.757C291.324 308.818 291.282 308.872 291.221 308.88L290.35 308.991C290.346 308.991 290.341 308.992 290.336 308.992ZM293.24 308.62C293.185 308.62 293.138 308.58 293.131 308.524C293.124 308.463 293.166 308.409 293.226 308.401L294.098 308.29C294.167 308.284 294.213 308.325 294.221 308.385C294.228 308.445 294.186 308.5 294.126 308.508L293.254 308.619C293.249 308.62 293.245 308.62 293.24 308.62ZM304.676 308.541C304.625 308.541 304.58 308.507 304.569 308.455C304.506 308.17 304.44 307.885 304.372 307.602C304.357 307.543 304.394 307.483 304.452 307.469C304.513 307.454 304.571 307.491 304.585 307.55C304.654 307.835 304.72 308.121 304.784 308.408C304.796 308.466 304.759 308.526 304.7 308.538C304.692 308.54 304.684 308.541 304.676 308.541ZM296.143 308.249C296.089 308.249 296.042 308.209 296.034 308.153C296.026 308.093 296.068 308.038 296.129 308.031L297 307.919C297.069 307.91 297.116 307.955 297.123 308.014C297.131 308.075 297.089 308.129 297.028 308.137L296.157 308.248C296.153 308.248 296.148 308.249 296.143 308.249ZM299.047 307.877C298.992 307.877 298.945 307.837 298.938 307.781C298.931 307.721 298.973 307.666 299.033 307.658L299.905 307.547C299.973 307.538 300.02 307.582 300.028 307.642C300.035 307.702 299.993 307.757 299.933 307.765L299.062 307.876C299.056 307.877 299.052 307.877 299.047 307.877ZM301.95 307.506C301.896 307.506 301.848 307.465 301.842 307.41C301.834 307.349 301.876 307.294 301.937 307.287L302.807 307.175C302.875 307.167 302.923 307.211 302.93 307.27C302.938 307.331 302.896 307.386 302.835 307.393L301.964 307.505C301.96 307.506 301.955 307.506 301.95 307.506Z" fill="white"/>
<path d="M271.842 300.975L271.805 299.889C271.885 299.618 272.097 299.406 272.369 299.326C273.386 299.028 275.926 298.408 277.285 299.176L277.63 300.399L271.842 300.975Z" fill="url(#paint28_linear_202_3140)"/>
<path d="M274.955 299.527C274.724 299.616 274.484 299.646 274.236 299.618C273.937 299.584 273.699 299.35 273.66 299.053L273.23 295.691L274.942 295.472L275.372 298.832C275.409 299.13 275.237 299.418 274.955 299.527Z" fill="url(#paint29_linear_202_3140)"/>
<path d="M288.42 298.853L288.383 297.766C288.463 297.496 288.676 297.283 288.947 297.204C289.965 296.905 292.504 296.285 293.863 297.053L294.208 298.277L288.42 298.853Z" fill="url(#paint30_linear_202_3140)"/>
<path d="M291.533 297.405C291.301 297.494 291.061 297.524 290.814 297.496C290.514 297.462 290.276 297.228 290.238 296.931L289.762 293.213L291.473 292.995L291.948 296.709C291.988 297.008 291.816 297.297 291.533 297.405Z" fill="url(#paint31_linear_202_3140)"/>
<path d="M273.161 296.536L291.487 293.572C291.904 293.504 292.222 293.156 292.241 292.735C292.268 292.145 292.247 291.272 292 290.395C291.719 289.397 290.748 288.753 289.713 288.861C286.269 289.219 277.529 290.339 272.956 292.861C272.472 293.128 272.15 293.612 272.089 294.159C272.031 294.68 272.036 295.367 272.284 296.034C272.416 296.388 272.786 296.596 273.161 296.536Z" fill="url(#paint32_linear_202_3140)"/>
<path d="M272.712 295.831C272.579 295.831 272.459 295.74 272.427 295.605C272.421 295.574 272.257 294.854 272.356 294.127C272.439 293.531 272.834 293.01 273.39 292.767C274.386 292.331 276.299 291.562 277.918 291.308C278.079 291.287 278.227 291.393 278.253 291.552C278.277 291.711 278.168 291.861 278.009 291.887C276.398 292.14 274.407 292.962 273.625 293.304C273.255 293.466 272.992 293.813 272.937 294.208C272.853 294.825 272.997 295.467 272.998 295.474C273.035 295.631 272.936 295.789 272.779 295.824C272.757 295.829 272.735 295.831 272.712 295.831Z" fill="url(#paint33_linear_202_3140)"/>
<path d="M263.25 301.648C269.185 300.811 294.872 297.251 302.459 297.196C303.112 297.191 303.697 297.594 303.917 298.207C304.614 300.146 306.096 304.669 306.578 309.278C306.644 309.906 306.253 310.491 305.65 310.688L289.009 316.097L282.95 316.872L264.316 315.585C263.66 315.54 263.117 315.058 263.001 314.413C262.588 312.116 261.708 306.714 261.887 303.142C261.925 302.383 262.493 301.755 263.25 301.648Z" fill="url(#paint34_linear_202_3140)"/>
<path d="M282.924 315.492L282.026 315.433C281.966 315.428 281.92 315.376 281.924 315.316C281.929 315.255 281.986 315.214 282.042 315.214L282.918 315.274L283.387 315.212C283.457 315.206 283.502 315.247 283.51 315.307C283.518 315.367 283.476 315.422 283.415 315.43L282.924 315.492ZM279.988 315.292C279.986 315.292 279.984 315.292 279.981 315.292L279.104 315.231C279.044 315.226 278.998 315.175 279.003 315.114C279.008 315.054 279.063 315.011 279.12 315.012L279.996 315.073C280.057 315.078 280.103 315.129 280.098 315.19C280.094 315.247 280.046 315.292 279.988 315.292ZM285.433 315.171C285.378 315.171 285.331 315.13 285.323 315.075C285.316 315.014 285.358 314.96 285.418 314.952L286.29 314.84C286.359 314.832 286.405 314.876 286.413 314.936C286.42 314.996 286.378 315.051 286.318 315.058L285.447 315.17C285.441 315.171 285.436 315.171 285.433 315.171ZM277.069 315.09C277.066 315.09 277.064 315.09 277.061 315.09L276.185 315.03C276.124 315.025 276.078 314.973 276.083 314.912C276.088 314.852 276.142 314.809 276.2 314.811L277.076 314.871C277.137 314.876 277.183 314.928 277.178 314.988C277.174 315.046 277.126 315.09 277.069 315.09ZM274.149 314.888C274.146 314.888 274.144 314.888 274.141 314.888L273.265 314.828C273.204 314.823 273.158 314.771 273.163 314.711C273.168 314.65 273.221 314.607 273.28 314.609L274.157 314.67C274.217 314.674 274.263 314.726 274.258 314.787C274.254 314.844 274.206 314.888 274.149 314.888ZM288.336 314.799C288.281 314.799 288.234 314.759 288.228 314.703C288.22 314.643 288.262 314.588 288.323 314.58L288.672 314.536L289.153 314.378C289.21 314.361 289.273 314.391 289.291 314.448C289.31 314.506 289.278 314.568 289.221 314.586L288.72 314.748L288.351 314.797C288.345 314.799 288.34 314.799 288.336 314.799ZM271.228 314.687C271.225 314.687 271.223 314.687 271.22 314.687L270.344 314.626C270.284 314.622 270.238 314.57 270.242 314.509C270.247 314.449 270.3 314.412 270.359 314.408L271.236 314.468C271.296 314.473 271.342 314.525 271.338 314.585C271.334 314.643 271.286 314.687 271.228 314.687ZM268.308 314.485C268.305 314.485 268.304 314.485 268.301 314.485L267.424 314.425C267.364 314.42 267.318 314.368 267.323 314.308C267.327 314.247 267.379 314.21 267.44 314.206L268.316 314.267C268.376 314.271 268.423 314.323 268.418 314.384C268.414 314.441 268.366 314.485 268.308 314.485ZM265.388 314.284C265.385 314.284 265.383 314.284 265.38 314.284L264.504 314.223C264.443 314.219 264.397 314.167 264.402 314.106C264.407 314.046 264.464 314.008 264.519 314.004L265.395 314.065C265.456 314.07 265.502 314.122 265.497 314.182C265.493 314.24 265.445 314.284 265.388 314.284ZM291.134 313.958C291.088 313.958 291.045 313.929 291.029 313.883C291.01 313.825 291.043 313.763 291.099 313.744L291.934 313.473C291.992 313.455 292.054 313.486 292.073 313.543C292.092 313.6 292.059 313.663 292.002 313.681L291.167 313.953C291.157 313.956 291.145 313.958 291.134 313.958ZM293.918 313.053C293.872 313.053 293.829 313.024 293.814 312.977C293.795 312.92 293.827 312.858 293.884 312.839L294.719 312.568C294.776 312.55 294.839 312.581 294.857 312.638C294.876 312.695 294.844 312.758 294.787 312.776L293.952 313.048C293.94 313.051 293.929 313.053 293.918 313.053ZM264.123 312.254C264.07 312.254 264.024 312.215 264.015 312.161C263.971 311.883 263.927 311.592 263.882 311.29C263.873 311.231 263.914 311.174 263.975 311.165C264.032 311.156 264.091 311.198 264.099 311.258C264.144 311.559 264.189 311.85 264.232 312.126C264.242 312.186 264.2 312.242 264.141 312.252C264.134 312.253 264.128 312.254 264.123 312.254ZM296.702 312.149C296.656 312.149 296.613 312.119 296.597 312.073C296.578 312.016 296.611 311.953 296.668 311.935L297.503 311.663C297.562 311.646 297.623 311.677 297.642 311.734C297.661 311.791 297.628 311.854 297.572 311.872L296.736 312.143C296.725 312.147 296.713 312.149 296.702 312.149ZM299.485 311.244C299.439 311.244 299.396 311.214 299.381 311.168C299.362 311.111 299.394 311.048 299.451 311.03L300.286 310.758C300.343 310.741 300.406 310.772 300.424 310.828C300.443 310.886 300.411 310.948 300.354 310.967L299.519 311.238C299.508 311.242 299.497 311.244 299.485 311.244ZM302.27 310.339C302.224 310.339 302.181 310.309 302.165 310.263C302.146 310.205 302.179 310.143 302.235 310.125L303.07 309.853C303.128 309.836 303.19 309.867 303.209 309.923C303.228 309.981 303.195 310.043 303.139 310.062L302.303 310.333C302.292 310.337 302.28 310.339 302.27 310.339ZM305.053 309.435C305.007 309.435 304.964 309.405 304.949 309.359C304.935 309.318 304.948 309.275 304.977 309.247C304.949 308.996 304.918 308.747 304.884 308.497C304.877 308.437 304.919 308.382 304.979 308.373C305.04 308.364 305.094 308.408 305.102 308.467C305.14 308.744 305.173 309.022 305.204 309.299L305.214 309.389L305.088 309.429C305.076 309.433 305.065 309.435 305.053 309.435ZM263.715 309.353C263.66 309.353 263.613 309.312 263.605 309.257C263.57 308.968 263.536 308.676 263.504 308.383C263.498 308.322 263.542 308.269 263.601 308.262C263.666 308.258 263.716 308.299 263.722 308.359C263.754 308.652 263.788 308.942 263.823 309.23C263.831 309.291 263.788 309.345 263.727 309.352C263.723 309.353 263.719 309.353 263.715 309.353ZM304.662 306.57C304.61 306.57 304.564 306.533 304.554 306.48C304.499 306.192 304.441 305.905 304.381 305.621C304.369 305.562 304.406 305.503 304.466 305.491C304.528 305.479 304.584 305.517 304.596 305.575C304.657 305.86 304.715 306.148 304.77 306.438C304.782 306.498 304.742 306.555 304.683 306.567C304.675 306.569 304.668 306.57 304.662 306.57ZM263.43 306.439C263.372 306.439 263.324 306.395 263.32 306.336C263.3 306.04 263.283 305.746 263.269 305.456C263.266 305.396 263.313 305.344 263.374 305.342C263.44 305.331 263.486 305.386 263.488 305.447C263.502 305.734 263.519 306.026 263.539 306.321C263.543 306.382 263.498 306.433 263.437 306.438C263.434 306.438 263.431 306.439 263.43 306.439ZM304.023 303.712C303.974 303.712 303.928 303.68 303.916 303.63C303.842 303.34 303.766 303.057 303.691 302.782C303.675 302.724 303.71 302.663 303.768 302.648C303.829 302.631 303.887 302.667 303.903 302.725C303.978 303.001 304.053 303.285 304.128 303.575C304.143 303.634 304.108 303.694 304.049 303.709C304.04 303.71 304.031 303.712 304.023 303.712ZM263.36 303.513C263.359 303.513 263.358 303.513 263.356 303.513C263.295 303.511 263.248 303.459 263.25 303.398L263.258 303.211C263.263 303.108 263.34 303.022 263.441 303.008L263.982 302.932C264.043 302.919 264.099 302.965 264.106 303.025C264.115 303.086 264.073 303.14 264.013 303.149L263.473 303.225L263.469 303.407C263.468 303.466 263.419 303.513 263.36 303.513ZM266.03 302.867C265.976 302.867 265.929 302.826 265.921 302.772C265.913 302.712 265.955 302.656 266.015 302.648L266.886 302.528C266.951 302.517 267.001 302.561 267.01 302.622C267.018 302.682 266.976 302.737 266.916 302.746L266.045 302.866C266.039 302.867 266.035 302.867 266.03 302.867ZM268.93 302.468C268.876 302.468 268.83 302.428 268.822 302.373C268.813 302.313 268.855 302.258 268.916 302.249L269.786 302.13C269.849 302.123 269.902 302.165 269.91 302.225C269.918 302.284 269.877 302.34 269.816 302.348L268.946 302.466C268.94 302.467 268.935 302.468 268.93 302.468ZM271.833 302.077C271.778 302.077 271.731 302.036 271.724 301.982C271.717 301.921 271.759 301.867 271.818 301.858L272.69 301.742C272.748 301.734 272.805 301.776 272.813 301.837C272.82 301.896 272.778 301.952 272.718 301.96L271.847 302.076C271.842 302.076 271.838 302.077 271.833 302.077ZM274.735 301.691C274.681 301.691 274.634 301.651 274.626 301.596C274.618 301.535 274.66 301.481 274.721 301.473L275.592 301.359C275.653 301.349 275.708 301.393 275.715 301.454C275.723 301.514 275.681 301.569 275.62 301.577L274.749 301.691C274.745 301.691 274.74 301.691 274.735 301.691ZM277.64 301.314C277.585 301.314 277.538 301.273 277.531 301.218C277.524 301.157 277.566 301.102 277.626 301.095L278.498 300.983C278.561 300.974 278.613 301.018 278.621 301.078C278.628 301.137 278.586 301.193 278.526 301.2L277.655 301.313C277.648 301.313 277.644 301.314 277.64 301.314ZM280.562 300.941L280.535 300.723L281.4 300.615C281.463 300.607 281.516 300.65 281.523 300.71C281.531 300.77 281.488 300.825 281.428 300.833L280.562 300.941ZM303.221 300.896C303.174 300.896 303.131 300.865 303.116 300.819C303.023 300.521 302.933 300.242 302.849 299.984C302.829 299.927 302.861 299.864 302.919 299.846C302.976 299.827 303.039 299.859 303.057 299.916C303.142 300.175 303.233 300.456 303.327 300.754C303.345 300.812 303.312 300.874 303.255 300.891C303.243 300.894 303.232 300.896 303.221 300.896ZM280.543 300.833H280.546H280.543ZM283.449 300.583C283.394 300.583 283.347 300.542 283.34 300.487C283.332 300.427 283.376 300.372 283.435 300.365L284.307 300.259C284.365 300.253 284.421 300.294 284.429 300.355C284.436 300.414 284.393 300.47 284.333 300.477L283.461 300.583C283.457 300.583 283.452 300.583 283.449 300.583ZM286.354 300.234C286.299 300.234 286.251 300.193 286.246 300.137C286.239 300.076 286.281 300.022 286.342 300.015L287.214 299.913C287.278 299.906 287.329 299.95 287.336 300.009C287.343 300.07 287.3 300.124 287.24 300.131L286.367 300.233C286.363 300.234 286.359 300.234 286.354 300.234ZM289.262 299.899C289.207 299.899 289.16 299.858 289.153 299.801C289.146 299.741 289.189 299.687 289.25 299.68L290.122 299.583C290.183 299.578 290.237 299.62 290.243 299.68C290.25 299.741 290.207 299.794 290.146 299.801L289.274 299.898C289.271 299.899 289.267 299.899 289.262 299.899ZM292.172 299.581C292.117 299.581 292.069 299.539 292.063 299.483C292.057 299.423 292.101 299.369 292.161 299.362L293.034 299.271C293.094 299.265 293.149 299.309 293.155 299.369C293.162 299.43 293.118 299.483 293.057 299.49L292.185 299.581C292.18 299.58 292.176 299.581 292.172 299.581ZM295.086 299.287C295.029 299.287 294.982 299.244 294.976 299.188C294.97 299.127 295.015 299.073 295.075 299.068C295.374 299.039 295.665 299.012 295.949 298.986C296.013 298.978 296.064 299.025 296.068 299.085C296.074 299.145 296.029 299.199 295.97 299.204C295.685 299.23 295.394 299.258 295.095 299.286C295.092 299.287 295.088 299.287 295.086 299.287ZM298.002 299.028C297.945 299.028 297.897 298.984 297.892 298.928C297.887 298.867 297.932 298.814 297.993 298.809C298.295 298.785 298.587 298.762 298.869 298.742C298.939 298.747 298.982 298.784 298.987 298.844C298.992 298.904 298.946 298.957 298.886 298.962C298.603 298.982 298.313 299.005 298.01 299.029C298.007 299.028 298.004 299.028 298.002 299.028ZM300.922 298.834C300.864 298.834 300.816 298.788 300.813 298.73C300.81 298.669 300.857 298.617 300.917 298.615C301.231 298.599 301.525 298.588 301.797 298.58C301.798 298.58 301.8 298.58 301.801 298.58C301.86 298.58 301.908 298.627 301.91 298.687C301.912 298.747 301.864 298.798 301.803 298.8C301.532 298.808 301.24 298.819 300.928 298.834C300.926 298.834 300.924 298.834 300.922 298.834Z" fill="white"/>
<path d="M288.767 318.713L283.459 319.393C282.763 319.482 282.112 319.039 281.942 318.363L280.675 313.334C280.473 312.533 281.019 311.736 281.843 311.63L288.219 310.815C289.025 310.712 289.746 311.318 289.778 312.128L289.976 317.293C290.002 318.005 289.478 318.622 288.767 318.713Z" fill="url(#paint35_linear_202_3140)"/>
<path d="M287.988 317.857L283.948 318.374C283.418 318.443 282.922 318.106 282.793 317.59L281.829 313.762C281.675 313.153 282.092 312.546 282.718 312.466L287.571 311.845C288.184 311.766 288.733 312.229 288.757 312.844L288.908 316.775C288.929 317.319 288.529 317.788 287.988 317.857Z" fill="url(#paint36_linear_202_3140)"/>
<path d="M284.828 277.159C286.08 282.331 286.113 287.393 285.922 289.234C285.85 289.929 285.292 290.472 284.596 290.521C283.804 290.576 282.727 290.648 281.764 290.704C280.706 290.765 279.532 290.096 278.746 289.538C278.345 289.253 277.827 289.697 278.051 290.135C278.436 290.889 279.106 291.484 279.772 291.989C280.172 292.293 281.501 292.833 281.409 293.432C281.379 293.621 281.266 293.785 281.143 293.932C280.404 294.819 279.286 295.292 278.183 295.631C278.045 295.673 277.898 295.718 277.801 295.826C277.773 296.54 279.968 297.332 280.536 297.52C281.384 297.802 282.284 297.921 283.176 297.827C285.385 297.595 287.424 296.069 288.614 294.231C291.794 289.317 293.439 283.383 294.039 278.845C291.081 275.889 286.615 276.639 284.828 277.159Z" fill="url(#paint37_linear_202_3140)"/>
<path d="M294.031 279.313C296.39 261.491 282.656 247.787 282.656 247.787L274.484 257.313C280.689 265.046 283.637 272.132 284.985 277.698C286.771 277.177 291.073 276.356 294.031 279.313Z" fill="#008080"/>
<path d="M284.794 277.61C284.566 277.61 284.359 277.455 284.303 277.224C282.643 270.363 279.142 263.571 273.9 257.036C273.726 256.819 273.76 256.5 273.978 256.325C274.196 256.151 274.515 256.185 274.689 256.403C280.025 263.055 283.591 269.979 285.287 276.985C285.352 277.257 285.185 277.531 284.914 277.596C284.874 277.606 284.834 277.61 284.794 277.61Z" fill="white"/>
<path d="M174.129 383.265C174.13 383.178 174.124 383.091 174.102 383.001C172.788 377.792 166.265 374.545 166.265 374.545L163.681 374.748C162.195 379.341 162.386 382.157 162.624 383.411C162.63 383.447 162.641 383.479 162.651 383.514C164.783 383.705 169.172 383.829 174.129 383.265Z" fill="url(#paint38_linear_202_3140)"/>
<path d="M162.656 383.514C162.771 383.933 163.08 384.259 163.477 384.342C166.51 384.98 171.331 384.467 173.354 384.202C173.801 384.143 174.127 383.731 174.135 383.264C169.177 383.829 164.789 383.705 162.656 383.514Z" fill="url(#paint39_linear_202_3140)"/>
<path d="M162.645 370.898L163.74 376.168C163.82 376.554 164.117 376.844 164.476 376.878C164.915 376.919 165.542 376.943 166.172 376.851C166.736 376.768 167.13 376.194 167.03 375.578L166.269 370.899H162.645V370.898Z" fill="url(#paint40_linear_202_3140)"/>
<path d="M185.326 383.448C182.471 383.368 180.994 383.031 180.231 382.719C180.229 383.003 180.231 383.292 180.24 383.591C180.249 383.91 180.486 384.166 180.777 384.164L196.451 384.063C196.951 384.06 197.244 383.479 197.027 383.021C194.973 383.191 189.739 383.572 185.326 383.448Z" fill="url(#paint41_linear_202_3140)"/>
<path d="M197.031 383.021C197.012 382.981 196.996 382.94 196.969 382.903C195.585 380.969 192.059 377.117 185.093 375.447L181.751 375.341C181.751 375.341 180.263 377.928 180.234 382.719C180.997 383.031 182.475 383.367 185.329 383.448C189.742 383.571 194.976 383.191 197.031 383.021Z" fill="url(#paint42_linear_202_3140)"/>
<path d="M180.98 370.432C181.033 370.678 181.728 374.428 181.998 375.882C182.062 376.227 182.331 376.481 182.652 376.499C183.224 376.531 184.147 376.534 184.941 376.319C185.369 376.203 185.657 375.767 185.626 375.282L185.252 369.35L180.98 370.432Z" fill="url(#paint43_linear_202_3140)"/>
<path d="M178.447 301.194C178.447 301.194 183.045 332.785 186.362 370.378C186.424 371.078 185.866 371.688 185.179 371.833C184.165 372.046 182.676 372.299 181.442 372.265C180.784 372.246 180.234 371.758 180.122 371.109C178.992 364.48 170.927 328.908 168.81 321.079C168.81 321.079 166.379 354.336 167.156 371.59C167.175 372.019 166.861 372.391 166.434 372.44C165.787 372.515 164.752 372.572 163.434 372.432C162.934 372.379 162.531 372.001 162.459 371.502C161.653 365.893 157.019 332.502 157.217 308.449C157.229 307.092 158.808 295.948 158.808 295.948L178.447 301.194Z" fill="url(#paint44_linear_202_3140)"/>
<path d="M158.116 303.014C157.643 302.846 157.313 302.418 157.262 301.919C156.651 295.987 153.691 259.211 172.379 244.083C172.379 244.083 173.451 241.279 182.259 248.172C191.068 255.064 186.352 262.289 184.243 272.254C181.691 284.312 177.213 294.168 179.194 301.589C179.331 302.1 179.062 302.639 178.565 302.822C171.721 305.343 164.904 305.426 158.116 303.014Z" fill="#FF9000"/>
<path d="M179.668 233.063C179.662 233.586 172.199 244.185 172.199 244.185C172.199 244.185 173.538 246.823 179.933 248.965L185.453 237.616L179.668 233.063Z" fill="url(#paint45_linear_202_3140)"/>
<path d="M185.544 226.989C185.544 226.989 188.199 233.089 188.378 236.29C188.556 239.491 189.245 241.569 185.544 242.213C181.842 242.858 178.724 241.013 177.034 237.825C177.034 237.825 174.387 232.91 174.981 230.899C175.576 228.887 185.544 226.989 185.544 226.989Z" fill="url(#paint46_linear_202_3140)"/>
<path d="M178.297 235.533L178.508 235.439C178.776 235.321 178.891 235.002 178.757 234.742C178.235 233.733 177.217 231.422 178.532 230.883C180.226 230.188 186.938 228.82 188.385 226.438C189.777 224.15 188.543 221.196 186.691 220.355C186.567 220.298 186.42 220.343 186.357 220.463L186.202 220.755C186.097 220.955 185.801 220.925 185.739 220.707C185.678 220.499 185.401 220.458 185.286 220.642C184.84 221.354 183.639 222.51 180.426 223.102C175.859 223.945 172.841 225.793 172.765 228.948C172.76 229.149 172.547 229.26 172.375 229.155C172.038 228.95 171.499 228.853 170.777 229.46C169.522 230.515 170.036 233.25 172.785 235.5C172.915 235.606 172.915 235.811 172.773 235.903C172.275 236.227 171.532 236.999 173.457 238.029C175.448 239.094 176.935 239.006 177.508 238.912C177.65 238.889 177.742 238.751 177.712 238.61L177.1 235.836C177.066 235.678 177.185 235.531 177.346 235.531H178.297V235.533Z" fill="url(#paint47_linear_202_3140)"/>
<path d="M178.41 236.118C178.41 236.118 177.397 232.222 175.65 233.315C173.903 234.407 176.556 237.68 177.961 237.826L178.41 236.118Z" fill="url(#paint48_linear_202_3140)"/>
<path d="M185.09 251.369L185.604 265.186C187.066 265.689 188.457 266.08 189.781 266.373C190.61 263.704 192.435 260.43 193.929 257.995C188.44 256.055 185.09 251.369 185.09 251.369Z" fill="#FF9000"/>
<path d="M212.494 251.134C204.963 259.264 198.868 259.743 193.925 257.996C192.43 260.431 190.606 263.705 189.777 266.373C209.888 270.806 214.623 252.319 214.623 252.319L212.494 251.134Z" fill="url(#paint49_linear_202_3140)"/>
<path d="M214.027 250.271C214.027 250.271 214.895 249.339 216.5 249.631C218.106 249.924 219.535 250.482 220.535 249.631C221.535 248.781 221.887 249.922 221.887 249.922L218.892 252.199L214.027 250.271Z" fill="url(#paint50_linear_202_3140)"/>
<path d="M212.238 251.863C212.238 251.863 212.832 249.378 214.623 249.719C216.414 250.06 220.481 252.271 221.529 251.863C222.578 251.456 223.917 250.481 224.605 250.826L223.393 252.332C223.393 252.332 226.507 250.536 227.043 251.64L221.862 254.555C221.862 254.554 214.284 253.795 212.238 251.863Z" fill="url(#paint51_linear_202_3140)"/>
<path d="M176.73 269.454C176.73 269.454 190.889 281.311 206.177 276.137C207.125 275.816 208.162 275.885 209.047 276.353L213.442 278.675C215.287 279.649 217.571 279.01 218.642 277.219C219.253 276.197 219.774 275.03 219.878 273.913L211.278 270.432L211.912 269.377C211.912 269.377 207.713 269.021 206.614 272.031C206.614 272.031 198.615 275.358 185.128 260.521C185.127 260.521 179.006 265.726 176.73 269.454Z" fill="url(#paint52_linear_202_3140)"/>
<path d="M175.971 269.333C175.924 269.333 175.877 269.319 175.835 269.291C169.874 265.264 167.069 258.763 167.042 258.697C166.991 258.573 167.048 258.431 167.171 258.379C167.295 258.326 167.436 258.384 167.489 258.508C167.516 258.572 170.268 264.944 176.107 268.89C176.218 268.965 176.247 269.116 176.172 269.227C176.125 269.295 176.049 269.333 175.971 269.333Z" fill="url(#paint53_linear_202_3140)"/>
<path d="M184.851 260.321C184.772 260.321 184.694 260.282 184.647 260.21C184.629 260.182 182.808 257.346 179.339 251.135C178.273 249.225 176.87 248.016 175.172 247.541C172.36 246.755 169.651 248.263 169.624 248.278C169.507 248.342 169.36 248.304 169.294 248.187C169.227 248.071 169.268 247.923 169.385 247.857C169.502 247.79 172.289 246.231 175.299 247.073C177.129 247.584 178.63 248.871 179.763 250.899C183.224 257.095 185.038 259.92 185.056 259.948C185.128 260.06 185.096 260.21 184.984 260.283C184.942 260.308 184.896 260.321 184.851 260.321Z" fill="url(#paint54_linear_202_3140)"/>
<defs>
<filter id="filter0_d_202_3140" x="0.347446" y="0.0314465" width="475.305" height="498.305" filterUnits="userSpaceOnUse" color-interpolation-filters="sRGB">
<feFlood flood-opacity="0" result="BackgroundImageFix"/>
<feColorMatrix in="SourceAlpha" type="matrix" values="0 0 0 0 0 0 0 0 0 0 0 0 0 0 0 0 0 0 127 0" result="hardAlpha"/>
<feOffset dy="22.684"/>
<feGaussianBlur stdDeviation="31.3263"/>
<feComposite in2="hardAlpha" operator="out"/>
<feColorMatrix type="matrix" values="0 0 0 0 0.725 0 0 0 0 0.725 0 0 0 0 0.725 0 0 0 0.2 0"/>
<feBlend mode="normal" in2="BackgroundImageFix" result="effect1_dropShadow_202_3140"/>
<feBlend mode="normal" in="SourceGraphic" in2="effect1_dropShadow_202_3140" result="shape"/>
</filter>
<linearGradient id="paint0_linear_202_3140" x1="385.756" y1="412.304" x2="207.52" y2="222.569" gradientUnits="userSpaceOnUse">
<stop stop-color="#008080"/>
<stop offset="1" stop-color="#E9EFFD"/>
</linearGradient>
<linearGradient id="paint1_linear_202_3140" x1="292.046" y1="283.04" x2="349.246" y2="283.04" gradientUnits="userSpaceOnUse">
<stop stop-color="#FF9000"/>
<stop offset="1" stop-color="#FF9000"/>
</linearGradient>
<linearGradient id="paint2_linear_202_3140" x1="297.717" y1="322.918" x2="331.437" y2="322.918" gradientUnits="userSpaceOnUse">
<stop stop-color="#DAE3FE"/>
<stop offset="1" stop-color="#E9EFFD"/>
</linearGradient>
<linearGradient id="paint3_linear_202_3140" x1="258.148" y1="182.704" x2="40.8093" y2="460.831" gradientUnits="userSpaceOnUse">
<stop stop-color="white"/>
<stop offset="1"/>
</linearGradient>
<linearGradient id="paint4_linear_202_3140" x1="258.148" y1="182.705" x2="40.8093" y2="460.832" gradientUnits="userSpaceOnUse">
<stop stop-color="#FF9D1F"/>
<stop offset="1" stop-color="#FEBE6C"/>
</linearGradient>
<linearGradient id="paint5_linear_202_3140" x1="129.535" y1="218.731" x2="152.1" y2="218.731" gradientUnits="userSpaceOnUse">
<stop stop-color="#DAE3FE"/>
<stop offset="1" stop-color="#E9EFFD"/>
</linearGradient>
<linearGradient id="paint6_linear_202_3140" x1="158.722" y1="208.924" x2="254.336" y2="208.924" gradientUnits="userSpaceOnUse">
<stop stop-color="#DAE3FE"/>
<stop offset="1" stop-color="#E9EFFD"/>
</linearGradient>
<linearGradient id="paint7_linear_202_3140" x1="160.476" y1="224.273" x2="224.655" y2="224.273" gradientUnits="userSpaceOnUse">
<stop stop-color="#DAE3FE"/>
<stop offset="1" stop-color="#E9EFFD"/>
</linearGradient>
<linearGradient id="paint8_linear_202_3140" x1="129.535" y1="262.609" x2="152.1" y2="262.609" gradientUnits="userSpaceOnUse">
<stop stop-color="#DAE3FE"/>
<stop offset="1" stop-color="#E9EFFD"/>
</linearGradient>
<linearGradient id="paint9_linear_202_3140" x1="158.722" y1="252.802" x2="254.336" y2="252.802" gradientUnits="userSpaceOnUse">
<stop stop-color="#DAE3FE"/>
<stop offset="1" stop-color="#E9EFFD"/>
</linearGradient>
<linearGradient id="paint10_linear_202_3140" x1="129.535" y1="306.487" x2="152.1" y2="306.487" gradientUnits="userSpaceOnUse">
<stop stop-color="#DAE3FE"/>
<stop offset="1" stop-color="#E9EFFD"/>
</linearGradient>
<linearGradient id="paint11_linear_202_3140" x1="158.722" y1="296.681" x2="254.336" y2="296.681" gradientUnits="userSpaceOnUse">
<stop stop-color="#DAE3FE"/>
<stop offset="1" stop-color="#E9EFFD"/>
</linearGradient>
<linearGradient id="paint12_linear_202_3140" x1="160.476" y1="312.029" x2="224.655" y2="312.029" gradientUnits="userSpaceOnUse">
<stop stop-color="#DAE3FE"/>
<stop offset="1" stop-color="#E9EFFD"/>
</linearGradient>
<linearGradient id="paint13_linear_202_3140" x1="235.979" y1="297.028" x2="205.938" y2="373.941" gradientUnits="userSpaceOnUse">
<stop stop-color="#09005D"/>
<stop offset="1" stop-color="#1A0F91"/>
</linearGradient>
<linearGradient id="paint14_linear_202_3140" x1="214.012" y1="275.565" x2="208.66" y2="276.615" gradientUnits="userSpaceOnUse">
<stop stop-color="#FEBBBA"/>
<stop offset="1" stop-color="#FF928E"/>
</linearGradient>
<linearGradient id="paint15_linear_202_3140" x1="209.496" y1="270.189" x2="234.329" y2="270.189" gradientUnits="userSpaceOnUse">
<stop stop-color="#FEBBBA"/>
<stop offset="1" stop-color="#FF928E"/>
</linearGradient>
<linearGradient id="paint16_linear_202_3140" x1="265.062" y1="245.352" x2="261.08" y2="233.406" gradientUnits="userSpaceOnUse">
<stop stop-color="#FEBBBA"/>
<stop offset="1" stop-color="#FF928E"/>
</linearGradient>
<linearGradient id="paint17_linear_202_3140" x1="255.757" y1="230.692" x2="270.07" y2="236.915" gradientUnits="userSpaceOnUse">
<stop stop-color="#FEBBBA"/>
<stop offset="1" stop-color="#FF928E"/>
</linearGradient>
<linearGradient id="paint18_linear_202_3140" x1="266.105" y1="239.268" x2="254.387" y2="226.819" gradientUnits="userSpaceOnUse">
<stop stop-color="#09005D"/>
<stop offset="1" stop-color="#1A0F91"/>
</linearGradient>
<linearGradient id="paint19_linear_202_3140" x1="254.861" y1="232.744" x2="269.173" y2="238.966" gradientUnits="userSpaceOnUse">
<stop stop-color="#FEBBBA"/>
<stop offset="1" stop-color="#FF928E"/>
</linearGradient>
<linearGradient id="paint20_linear_202_3140" x1="282.937" y1="383.789" x2="265.149" y2="383.789" gradientUnits="userSpaceOnUse">
<stop stop-color="#4042E2"/>
<stop offset="1" stop-color="#4F52FF"/>
</linearGradient>
<linearGradient id="paint21_linear_202_3140" x1="325.873" y1="367.148" x2="261.468" y2="385.505" gradientUnits="userSpaceOnUse">
<stop stop-color="#09005D"/>
<stop offset="1" stop-color="#1A0F91"/>
</linearGradient>
<linearGradient id="paint22_linear_202_3140" x1="281.295" y1="375.437" x2="276.285" y2="375.437" gradientUnits="userSpaceOnUse">
<stop stop-color="#FEBBBA"/>
<stop offset="1" stop-color="#FF928E"/>
</linearGradient>
<linearGradient id="paint23_linear_202_3140" x1="318.399" y1="383.406" x2="311.582" y2="383.406" gradientUnits="userSpaceOnUse">
<stop stop-color="#4042E2"/>
<stop offset="1" stop-color="#4F52FF"/>
</linearGradient>
<linearGradient id="paint24_linear_202_3140" x1="289.963" y1="363.417" x2="330.1" y2="389.553" gradientUnits="userSpaceOnUse">
<stop stop-color="#09005D"/>
<stop offset="1" stop-color="#1A0F91"/>
</linearGradient>
<linearGradient id="paint25_linear_202_3140" x1="313.145" y1="371.26" x2="307.157" y2="371.26" gradientUnits="userSpaceOnUse">
<stop stop-color="#FEBBBA"/>
<stop offset="1" stop-color="#FF928E"/>
</linearGradient>
<linearGradient id="paint26_linear_202_3140" x1="313.992" y1="380.051" x2="222.623" y2="253.73" gradientUnits="userSpaceOnUse">
<stop stop-color="#09005D"/>
<stop offset="1" stop-color="#1A0F91"/>
</linearGradient>
<linearGradient id="paint27_linear_202_3140" x1="292.008" y1="363.605" x2="284.941" y2="312.785" gradientUnits="userSpaceOnUse">
<stop stop-color="#FF928E"/>
<stop offset="1" stop-color="#FE7062"/>
</linearGradient>
<linearGradient id="paint28_linear_202_3140" x1="275.194" y1="303.377" x2="274.188" y2="297.468" gradientUnits="userSpaceOnUse">
<stop stop-color="#E1473D"/>
<stop offset="1" stop-color="#E9605A"/>
</linearGradient>
<linearGradient id="paint29_linear_202_3140" x1="273.742" y1="294.499" x2="277.147" y2="311.365" gradientUnits="userSpaceOnUse">
<stop stop-color="#E1473D"/>
<stop offset="1" stop-color="#E9605A"/>
</linearGradient>
<linearGradient id="paint30_linear_202_3140" x1="291.656" y1="300.576" x2="290.651" y2="294.667" gradientUnits="userSpaceOnUse">
<stop stop-color="#E1473D"/>
<stop offset="1" stop-color="#E9605A"/>
</linearGradient>
<linearGradient id="paint31_linear_202_3140" x1="290.095" y1="291.199" x2="293.499" y2="308.065" gradientUnits="userSpaceOnUse">
<stop stop-color="#E1473D"/>
<stop offset="1" stop-color="#E9605A"/>
</linearGradient>
<linearGradient id="paint32_linear_202_3140" x1="282.234" y1="283.781" x2="282.133" y2="296.115" gradientUnits="userSpaceOnUse">
<stop stop-color="#E1473D"/>
<stop offset="1" stop-color="#E9605A"/>
</linearGradient>
<linearGradient id="paint33_linear_202_3140" x1="275.124" y1="292.362" x2="269.478" y2="260.297" gradientUnits="userSpaceOnUse">
<stop stop-color="#FEBBBA"/>
<stop offset="1" stop-color="#FF928E"/>
</linearGradient>
<linearGradient id="paint34_linear_202_3140" x1="283.941" y1="293.16" x2="285.123" y2="350.508" gradientUnits="userSpaceOnUse">
<stop stop-color="#FF928E"/>
<stop offset="1" stop-color="#FE7062"/>
</linearGradient>
<linearGradient id="paint35_linear_202_3140" x1="285.277" y1="300.085" x2="285.312" y2="319.31" gradientUnits="userSpaceOnUse">
<stop stop-color="#E1473D"/>
<stop offset="1" stop-color="#E9605A"/>
</linearGradient>
<linearGradient id="paint36_linear_202_3140" x1="282.055" y1="315.584" x2="288.999" y2="314.695" gradientUnits="userSpaceOnUse">
<stop stop-color="#FF928E"/>
<stop offset="1" stop-color="#FE7062"/>
</linearGradient>
<linearGradient id="paint37_linear_202_3140" x1="289.605" y1="280.051" x2="276.046" y2="306.126" gradientUnits="userSpaceOnUse">
<stop stop-color="#FEBBBA"/>
<stop offset="1" stop-color="#FF928E"/>
</linearGradient>
<linearGradient id="paint38_linear_202_3140" x1="162.461" y1="379.11" x2="174.129" y2="379.11" gradientUnits="userSpaceOnUse">
<stop stop-color="#09005D"/>
<stop offset="1" stop-color="#1A0F91"/>
</linearGradient>
<linearGradient id="paint39_linear_202_3140" x1="191.678" y1="365.344" x2="149.228" y2="398.677" gradientUnits="userSpaceOnUse">
<stop stop-color="#4042E2"/>
<stop offset="1" stop-color="#4F52FF"/>
</linearGradient>
<linearGradient id="paint40_linear_202_3140" x1="165.709" y1="365.826" x2="163.48" y2="385.278" gradientUnits="userSpaceOnUse">
<stop stop-color="#A22B25"/>
<stop offset="1" stop-color="#C0423C"/>
</linearGradient>
<linearGradient id="paint41_linear_202_3140" x1="199.216" y1="374.935" x2="156.765" y2="408.267" gradientUnits="userSpaceOnUse">
<stop stop-color="#4042E2"/>
<stop offset="1" stop-color="#4F52FF"/>
</linearGradient>
<linearGradient id="paint42_linear_202_3140" x1="180.235" y1="379.406" x2="197.031" y2="379.406" gradientUnits="userSpaceOnUse">
<stop stop-color="#09005D"/>
<stop offset="1" stop-color="#1A0F91"/>
</linearGradient>
<linearGradient id="paint43_linear_202_3140" x1="183.562" y1="367.88" x2="182.561" y2="387.434" gradientUnits="userSpaceOnUse">
<stop stop-color="#A22B25"/>
<stop offset="1" stop-color="#C0423C"/>
</linearGradient>
<linearGradient id="paint44_linear_202_3140" x1="165.093" y1="388.07" x2="181.595" y2="267.307" gradientUnits="userSpaceOnUse">
<stop stop-color="#008080"/>
<stop offset="1" stop-color="#008080"/>
</linearGradient>
<linearGradient id="paint45_linear_202_3140" x1="172.466" y1="255.211" x2="184.468" y2="228.209" gradientUnits="userSpaceOnUse">
<stop stop-color="#A22B25"/>
<stop offset="1" stop-color="#C0423C"/>
</linearGradient>
<linearGradient id="paint46_linear_202_3140" x1="168.494" y1="212.935" x2="185.539" y2="238.928" gradientUnits="userSpaceOnUse">
<stop stop-color="#A22B25"/>
<stop offset="1" stop-color="#C0423C"/>
</linearGradient>
<linearGradient id="paint47_linear_202_3140" x1="170.088" y1="217.481" x2="182.887" y2="232.471" gradientUnits="userSpaceOnUse">
<stop stop-color="#09005D"/>
<stop offset="1" stop-color="#1A0F91"/>
</linearGradient>
<linearGradient id="paint48_linear_202_3140" x1="164.032" y1="215.858" x2="181.077" y2="241.851" gradientUnits="userSpaceOnUse">
<stop stop-color="#A22B25"/>
<stop offset="1" stop-color="#C0423C"/>
</linearGradient>
<linearGradient id="paint49_linear_202_3140" x1="222.436" y1="249.972" x2="189.871" y2="266.171" gradientUnits="userSpaceOnUse">
<stop stop-color="#A22B25"/>
<stop offset="1" stop-color="#C0423C"/>
</linearGradient>
<linearGradient id="paint50_linear_202_3140" x1="221.966" y1="245.91" x2="210.827" y2="257.544" gradientUnits="userSpaceOnUse">
<stop stop-color="#A22B25"/>
<stop offset="1" stop-color="#C0423C"/>
</linearGradient>
<linearGradient id="paint51_linear_202_3140" x1="222.599" y1="249.781" x2="190.035" y2="265.98" gradientUnits="userSpaceOnUse">
<stop stop-color="#A22B25"/>
<stop offset="1" stop-color="#C0423C"/>
</linearGradient>
<linearGradient id="paint52_linear_202_3140" x1="236.204" y1="277.266" x2="141.699" y2="260.177" gradientUnits="userSpaceOnUse">
<stop stop-color="#A22B25"/>
<stop offset="1" stop-color="#C0423C"/>
</linearGradient>
<linearGradient id="paint53_linear_202_3140" x1="202.655" y1="205.259" x2="117.33" y2="366.322" gradientUnits="userSpaceOnUse">
<stop stop-color="#E1473D"/>
<stop offset="1" stop-color="#E9605A"/>
</linearGradient>
<linearGradient id="paint54_linear_202_3140" x1="202.954" y1="205.416" x2="117.629" y2="366.48" gradientUnits="userSpaceOnUse">
<stop stop-color="#E1473D"/>
<stop offset="1" stop-color="#E9605A"/>
</linearGradient>
</defs>
</svg>
