<?xml version="1.0" encoding="utf-8"?>
<!-- Generator: Adobe Illustrator 26.0.1, SVG Export Plug-In . SVG Version: 6.00 Build 0)  -->
<svg version="1.1" id="Layer_1" xmlns="http://www.w3.org/2000/svg" xmlns:xlink="http://www.w3.org/1999/xlink" x="0px" y="0px"
	 viewBox="0 0 276.57 373.14" style="enable-background:new 0 0 276.57 373.14;" xml:space="preserve">
<style type="text/css">
	.st0{fill:#008080;}
	.st1{fill:#CCCCCC;}
	.st2{fill:#FF9001;}
	.st3{fill:#FFFFFF;}
	.st4{fill:#231F20;}
</style>
<g>
	<g>
		<path class="st0" d="M27.01,319.32v12.06c-7.32-0.51-15.88,2.89-15.88,14.43v25.98H0v-51.55h11.13v8.66
			C14.23,321.9,20.52,319.32,27.01,319.32z"/>
		<path class="st0" d="M58.14,362.93c6.19,0,10.83-2.78,13.3-6.39l9.17,5.36c-4.74,7.01-12.47,11.24-22.58,11.24
			c-17.01,0-28.04-11.65-28.04-27.12c0-15.26,11.03-27.11,27.22-27.11c15.36,0,25.88,12.37,25.88,27.22c0,1.55-0.21,3.2-0.41,4.64
			H41.65C43.4,358.81,49.89,362.93,58.14,362.93z M71.85,341.69c-1.55-8.87-8.04-12.68-14.74-12.68c-8.35,0-14.02,4.95-15.57,12.68
			H71.85z"/>
		<path class="st0" d="M139.78,340.15v31.65h-11.14v-30.52c0-7.83-4.54-11.96-11.55-11.96c-7.32,0-13.09,4.33-13.09,14.85v27.63
			H92.87v-51.55h11.13v6.6c3.4-5.36,8.97-7.94,15.98-7.94C131.54,318.91,139.78,326.74,139.78,340.15z"/>
		<path class="st0" d="M167.71,330.97v24.74c0,6.6,4.33,6.49,12.78,6.08v10c-17.11,2.06-23.92-2.68-23.92-16.08v-24.74h-9.49v-10.72
			h9.49v-11.14l11.13-3.3v14.43h12.78v10.72H167.71z"/>
		<path class="st0" d="M204.2,330.97v24.74c0,6.6,4.33,6.49,12.79,6.08v10c-17.11,2.06-23.92-2.68-23.92-16.08v-24.74h-9.49v-10.72
			h9.49v-11.14l11.13-3.3v14.43h12.79v10.72H204.2z"/>
		<path class="st0" d="M222.14,346.02c0-15.36,12.16-27.11,27.22-27.11c15.15,0,27.22,11.75,27.22,27.11
			c0,15.26-12.06,27.12-27.22,27.12C234.3,373.14,222.14,361.28,222.14,346.02z M265.44,346.02c0-9.38-7.01-16.29-16.08-16.29
			c-9.07,0-16.08,6.91-16.08,16.29c0,9.38,7.01,16.29,16.08,16.29C258.43,362.31,265.44,355.4,265.44,346.02z"/>
	</g>
	<g>
		<g>
			<path class="st1" d="M86.65,0v140.38l-25.11,14.9v37.73h10.91c1.81,0,3.27,1.47,3.27,3.27v89.17H54.99v-85.9H34.5v85.9H0V0H86.65
				z"/>
			<path class="st2" d="M181.6,0v108.19l-9.34-5.92v66.86l9.34,5.03v111.3h-43.65V156.13c0-1.16,0.6-2.24,1.61-2.82
				c0.96-0.6,2.19-0.63,3.23-0.07l9.22,4.98V62.98l-51.16,30v31.35l9.05-5.37c1.01-0.63,2.29-0.63,3.3-0.05
				c1.04,0.58,1.66,1.69,1.66,2.86v163.68H94.95V0H181.6z"/>
			<path class="st0" d="M276.57,0v285.45h-34.5V169.37h-20.25v116.09H201.6V166.09c0-1.81,1.47-3.27,3.27-3.27h10.4v-33.27
				l-25.37-16.08V0H276.57z"/>
		</g>
		<path class="st4" d="M245.35,162.82h-23.52v-35.05c0-1.13-0.6-2.17-1.54-2.77l-30.38-19.28l-8.31-5.27l-10.88-6.91
			c-0.99-0.63-2.29-0.67-3.32-0.1c-1.06,0.58-1.69,1.69-1.69,2.89v69.26l-7.15-3.83V57.27c0-1.18-0.63-2.29-1.66-2.84
			c-0.99-0.6-2.26-0.6-3.27,0L95.91,88.26c-0.39,0.24-0.7,0.53-0.96,0.89c-0.41,0.55-0.65,1.23-0.65,1.95v37.1l-7.66,4.55
			L56.6,150.61c-0.99,0.6-1.61,1.66-1.61,2.82v39.58H31.23c-1.81,0-3.27,1.47-3.27,3.27v89.17h6.55v-85.9h20.49v85.9h6.55v-85.9
			h7.63v85.9h6.55v-89.17c0-1.81-1.47-3.27-3.27-3.27H61.54v-37.73l25.11-14.9l7.66-4.55v149.62h6.55V131.93l7.46-4.43v157.95h6.55
			V121.77c0-1.18-0.63-2.29-1.66-2.86c-1.01-0.58-2.29-0.58-3.3,0.05l-9.05,5.37V92.98l51.16-30v95.24l-9.22-4.98
			c-1.04-0.55-2.26-0.53-3.23,0.07c-1.01,0.58-1.61,1.66-1.61,2.82v129.33h6.55V161.59l7.51,4.07l6.55,3.54l7.15,3.83l6.55,3.54
			l7.32,3.95v104.94h6.55V178.56c0-1.2-0.7-2.31-1.73-2.89l-2.79-1.52l-9.34-5.03v-66.86l9.34,5.92l8.31,5.27l25.37,16.08v33.27
			h-10.4c-1.81,0-3.27,1.47-3.27,3.27v119.36h6.55V169.37h7.13v116.09h6.55V169.37h20.25v116.09h6.55V166.09
			C248.62,164.29,247.13,162.82,245.35,162.82z"/>
	</g>
</g>
</svg>
